<svg width="383" height="234" viewBox="0 0 383 234" fill="none" xmlns="http://www.w3.org/2000/svg">
<path d="M216.723 10.3842C221.409 12.4088 225.801 14.6526 229.783 17.0439C243.702 25.3981 254.9 37.5614 268.578 45.9412C281.495 53.8532 297.268 55.7766 312.048 57.0984C337.811 59.4043 391.545 81.514 381.842 122.493C378.313 137.406 365.865 147.535 359.492 161.039C352.712 175.405 353.424 193.322 342.631 205.777C337.882 211.252 331.328 214.869 324.599 217.609C279.814 235.835 229.522 234.988 182.036 232.978C144.554 231.392 84.3541 239.773 51.4323 219.308C35.0876 209.147 43.5872 181.371 32.2772 166.453C22.7731 153.917 9.83828 145.683 3.48467 129.991C-7.32859 103.29 8.08502 68.543 35.0705 59.0632C51.9339 53.1405 69.7994 50.4265 86.4695 43.9215C103.691 37.1984 110.328 27.1291 123.461 15.2118C147.204 -6.33146 187.615 -2.19701 216.723 10.3842Z" fill="#CCE9FF"/>
<path d="M178.812 208.14C178.812 208.14 178.812 208.302 178.812 208.566C178.837 208.303 178.812 208.14 178.812 208.14Z" fill="white"/>
<path d="M210.078 208.051C210.647 218.542 202.565 227.506 192.027 228.074C181.489 228.642 172.486 220.596 171.915 210.104C171.346 199.613 179.426 190.645 189.969 190.081C200.502 189.513 209.507 197.556 210.078 208.051Z" fill="#FFBE55"/>
<path d="M194.729 200.298C194.988 200.283 195.265 200.285 195.559 200.296C197.361 200.371 199.521 201.894 199.944 205.009L199.997 206.049C199.927 208.964 197.983 212.635 192.059 217.399C191.707 217.678 191.217 217.705 190.842 217.466C184.436 213.366 182.103 209.922 181.719 207.031L181.664 205.993C181.744 202.852 183.729 201.104 185.509 200.836C185.8 200.791 186.076 200.76 186.336 200.75C188.403 200.637 189.445 201.478 190.654 202.76C191.718 201.355 192.659 200.41 194.729 200.298Z" fill="white"/>
<path d="M88.7734 131.42C92.2783 131.42 95.1197 128.591 95.1197 125.101C95.1197 121.611 92.2783 118.782 88.7734 118.782C85.2684 118.782 82.4271 121.611 82.4271 125.101C82.4271 128.591 85.2684 131.42 88.7734 131.42Z" fill="#FFBE55"/>
<path d="M86.297 123.117C86.921 122.826 87.3456 122.955 87.879 123.201C88.0319 122.634 88.2045 122.226 88.8248 121.936C88.9031 121.9 88.9899 121.864 89.0805 121.833C89.6445 121.633 90.4997 121.834 91.0209 122.74L91.1665 123.053C91.5103 123.958 91.3721 125.331 90.1437 127.534C90.0691 127.662 89.9235 127.731 89.7754 127.704C87.2905 127.237 86.1429 126.465 85.6632 125.624L85.5152 125.311C85.1469 124.334 85.5397 123.55 86.0548 123.247C86.1392 123.196 86.2199 123.152 86.297 123.117Z" fill="white"/>
<path d="M85.7954 184.018C93.781 184.018 100.255 177.572 100.255 169.621C100.255 161.671 93.781 155.225 85.7954 155.225C77.8097 155.225 71.3361 161.671 71.3361 169.621C71.3361 177.572 77.8097 184.018 85.7954 184.018Z" fill="#FFBE55"/>
<path d="M80.1526 165.098C81.5719 164.436 82.5397 164.729 83.7534 165.288C84.0996 164 84.4936 163.07 85.9116 162.409C86.0903 162.325 86.2848 162.245 86.4952 162.174C87.7787 161.718 89.7314 162.176 90.9108 164.242L91.2473 164.955C92.0315 167.017 91.7134 170.145 88.9129 175.162C88.7501 175.455 88.4137 175.611 88.0784 175.549C82.4149 174.483 79.8002 172.728 78.704 170.809L78.3675 170.097C77.5307 167.869 78.425 166.084 79.5984 165.392C79.7892 165.279 79.9764 165.179 80.1526 165.098Z" fill="white"/>
<path d="M118.618 159.34C124.88 159.34 129.956 154.286 129.956 148.051C129.956 141.817 124.88 136.763 118.618 136.763C112.356 136.763 107.28 141.817 107.28 148.051C107.28 154.286 112.356 159.34 118.618 159.34Z" fill="#2A94F4"/>
<path d="M113.367 151.924L113.495 151.44C114.069 149.28 116.316 147.981 118.485 148.553C120.654 149.124 121.957 151.361 121.383 153.52L121.255 154.003L113.367 151.924Z" fill="white"/>
<path d="M119.276 148.092C120.673 148.092 121.805 146.964 121.805 145.574C121.805 144.183 120.673 143.056 119.276 143.056C117.88 143.056 116.747 144.183 116.747 145.574C116.747 146.964 117.88 148.092 119.276 148.092Z" fill="white"/>
<path d="M65.2627 150.147C70.2968 150.147 74.3777 146.083 74.3777 141.071C74.3777 136.059 70.2968 131.996 65.2627 131.996C60.2286 131.996 56.1476 136.059 56.1476 141.071C56.1476 146.083 60.2286 150.147 65.2627 150.147Z" fill="#2A94F4"/>
<path d="M63.6856 146.062L63.54 145.687C62.8879 144.011 63.7333 142.109 65.4132 141.461C67.0955 140.812 69.0053 141.651 69.6575 143.326L69.8031 143.702L63.6856 146.062Z" fill="white"/>
<path d="M64.5151 141.173C65.6375 141.173 66.5473 140.268 66.5473 139.15C66.5473 138.033 65.6375 137.127 64.5151 137.127C63.3927 137.127 62.4829 138.033 62.4829 139.15C62.4829 140.268 63.3927 141.173 64.5151 141.173Z" fill="white"/>
<path d="M301.564 128.661C305.069 128.661 307.91 125.832 307.91 122.342C307.91 118.852 305.069 116.023 301.564 116.023C298.059 116.023 295.218 118.852 295.218 122.342C295.218 125.832 298.059 128.661 301.564 128.661Z" fill="#FFBE55"/>
<path d="M304.04 120.356C304.116 120.392 304.198 120.436 304.281 120.484C304.798 120.789 305.189 121.572 304.821 122.549L304.673 122.862C304.192 123.703 303.046 124.474 300.561 124.942C300.415 124.97 300.267 124.901 300.195 124.771C298.964 122.569 298.826 121.197 299.169 120.292L299.318 119.979C299.836 119.073 300.692 118.871 301.256 119.071C301.346 119.102 301.433 119.138 301.511 119.175C302.133 119.465 302.307 119.873 302.457 120.438C302.992 120.196 303.417 120.065 304.04 120.356Z" fill="white"/>
<path d="M304.543 181.259C312.529 181.259 319.004 174.813 319.004 166.861C319.004 158.91 312.529 152.464 304.543 152.464C296.557 152.464 290.083 158.91 290.083 166.861C290.083 174.813 296.557 181.259 304.543 181.259Z" fill="#FFBE55"/>
<path d="M310.185 162.337C310.362 162.418 310.548 162.517 310.739 162.632C311.912 163.323 312.805 165.108 311.97 167.336L311.633 168.049C310.538 169.966 307.922 171.723 302.259 172.789C301.925 172.851 301.587 172.695 301.424 172.401C298.626 167.385 298.308 164.257 299.09 162.194L299.426 161.482C300.61 159.416 302.56 158.956 303.842 159.412C304.052 159.486 304.246 159.564 304.426 159.648C305.845 160.31 306.236 161.24 306.584 162.527C307.798 161.969 308.765 161.675 310.185 162.337Z" fill="white"/>
<path d="M271.719 156.58C277.981 156.58 283.057 151.526 283.057 145.291C283.057 139.056 277.981 134.002 271.719 134.002C265.457 134.002 260.381 139.056 260.381 145.291C260.381 151.526 265.457 156.58 271.719 156.58Z" fill="#2A94F4"/>
<path d="M276.97 149.165L276.842 148.681C276.268 146.521 274.022 145.221 271.852 145.793C269.686 146.365 268.38 148.601 268.954 150.76L269.082 151.244L276.97 149.165Z" fill="white"/>
<path d="M271.061 145.331C272.458 145.331 273.59 144.204 273.59 142.813C273.59 141.422 272.458 140.295 271.061 140.295C269.664 140.295 268.532 141.422 268.532 142.813C268.532 144.204 269.664 145.331 271.061 145.331Z" fill="white"/>
<path d="M325.075 147.386C330.109 147.386 334.19 143.323 334.19 138.311C334.19 133.299 330.109 129.236 325.075 129.236C320.04 129.236 315.96 133.299 315.96 138.311C315.96 143.323 320.04 147.386 325.075 147.386Z" fill="#2A94F4"/>
<path d="M326.652 143.301L326.797 142.925C327.449 141.25 326.604 139.348 324.924 138.7C323.242 138.05 321.332 138.891 320.68 140.565L320.534 140.941L326.652 143.301Z" fill="white"/>
<path d="M325.822 138.413C326.944 138.413 327.854 137.507 327.854 136.39C327.854 135.272 326.944 134.366 325.822 134.366C324.7 134.366 323.79 135.272 323.79 136.39C323.79 137.507 324.7 138.413 325.822 138.413Z" fill="white"/>
<path d="M254.763 212.223C266.602 212.223 276.2 202.667 276.2 190.88C276.2 179.092 266.602 169.536 254.763 169.536C242.923 169.536 233.326 179.092 233.326 190.88C233.326 202.667 242.923 212.223 254.763 212.223Z" fill="#2A94F4"/>
<path d="M261.415 201.249L261.515 200.307C261.964 196.107 258.88 192.305 254.659 191.857C250.438 191.408 246.62 194.483 246.173 198.683L246.072 199.625L261.415 201.249Z" fill="white"/>
<path d="M255.278 190.822C257.919 190.822 260.06 188.691 260.06 186.061C260.06 183.431 257.919 181.299 255.278 181.299C252.636 181.299 250.495 183.431 250.495 186.061C250.495 188.691 252.636 190.822 255.278 190.822Z" fill="white"/>
<path d="M126.752 212.227C138.591 212.227 148.189 202.671 148.189 190.883C148.189 179.096 138.591 169.54 126.752 169.54C114.913 169.54 105.315 179.096 105.315 190.883C105.315 202.671 114.913 212.227 126.752 212.227Z" fill="#2A94F4"/>
<path d="M131.384 202.289L131.657 201.38C132.871 197.333 130.536 193.032 126.472 191.825C122.405 190.616 118.086 192.941 116.875 196.987L116.599 197.895L131.384 202.289Z" fill="white"/>
<path d="M132.727 187.601C131.97 190.122 129.308 191.556 126.778 190.804C124.247 190.052 122.806 187.399 123.564 184.88C124.314 182.361 126.981 180.926 129.511 181.678C132.044 182.429 133.482 185.081 132.727 187.601Z" fill="white"/>
<path d="M225.029 52.3999V178.989C225.029 179.777 224.387 180.418 223.593 180.418H158.399C157.606 180.418 156.965 179.778 156.965 178.989V52.3999C156.965 51.619 157.605 50.9795 158.399 50.9795H223.593C224.387 50.9795 225.029 51.6202 225.029 52.3999Z" fill="#F2F2F2"/>
<path d="M161.322 58.146V166.373H220.671V58.146C220.671 57.5942 220.21 57.1556 219.643 57.1556H162.347C161.783 57.1556 161.322 57.5942 161.322 58.146Z" fill="#B3B3B3"/>
<path d="M190.996 177.026C193.12 177.026 194.842 175.311 194.842 173.197C194.842 171.082 193.12 169.368 190.996 169.368C188.873 169.368 187.151 171.082 187.151 173.197C187.151 175.311 188.873 177.026 190.996 177.026Z" fill="#D3D3D3"/>
<path d="M190.997 55.544C191.807 55.544 192.463 54.89 192.463 54.0834C192.463 53.2767 191.807 52.6228 190.997 52.6228C190.186 52.6228 189.53 53.2767 189.53 54.0834C189.53 54.89 190.186 55.544 190.997 55.544Z" fill="#4D4D4D"/>
<path d="M220.671 57.1556H161.322V166.373H220.671V57.1556Z" fill="#F2F2F2"/>
<path d="M178.175 161.605C178.386 161.275 178.512 160.882 178.512 160.462C178.512 159.277 177.547 158.317 176.359 158.317C175.168 158.317 174.203 159.277 174.203 160.462C174.203 161.647 175.168 162.607 176.359 162.607C176.887 162.607 177.362 162.411 177.737 162.098L178.512 162.3L178.175 161.605Z" fill="#0E538C"/>
<path d="M169.298 158.317C169.365 158.317 169.431 158.319 169.506 158.327C169.955 158.372 170.476 158.781 170.538 159.566V159.827C170.483 160.555 169.946 161.448 168.397 162.557C168.307 162.624 168.184 162.624 168.094 162.557C166.547 161.448 166.01 160.553 165.955 159.827V159.566C166.018 158.781 166.536 158.373 166.985 158.327C167.06 158.319 167.129 158.317 167.193 158.317C167.712 158.317 167.961 158.54 168.247 158.878C168.532 158.539 168.78 158.317 169.298 158.317Z" fill="#FFBE55"/>
<path d="M220.671 71.1036H161.322V125.949H220.671V71.1036Z" fill="#D3D3D3"/>
<path d="M220.674 81.5043H161.322V155.23H220.674V81.5043Z" fill="#FFE3CA"/>
<path d="M168.48 79.5174C169.993 79.5174 171.22 78.2963 171.22 76.79C171.22 75.2836 169.993 74.0625 168.48 74.0625C166.968 74.0625 165.741 75.2836 165.741 76.79C165.741 78.2963 166.968 79.5174 168.48 79.5174Z" fill="#CCCCCC"/>
<path d="M198.035 75.4609H172.916V78.1202H198.035V75.4609Z" fill="#CCCCCC"/>
<path d="M215.9 75.696C216.094 75.696 216.252 75.539 216.252 75.3452C216.252 75.1515 216.094 74.9944 215.9 74.9944C215.705 74.9944 215.547 75.1515 215.547 75.3452C215.547 75.539 215.705 75.696 215.9 75.696Z" fill="#999999"/>
<path d="M215.9 77.1408C216.094 77.1408 216.252 76.9837 216.252 76.7899C216.252 76.5962 216.094 76.4391 215.9 76.4391C215.705 76.4391 215.547 76.5962 215.547 76.7899C215.547 76.9837 215.705 77.1408 215.9 77.1408Z" fill="#999999"/>
<path d="M215.9 78.5856C216.094 78.5856 216.252 78.4285 216.252 78.2347C216.252 78.041 216.094 77.8839 215.9 77.8839C215.705 77.8839 215.547 78.041 215.547 78.2347C215.547 78.4285 215.705 78.5856 215.9 78.5856Z" fill="#999999"/>
<path d="M193.171 160.282C193.697 160.282 194.124 159.857 194.124 159.333C194.124 158.809 193.697 158.384 193.171 158.384C192.644 158.384 192.218 158.809 192.218 159.333C192.218 159.857 192.644 160.282 193.171 160.282Z" fill="#D3D3D3"/>
<path d="M189.249 160.282C189.776 160.282 190.202 159.857 190.202 159.333C190.202 158.809 189.776 158.384 189.249 158.384C188.723 158.384 188.296 158.809 188.296 159.333C188.296 159.857 188.723 160.282 189.249 160.282Z" fill="#F2F2F2"/>
<path d="M169.784 66.1847C170.446 66.1847 170.983 65.6502 170.983 64.9909C170.983 64.3316 170.446 63.7971 169.784 63.7971C169.121 63.7971 168.585 64.3316 168.585 64.9909C168.585 65.6502 169.121 66.1847 169.784 66.1847Z" fill="#0B4870"/>
<path d="M173.124 62.3609H171.9L171.714 61.9357C171.614 61.7043 171.384 61.5557 171.131 61.5557H168.433C168.18 61.5557 167.95 61.7043 167.849 61.9357L167.663 62.3609H166.44C166.053 62.3609 165.74 62.6727 165.74 63.0589V66.9217C165.74 67.3066 166.053 67.6197 166.44 67.6197H173.124C173.51 67.6197 173.826 67.3066 173.826 66.9217V63.0589C173.827 62.6727 173.512 62.3609 173.124 62.3609ZM169.784 66.7207C168.823 66.7207 168.044 65.9435 168.044 64.9909C168.044 64.0359 168.823 63.2587 169.784 63.2587C170.742 63.2587 171.521 64.0359 171.521 64.9909C171.521 65.9435 170.742 66.7207 169.784 66.7207Z" fill="#0B4870"/>
<path d="M198.408 90.8537C198.09 88.9582 198.186 87.181 198.845 85.6229C199.326 87.4465 199.398 89.359 198.408 90.8537Z" fill="#FFBE55"/>
<path d="M260.112 94.6178C259.354 95.1842 254.716 95.1891 251.82 95.1367C249.902 94.0002 246.171 92.8782 244.599 92.43C244.699 91.8428 244.788 91.3836 244.86 91.118C245.321 89.3699 249.202 87.5305 250.774 87.2528C252.346 86.975 254.473 83.5751 256.6 84.2171C258.722 84.8627 252.443 88.8169 252.346 89.8292C252.294 90.3883 254.224 90.7172 256.242 90.9121H256.261C257.903 91.0656 259.593 91.118 260.303 91.118C261.248 91.118 264.107 91.358 265.981 89.8645C267.477 88.8534 268.812 88.2992 269.29 88.9058C270.299 90.1812 261.22 93.7894 260.112 94.6178Z" fill="#FED5B5"/>
<path d="M132.667 93.5118L126.753 97.7437C126.753 97.7437 126.851 98.0251 127.031 98.5367C123.343 97.5414 119.993 96.1491 119.456 95.6472C118.935 95.1709 117.435 94.4059 117.054 94.2122C117.571 94.4473 120.211 95.6362 121.387 95.7763C121.392 95.7824 121.392 95.7824 121.392 95.7824C121.487 95.7946 121.57 95.7946 121.64 95.7946C121.901 95.7885 122.109 95.6947 122.269 95.5595C123.703 95.1831 126.363 94.4071 126.09 93.9065C125.937 93.6299 125.837 93.061 125.772 92.4775C126.665 91.9245 126.386 90.7465 126.386 90.7465L124.496 88.711C124.496 88.711 125.182 88.5173 125.451 87.5525C125.724 86.5816 120.058 84.2281 120.058 84.2281C119.822 84.127 119.461 84.0223 119.461 84.0223C119.798 83.7811 123.249 83.9394 125.506 84.8092C125.684 84.8811 125.855 84.9444 126.025 85.0139C125.7 86.4208 125.494 87.4977 125.494 87.4977C129.47 89.0289 130.057 87.3271 130.057 87.3271C130.53 88.186 132.697 92.2802 132.697 92.2802C132.703 92.7175 132.692 93.1293 132.667 93.5118Z" fill="#FED5B5"/>
<path d="M125.771 92.4785C125.836 93.062 125.936 93.6309 126.089 93.9074C126.362 94.4081 123.702 95.1852 122.268 95.5604C122.108 95.6957 121.899 95.7894 121.639 95.7955C121.569 95.7955 121.486 95.7955 121.391 95.7834C121.391 95.7834 121.391 95.7834 121.386 95.7773C120.21 95.6372 117.57 94.4482 117.053 94.2131C116.996 94.1839 116.965 94.1717 116.965 94.1717C116.965 94.1717 116.965 94.1656 116.96 94.1596C116.888 94.0487 116.84 93.9305 116.812 93.8124C116.795 93.7661 116.788 93.7174 116.782 93.6662C116.779 93.6211 116.777 93.5736 116.777 93.5224C116.746 92.8427 117.207 92.2604 117.261 92.1898C117.266 92.1898 117.266 92.1837 117.266 92.1837C117.266 92.1837 117.261 92.1764 117.254 92.1581C117.221 92.0826 117.184 92.0058 117.154 91.9291C117.116 91.8121 117.065 91.6648 117.043 91.482C117.029 91.4491 117.024 91.4065 117.024 91.3651C117.019 91.3529 117.019 91.3407 117.019 91.3358C116.971 90.6768 117.239 90.1713 117.397 89.9313C117.433 89.8765 117.473 89.8302 117.515 89.7766C117.515 89.7766 117.481 89.6889 117.457 89.5232C117.45 89.5001 117.45 89.4708 117.445 89.444C117.437 89.3795 117.433 89.3112 117.43 89.2357C117.42 88.9336 117.478 88.6534 117.573 88.4122C117.633 88.2356 117.714 88.0772 117.791 87.9469C117.817 87.9116 117.839 87.875 117.863 87.8348C117.894 87.7946 117.926 87.7471 117.959 87.7008C117.999 87.6472 118.042 87.5888 118.094 87.5303C118.112 87.5047 118.135 87.4767 118.159 87.4548C118.159 87.4548 118.152 87.4426 118.152 87.4255C118.119 87.2477 117.951 86.2939 118.288 85.3766C118.656 84.3582 119.117 84.2717 119.459 84.0244C119.459 84.0244 119.82 84.1292 120.056 84.2303C120.056 84.2303 125.722 86.5838 125.449 87.5546C125.178 88.5194 124.493 88.7131 124.493 88.7131L126.384 90.7487C126.385 90.7475 126.665 91.9254 125.771 92.4785Z" fill="#FED5B5"/>
<path d="M125.494 87.4989C125.494 87.4989 125.7 86.422 126.025 85.015C128.046 85.8227 129.674 86.6595 130.016 87.2589C130.028 87.2832 130.038 87.3064 130.057 87.3295C130.055 87.3283 129.471 89.0301 125.494 87.4989Z" fill="#FED5B5"/>
<path d="M122.268 95.5595C121.776 95.6898 121.429 95.7715 121.391 95.7837C121.391 95.7837 121.391 95.7836 121.386 95.7776C121.429 95.6302 122.685 90.9122 125.651 90.7234C125.651 90.7234 125.675 91.6114 125.771 92.4775C125.836 93.061 125.936 93.6299 126.089 93.9065C126.362 94.4071 123.702 95.1831 122.268 95.5595Z" fill="#B2897C"/>
<path d="M125.771 92.4775C125.482 92.659 125.073 92.7784 124.487 92.765C124.487 92.765 125.137 94.6422 122.845 94.3182C122.845 94.3182 122.773 95.1538 122.267 95.5595C122.106 95.6947 121.898 95.7885 121.638 95.7946C121.568 95.7946 121.485 95.7946 121.389 95.7824C121.389 95.7824 121.389 95.7824 121.384 95.7763C120.209 95.6362 117.568 94.4473 117.052 94.2122C116.995 94.1829 116.964 94.1708 116.964 94.1708C116.964 94.1708 116.964 94.1647 116.959 94.1586C116.928 94.1245 116.851 94.0124 116.811 93.8114C116.794 93.7651 116.787 93.7164 116.78 93.6652C116.747 93.3302 116.818 92.8344 117.261 92.1888C117.266 92.1888 117.266 92.1827 117.266 92.1827C117.266 92.1827 117.261 92.1754 117.254 92.1571C117.239 92.123 117.196 92.0463 117.154 91.9281C117.116 91.8112 117.065 91.6638 117.043 91.4811C117.029 91.4482 117.024 91.4055 117.024 91.3641C117.019 91.3519 117.019 91.3397 117.019 91.3349C116.971 90.9292 117.036 90.4225 117.397 89.9303C117.433 89.8755 117.473 89.8292 117.515 89.7756C117.515 89.7756 117.481 89.6879 117.457 89.5222C117.45 89.4991 117.45 89.4699 117.445 89.4431C117.414 89.1946 117.42 88.8364 117.573 88.4113C117.626 88.2639 117.698 88.1055 117.791 87.9459C117.817 87.9106 117.839 87.8741 117.863 87.8339C117.894 87.7937 117.926 87.7462 117.959 87.6999C117.999 87.6463 118.042 87.5878 118.094 87.5293C118.112 87.5037 118.135 87.4757 118.159 87.4538C118.159 87.4538 118.152 87.4416 118.152 87.4246C118.076 87.1359 117.526 84.8238 119.459 84.0234C119.459 84.0234 119.82 84.1282 120.056 84.2293C120.056 84.2293 125.722 86.5828 125.449 87.5537C125.178 88.5185 124.493 88.7122 124.493 88.7122L126.384 90.7477C126.385 90.7465 126.665 91.9245 125.771 92.4775Z" fill="#E6AC8C"/>
<path d="M130.055 87.3284C130.055 87.3284 129.469 89.0289 125.493 87.4989C125.493 87.4989 125.698 86.422 126.024 85.0151C126.45 83.1744 127.087 80.7807 127.756 79.5041C128.029 78.9986 128.082 78.7927 128.648 78.8451C129.217 78.8987 129.378 81.0694 129.335 82.9101C129.288 84.752 130.055 87.3284 130.055 87.3284Z" fill="#FED5B5"/>
<path d="M217.57 111.91C216.645 119.49 216.499 120.181 216.499 120.181C215.328 118.488 214.303 116.837 213.531 115.535V115.532C212.561 109.959 215.123 99.3273 215.123 99.3273C215.123 99.3273 218.493 104.327 217.57 111.91Z" fill="#FFBE55"/>
<path d="M198.408 90.8537C197.684 91.9598 196.39 92.8295 194.267 93.2778C184.309 95.3657 181.112 79.4675 181.112 79.4675C182.844 79.1374 183.96 78.8024 184.261 78.7086C184.281 78.7025 184.289 78.7025 184.309 78.6976C184.333 78.6903 184.344 78.6854 184.344 78.6854L184.38 78.6903C184.385 78.6854 184.385 78.6854 184.392 78.6903L195.714 79.5321C195.714 79.5321 195.81 79.5723 195.98 79.6319C195.987 79.6368 195.987 79.6368 195.987 79.6368C195.987 79.6368 195.992 79.6441 195.997 79.649C196.145 79.861 198.055 82.6164 198.845 85.6217C199.326 87.4465 199.398 89.359 198.408 90.8537Z" fill="#FFBE55"/>
<path d="M196.364 67.8097C196.364 67.8097 196.154 69.0985 195.982 70.9915C195.892 71.9587 195.812 73.0831 195.774 74.272C195.676 77.5647 195.897 81.3666 197.134 83.7469C197.134 83.7469 190.928 87.6341 183.886 78.7585C183.886 78.7585 184.209 67.4844 180.14 61.6116C176.071 55.7413 196.364 67.8097 196.364 67.8097Z" fill="#FED5B5"/>
<path d="M198.408 90.8536C197.684 91.9597 196.39 92.8295 194.267 93.2778C184.309 95.3657 181.112 79.4674 181.112 79.4674C182.065 79.1787 183.884 78.7621 183.884 78.7621C184.015 78.7439 184.14 78.7207 184.262 78.7085C184.282 78.7024 184.291 78.7024 184.31 78.6976C184.335 78.6976 184.358 78.6903 184.382 78.6903C184.387 78.6854 184.387 78.6854 184.395 78.6903C192.78 77.4904 195.84 79.532 195.982 79.6319C195.99 79.6368 195.99 79.6368 195.99 79.6368C195.99 79.6368 195.994 79.6441 195.999 79.6489C196.147 79.8609 198.057 82.6164 198.848 85.6216C199.326 87.4464 199.398 89.3589 198.408 90.8536Z" fill="#FED5B5"/>
<path d="M191.006 33.4782C191.006 33.4782 202.524 33.1907 204.642 46.3444C206.76 59.4982 201.864 71.0549 199.941 72.9077C198.023 74.7593 186.505 73.3523 183.793 66.5209C181.078 59.6906 177.106 54.7096 177.701 48.8356C178.298 42.9591 176.841 33.254 191.006 33.4782Z" fill="#FED5B5"/>
<path d="M196.019 73.6288C196.019 73.6288 192.018 73.6032 186.575 70.1936C186.575 70.1936 190.406 74.8312 195.741 76.5281C195.742 76.5281 196.058 74.2184 196.019 73.6288Z" fill="#B2897C"/>
<path d="M253.014 96.3842C253.014 96.7838 251.358 99.1373 248.87 102.409C248.77 102.537 248.662 102.674 248.564 102.809C241.329 112.264 227.679 128.733 226.243 128.75C223.189 128.79 219.394 124.367 216.498 120.183C216.498 120.183 216.646 119.49 217.568 111.911C218.471 104.534 215.305 99.6026 215.126 99.3383C215.819 100.98 216.285 102.714 216.221 104.54C216.044 109.535 214.03 112.788 213.646 114.607C213.586 114.866 213.553 115.172 213.533 115.519C213.533 115.519 213.533 115.525 213.533 115.531C212.599 113.961 212.044 112.901 212.044 112.901C212.044 112.901 200.005 100.463 198.408 90.855C199.398 89.3603 199.326 87.4477 198.845 85.6241C198.055 82.6177 196.145 79.8634 195.997 79.6515C196.967 80.0291 200.224 81.2485 202.636 81.3581C202.853 81.3703 203.082 81.4117 203.315 81.4873H203.32C203.37 81.5043 203.408 81.5226 203.463 81.5409C204.55 81.9173 211.636 84.5583 214.856 90.0363C218.354 95.9846 219.831 102.398 221.031 106.022C221.031 106.022 224.659 113.548 225.664 112.872C226.668 112.195 231.538 105.645 235.533 102.575C239.526 99.51 243.877 92.2315 243.877 92.2315C243.877 92.2315 244.148 92.3021 244.597 92.4313C246.169 92.8783 249.899 94.0015 251.818 95.138C252.542 95.5656 253.014 95.9895 253.014 96.3842Z" fill="#FFBE55"/>
<path d="M213.404 124.708C212.975 128.863 211.934 148.647 212.656 154.262C212.701 154.611 212.586 154.934 212.324 155.231H170.458C172.217 151.777 176.074 143.778 176.097 140.005C176.116 138.329 176.99 133.076 174.008 129.336C172.441 127.363 170.875 119.009 168.142 113.879C167.166 111.906 166.026 110.036 164.958 108.445C163.436 110.419 162.162 112.172 161.33 113.752C161.325 113.755 161.325 113.765 161.321 113.77C159.254 117.665 147.669 130.87 145.081 132.14C142.794 133.257 141.327 134.075 138.232 127.993C135.412 122.455 128.494 102.752 127.027 98.5391C126.85 98.0275 126.749 97.7449 126.749 97.7449L132.664 93.513L133.263 93.0817C133.263 93.0817 136.57 99.6135 139.053 104.451C141.52 109.265 140.816 107.467 143.142 112.905C143.142 112.905 149.013 104.673 150.405 101.479C151.317 99.3857 155.511 89.4321 161.321 84.3877C163.075 82.8589 164.981 81.7796 166.987 81.5055C167.51 81.4336 168.042 81.4154 168.578 81.458C170.647 80.7344 172.535 80.4177 174.93 80.1996C175.381 80.1619 175.852 80.1241 176.346 80.0851C178.215 79.9536 179.831 79.7112 181.113 79.47C181.113 79.47 181.276 80.2788 181.647 81.5055C182.622 84.7946 185.061 91.0985 189.747 92.9465C191.069 93.4667 192.572 93.6311 194.268 93.2766C196.387 92.832 197.68 91.961 198.407 90.8537C200.006 100.463 212.043 112.9 212.043 112.9C212.043 112.9 212.597 113.961 213.532 115.531V115.536C213.404 117.617 213.769 121.158 213.404 124.708Z" fill="#FFBE55"/>
<path d="M205.563 54.1845C205.341 52.9882 202.068 51.5313 199.905 49.9245C197.29 47.9803 196.187 45.2894 196.162 43.0017C196.162 43.0017 196.857 53.1478 186.575 54.4354C181.036 55.1261 181.205 62.6568 181.205 62.6568C181.485 63.5765 181.814 64.5035 182.185 65.4305C182.488 65.9129 182.775 66.3685 183.047 66.801C183.614 67.3942 184.228 67.985 184.89 68.5661C193.492 76.1212 196.305 85.8701 189.965 91.7721C189.817 91.9098 189.667 92.0401 189.519 92.1656C190.952 96.3049 188.935 100.743 185.086 102.972C182.168 104.664 180.926 106.646 180.832 108.49C180.954 108.608 181.078 108.724 181.213 108.839C184.091 111.272 185.228 114.531 181.51 116.662C181.387 116.753 181.259 116.824 181.123 116.872C182.184 114.849 178.533 113.826 178.533 113.826C174.967 112.776 169.211 104.904 175.023 98.9946C181.313 92.6005 177.613 83.1061 171.636 75.2599C165.659 67.4137 166.118 52.2768 173.015 42.2745C180.922 30.8006 193.107 31.8799 197.946 35.4174C205.707 36.889 207.223 45.287 205.563 54.1845Z" fill="#0E538C"/>
<path d="M276.328 73.0392C274.545 73.4997 272.658 74.0795 271.251 75.6911C269.757 77.4002 268.653 79.7513 267.138 81.4555C266.704 81.9452 266.213 82.4166 265.684 82.8479C262.395 85.54 257.538 86.8873 254.151 83.3766C252.283 81.4372 251.243 79.7306 248.989 78.7768C246.805 77.8619 244.551 77.6414 242.353 76.8314C238.843 75.534 236.185 69.5285 236.922 64.5742C237.067 63.5814 237.328 62.7348 237.648 61.9515C236.776 60.6298 235.868 59.3434 235.374 57.6428C233.283 50.435 239.376 45.6622 242.481 44.8631C244.259 44.4038 246.152 43.8228 247.559 42.2099C249.045 40.5033 250.151 38.1522 251.673 36.4468C252.106 35.9559 252.596 35.4869 253.127 35.0544C256.416 32.3623 261.268 31.0162 264.655 34.5269C266.53 36.4711 267.563 38.179 269.824 39.1255C272.008 40.0416 274.254 40.2633 276.45 41.0734C279.968 42.3695 282.625 48.375 281.889 53.3293C281.743 54.3221 281.48 55.1748 281.165 55.9569C282.037 57.2859 282.945 58.5662 283.433 60.2631C285.526 67.4746 279.435 72.2389 276.328 73.0392Z" fill="#2A94F4"/>
<path fill-rule="evenodd" clip-rule="evenodd" d="M249.23 43.042C248.854 42.9153 248.714 42.6473 248.699 42.2575C248.616 39.9089 246.974 37.9817 244.677 37.5359C244.367 37.4774 244.046 37.4713 243.729 37.447C243.459 37.425 243.245 37.3154 243.132 37.062C243.024 36.8257 243.049 36.593 243.21 36.3847C243.351 36.2057 243.544 36.1387 243.772 36.1374C244.79 36.1301 245.735 35.8512 246.558 35.264C247.927 34.2919 248.656 32.9605 248.706 31.2782C248.716 30.9261 248.872 30.6813 249.153 30.5924C249.592 30.451 250.003 30.7373 250.02 31.2088C250.038 31.7411 250.095 32.2637 250.279 32.7631C250.963 34.6269 252.292 35.7306 254.252 36.0826C254.443 36.1155 254.644 36.146 254.839 36.135C255.252 36.1131 255.534 36.2678 255.668 36.6686C255.668 36.7563 255.668 36.844 255.668 36.9317C255.527 37.3178 255.24 37.4543 254.841 37.4567C253.914 37.4665 253.058 37.7405 252.294 38.2485C250.87 39.1938 250.102 40.5301 250.03 42.2356C250.013 42.64 249.887 42.9141 249.493 43.0432C249.406 43.042 249.318 43.042 249.23 43.042Z" fill="#FFBE55"/>
<path fill-rule="evenodd" clip-rule="evenodd" d="M236.703 47.2946C236.831 46.9194 237.101 46.7756 237.493 46.772C239.175 46.7549 240.68 45.3674 240.843 43.6973C240.855 43.5633 240.865 43.4257 240.869 43.2905C240.883 42.9555 241.137 42.6899 241.483 42.657C241.781 42.6314 242.097 42.8544 242.152 43.1638C242.202 43.4306 242.2 43.7059 242.25 43.9726C242.523 45.421 243.727 46.5539 245.194 46.7403C245.349 46.761 245.509 46.7695 245.665 46.7744C246.056 46.7854 246.349 47.0704 246.349 47.4456C246.349 47.7916 246.067 48.0669 245.689 48.0827C244.129 48.1546 243.024 48.8904 242.408 50.3254C242.238 50.7188 242.178 51.1379 242.178 51.5691C242.18 51.9382 241.879 52.2245 241.518 52.2233C241.167 52.222 240.894 51.9553 240.869 51.5947C240.854 51.3937 240.841 51.1927 240.806 50.9941C240.56 49.4264 239.21 48.2033 237.619 48.0998C237.576 48.0973 237.533 48.0876 237.488 48.0913C237.106 48.1083 236.841 47.9463 236.701 47.5869C236.703 47.4895 236.703 47.392 236.703 47.2946Z" fill="#FFBE55"/>
<path fill-rule="evenodd" clip-rule="evenodd" d="M274.154 52.2245C274.538 52.3548 274.675 52.6314 274.687 53.0236C274.72 54.2162 275.708 55.2626 276.907 55.399C277.057 55.4161 277.213 55.4124 277.363 55.4392C277.712 55.5001 277.942 55.801 277.91 56.1421C277.879 56.4868 277.597 56.7305 277.226 56.7341C276.125 56.7463 275.128 57.4663 274.804 58.5066C274.728 58.7466 274.696 59.0048 274.684 59.257C274.662 59.6456 274.408 59.9342 274.036 59.9428C273.661 59.9537 273.387 59.6858 273.365 59.2911C273.295 58.0339 272.565 57.1142 271.381 56.8158C271.195 56.7695 270.995 56.75 270.8 56.7427C270.409 56.7268 270.131 56.4649 270.124 56.0885C270.116 55.7316 270.412 55.4429 270.8 55.4319C272.059 55.399 273.056 54.5768 273.315 53.3537C273.339 53.238 273.365 53.1174 273.36 52.9992C273.338 52.6021 273.518 52.3487 273.891 52.222C273.979 52.2245 274.067 52.2245 274.154 52.2245Z" fill="#FFBE55"/>
<path d="M267.712 55.7681C267.959 63.6338 268.011 73.3012 267.989 75.6729C261.762 77.2736 255.543 77.2785 249.334 75.6729C249.302 73.2512 249.267 63.4389 249.458 55.5684C249.46 55.4941 249.462 55.421 249.467 55.3442C248.141 55.3089 247.038 54.7022 246.303 54.1565C245.684 53.6972 245.332 53.2806 245.332 53.2806C246.667 49.8479 249.598 45.9388 250.232 45.1579H250.235C250.236 45.153 250.236 45.1531 250.236 45.1531C250.648 44.5744 252.148 43.6255 253.724 42.7119C254.005 42.5498 254.308 42.4268 254.62 42.3403C254.931 42.2538 255.253 42.2124 255.58 42.2124C255.759 42.2124 255.905 42.3574 255.905 42.5364V42.5511C255.905 44.198 257.275 45.527 258.942 45.4661C260.528 45.4089 261.765 44.0652 261.765 42.4853C261.765 42.4828 261.765 42.4828 261.765 42.4828C261.765 42.3354 261.885 42.2136 262.033 42.2136C262.543 42.2136 263.046 42.3513 263.487 42.6132C264.976 43.4866 266.421 44.4161 266.842 45.0069C267.439 45.7378 270.43 49.9343 271.837 53.2624C271.1 54.2905 268.903 55.4831 267.712 55.7681Z" fill="#F7F7F7"/>
</svg>
