<svg width="1440" height="686" viewBox="0 0 1440 686" fill="none" xmlns="http://www.w3.org/2000/svg">
<path opacity="0.33" fill-rule="evenodd" clip-rule="evenodd" d="M14.5441 100.978C49.4085 100.978 80.2784 114.704 99.2225 135.791C105.585 134.817 112.153 134.308 118.87 134.308C126.281 134.308 133.512 134.928 140.487 136.108C159.561 116.227 189.514 103.417 223.195 103.417C264.348 103.417 299.936 122.542 316.914 150.322C347.679 156.092 373.207 172.788 386.803 195.033C412.595 199.871 434.708 212.388 449.193 229.417C464.623 222.184 482.575 218.039 501.734 218.039C533.469 218.039 561.895 229.412 581.029 247.357C598.089 237.599 618.964 231.859 641.509 231.859C663.778 231.859 684.417 237.459 701.36 247C720.489 229.261 748.748 218.039 780.272 218.039C802.541 218.039 823.18 223.639 840.123 233.18C859.252 215.442 887.511 204.22 919.035 204.22C929.797 204.22 940.178 205.527 949.946 207.956C965.475 186.251 993.986 169.971 1028.27 164.214C1047.53 136.395 1087.99 117.237 1134.78 117.237C1173.03 117.237 1207.06 130.047 1228.73 149.928C1236.65 148.748 1244.86 148.128 1253.28 148.128C1260.91 148.128 1268.37 148.637 1275.6 149.61C1297.12 128.524 1332.18 114.798 1371.79 114.798C1437.24 114.798 1490.29 152.286 1490.29 198.529C1490.29 223.115 1475.3 245.225 1451.41 260.543C1467.43 275.261 1477.13 294.517 1477.13 315.59C1477.13 351.85 1448.41 382.726 1408.23 394.368C1390.14 419.213 1356.55 435.903 1318.1 435.903C1293.61 435.903 1271.08 429.127 1253.28 417.782C1235.48 429.127 1212.95 435.903 1188.46 435.903C1163.96 435.903 1141.44 429.127 1123.63 417.782C1105.83 429.127 1083.31 435.903 1058.81 435.903C1034.31 435.903 1011.79 429.127 993.987 417.782C976.186 429.127 953.661 435.903 929.164 435.903C904.667 435.903 882.142 429.127 864.34 417.782C846.539 429.127 824.014 435.903 799.517 435.903C775.02 435.903 752.495 429.127 734.693 417.782C716.892 429.127 694.367 435.903 669.87 435.903C645.373 435.903 622.848 429.127 605.046 417.782C587.244 429.127 564.719 435.903 540.222 435.903C515.725 435.903 493.201 429.127 475.399 417.782C457.597 429.127 435.072 435.903 410.575 435.903C386.078 435.903 363.553 429.127 345.752 417.782C327.95 429.127 305.425 435.903 280.928 435.903C245.463 435.903 214.13 421.7 195.28 399.993C177.059 424.425 143.76 440.781 105.702 440.781C73.2021 440.781 44.1731 428.853 25.0399 410.155C16.2146 412.102 6.92127 413.141 -2.67463 413.141C-60.2919 413.141 -107 375.654 -107 329.41C-107 295.468 -81.837 266.243 -45.6664 253.096C-72.3575 237.931 -89.7812 212.953 -89.7812 184.709C-89.7812 138.466 -43.0732 100.978 14.5441 100.978Z" fill="#FFBE55"/>
<path opacity="0.33" fill-rule="evenodd" clip-rule="evenodd" d="M234.952 192.839C265.925 192.839 293.35 204.737 310.18 223.016C315.832 222.173 321.667 221.731 327.634 221.731C334.219 221.731 340.643 222.269 346.839 223.291C363.784 206.058 390.394 194.953 420.316 194.953C456.877 194.953 488.493 211.532 503.576 235.613C530.907 240.615 553.587 255.088 565.665 274.372C588.579 278.565 608.223 289.416 621.092 304.178C634.8 297.908 650.749 294.315 667.769 294.315C695.962 294.315 721.216 304.174 738.215 319.729C753.37 311.27 771.916 306.295 791.945 306.295C811.728 306.295 830.064 311.149 845.116 319.42C862.11 304.043 887.215 294.315 915.221 294.315C935.005 294.315 953.34 299.169 968.392 307.44C985.387 292.063 1010.49 282.335 1038.5 282.335C1048.06 282.335 1057.28 283.469 1065.96 285.574C1079.75 266.758 1105.08 252.646 1135.54 247.656C1152.65 223.54 1188.59 206.933 1230.16 206.933C1264.15 206.933 1294.38 218.037 1313.63 235.271C1320.66 234.249 1327.96 233.711 1335.44 233.711C1342.22 233.711 1348.85 234.153 1355.27 234.996C1374.38 216.717 1405.54 204.818 1440.72 204.818C1498.86 204.818 1546 237.315 1546 277.402C1546 298.714 1532.68 317.881 1511.46 331.16C1525.68 343.919 1534.3 360.61 1534.3 378.878C1534.3 410.31 1508.79 437.076 1473.1 447.168C1457.02 468.705 1427.18 483.173 1393.03 483.173C1371.27 483.173 1351.26 477.299 1335.44 467.465C1319.63 477.299 1299.61 483.173 1277.85 483.173C1256.09 483.173 1236.08 477.299 1220.26 467.465C1204.45 477.299 1184.44 483.173 1162.67 483.173C1140.91 483.173 1120.9 477.299 1105.08 467.465C1089.27 477.299 1069.26 483.173 1047.5 483.173C1025.73 483.173 1005.72 477.299 989.907 467.465C974.092 477.299 954.081 483.173 932.318 483.173C910.555 483.173 890.544 477.299 874.729 467.465C858.914 477.299 838.903 483.173 817.14 483.173C795.377 483.173 775.366 477.299 759.551 467.465C743.736 477.299 723.725 483.173 701.962 483.173C680.199 483.173 660.188 477.299 644.373 467.465C628.558 477.299 608.547 483.173 586.784 483.173C565.021 483.173 545.01 477.299 529.195 467.465C513.38 477.299 493.369 483.173 471.606 483.173C440.099 483.173 412.263 470.861 395.517 452.044C379.329 473.223 349.747 487.402 315.936 487.402C287.063 487.402 261.274 477.062 244.276 460.853C236.436 462.541 228.18 463.442 219.655 463.442C168.468 463.442 126.972 430.945 126.972 390.858C126.972 361.435 149.327 336.101 181.461 324.705C157.749 311.558 142.27 289.906 142.27 265.422C142.27 225.335 183.765 192.839 234.952 192.839Z" fill="#FFBE55"/>
<path fill-rule="evenodd" clip-rule="evenodd" d="M21.6341 232.672C56.4985 232.672 87.3685 246.398 106.313 267.484C112.676 266.511 119.243 266.002 125.96 266.002C133.371 266.002 140.603 266.622 147.577 267.802C166.651 247.921 196.604 235.111 230.285 235.111C271.438 235.111 307.026 254.236 324.004 282.016C354.769 287.786 380.298 304.482 393.893 326.727C419.685 331.565 441.798 344.082 456.283 361.111C471.713 353.878 489.665 349.733 508.824 349.733C540.559 349.733 568.985 361.106 588.119 379.051C605.179 369.293 626.054 363.553 648.599 363.553C670.868 363.553 691.507 369.153 708.45 378.694C727.579 360.955 755.838 349.733 787.362 349.733C809.631 349.733 830.27 355.333 847.213 364.874C866.342 347.136 894.601 335.913 926.125 335.913C936.887 335.913 947.268 337.221 957.036 339.65C972.565 317.944 1001.08 301.665 1035.36 295.908C1054.62 268.089 1095.08 248.93 1141.87 248.93C1180.12 248.93 1214.15 261.741 1235.82 281.621C1243.74 280.442 1251.95 279.822 1260.37 279.822C1268 279.822 1275.46 280.331 1282.69 281.304C1304.21 260.218 1339.27 246.492 1378.88 246.492C1444.33 246.492 1497.38 283.979 1497.38 330.223C1497.38 354.809 1482.39 376.919 1458.5 392.237C1474.52 406.955 1484.22 426.211 1484.22 447.284C1484.22 483.544 1455.5 514.42 1415.32 526.062C1397.23 550.907 1363.64 567.597 1325.19 567.597C1300.7 567.597 1278.17 560.821 1260.37 549.476C1242.57 560.821 1220.04 567.597 1195.55 567.597C1171.05 567.597 1148.53 560.821 1130.72 549.476C1112.92 560.821 1090.4 567.597 1065.9 567.597C1041.4 567.597 1018.88 560.821 1001.08 549.476C983.276 560.821 960.751 567.597 936.254 567.597C911.757 567.597 889.232 560.821 871.43 549.476C853.629 560.821 831.104 567.597 806.607 567.597C782.11 567.597 759.585 560.821 741.783 549.476C723.982 560.821 701.457 567.597 676.96 567.597C652.463 567.597 629.938 560.821 612.136 549.476C594.335 560.821 571.81 567.597 547.313 567.597C522.816 567.597 500.291 560.821 482.489 549.476C464.687 560.821 442.162 567.597 417.665 567.597C393.168 567.597 370.643 560.821 352.842 549.476C335.04 560.821 312.515 567.597 288.018 567.597C252.553 567.597 221.22 553.393 202.37 531.687C184.149 556.119 150.85 572.475 112.792 572.475C80.2922 572.475 51.2631 560.547 32.1299 541.849C23.3046 543.795 14.0113 544.835 4.4154 544.835C-53.2019 544.835 -99.91 507.347 -99.91 461.104C-99.91 427.162 -74.747 397.937 -38.5764 384.79C-65.2675 369.625 -82.6912 344.647 -82.6912 316.403C-82.6912 270.16 -35.9832 232.672 21.6341 232.672Z" fill="#2A94F4"/>
<path d="M720.261 685.523C898.793 685.523 1043.52 626.809 1043.52 554.38C1043.52 481.952 898.793 423.237 720.261 423.237C541.729 423.237 397 481.952 397 554.38C397 626.809 541.729 685.523 720.261 685.523Z" fill="white"/>
<path d="M716.564 554.878C767.685 554.878 809.128 540.688 809.128 523.184C809.128 505.679 767.685 491.49 716.564 491.49C665.442 491.49 624 505.679 624 523.184C624 540.688 665.442 554.878 716.564 554.878Z" fill="#CCE9FF"/>
<path d="M736.865 225.476C736.865 225.476 772.179 241.531 792.687 207.359L781.501 199.332C781.501 199.332 748.6 219.075 720.415 194.125C720.415 194.125 714.493 211.373 736.865 225.476Z" fill="#FFBE55"/>
<path d="M573.786 106.363C573.786 106.363 573.676 106.58 573.567 106.906C572.799 108.858 571.154 115.584 576.199 125.564C576.528 124.588 585.85 104.736 585.85 104.736" fill="#FFE3CA"/>
<path d="M815.608 264.746C815.608 264.746 868.25 261.166 862.876 267.566C862.876 267.566 861.012 269.628 850.922 269.953C848.4 270.062 841.929 270.387 837.981 272.665C837.981 272.665 830.194 275.486 827.562 280.259C827.562 280.259 831.73 284.707 833.484 285.357C840.174 287.636 838.529 288.07 838.858 291.649C838.858 291.649 829.756 289.371 826.685 288.503C826.685 288.503 813.086 281.778 809.796 276.787C806.506 271.689 805.299 270.495 815.608 264.746Z" fill="#FFE3CA"/>
<path d="M756.058 206.383C756.058 206.383 769.328 250.209 813.415 262.142C813.415 262.142 810.892 273.099 808.37 279.499C808.37 279.499 765.16 277.655 741.472 243.809C741.362 243.809 737.743 202.695 756.058 206.383Z" fill="#2A94F4"/>
<path d="M717.673 423.78L716.796 454.805C716.796 454.805 732.04 461.206 736.317 454.805V425.515L717.673 423.78Z" fill="#FFE3CA"/>
<path d="M669.418 433.001L672.818 467.715L690.585 461.314L691.462 451.226L688.94 426.6L669.418 433.001Z" fill="#FFE3CA"/>
<path d="M661.303 301.63V404.687L666.128 439.618C666.128 439.618 682.359 439.618 695.3 430.831L690.475 402.843L700.236 324.194L713.177 401.107L714.822 427.36C714.822 427.36 729.408 434.302 739.168 427.36L740.814 388.957L742.459 294.578C742.349 294.687 667.773 273.641 661.303 301.63Z" fill="#0B4870"/>
<path d="M739.168 448.622C739.168 448.622 720.854 457.517 714.383 441.354L710.435 488.326C710.435 488.326 723.924 522.606 746.845 509.48C746.845 509.48 756.825 504.815 737.743 482.034L739.168 448.622Z" fill="#0E538C"/>
<path d="M748.052 499.391C748.052 499.391 752.767 505.141 749.148 514.036C749.148 514.036 740.594 523.691 725.131 515.338C725.131 515.338 712.409 508.07 708.132 493.316C708.132 493.316 708.57 486.482 710.435 485.939C710.435 485.939 723.814 509.263 731.93 509.154C732.04 509.263 749.806 511.433 748.052 499.391Z" fill="#0B4870"/>
<path d="M669.418 455.673C669.418 455.673 688.501 462.291 693.326 445.367L702.21 491.581C702.21 491.581 692.449 527.271 668.322 517.074C668.322 517.074 657.903 513.602 674.463 488.652L669.418 455.673Z" fill="#0E538C"/>
<path d="M665.909 507.31C665.909 507.31 661.851 513.602 666.348 522.064C666.348 522.064 675.779 530.634 690.365 520.328C690.365 520.328 702.21 511.541 704.951 496.354C704.951 496.354 703.855 489.628 701.881 489.302C701.881 489.302 691.133 514.036 683.017 515.013C682.908 515.121 665.47 519.46 665.909 507.31Z" fill="#0B4870"/>
<path d="M674.244 291.215C674.244 291.215 711.861 305.426 727.872 295.88L731.492 203.237L688.172 194.667C688.172 194.667 662.838 259.756 674.244 291.215Z" fill="#F7F7F7"/>
<path d="M656.916 227.32C656.916 227.32 636.298 214.953 616.338 194.775C609.648 188.05 602.849 180.347 597.036 171.994C588.263 159.411 581.463 145.2 579.27 130.121L591.114 116.343C591.114 116.343 623.028 174.381 664.483 183.819C664.483 183.71 684.553 222.113 656.916 227.32Z" fill="#2A94F4"/>
<path d="M721.95 235.239C721.95 235.239 713.506 295.338 726.118 307.054C733.466 313.997 768.779 303.365 763.954 296.423C742.02 264.963 754.742 206.817 754.742 206.817C754.742 206.817 724.253 230.791 721.95 235.239Z" fill="#2A94F4"/>
<path d="M669.857 190.979L660.096 202.152C660.096 202.152 638.601 270.821 648.362 303.474C648.362 303.474 689.598 308.138 687.185 300.328C673.586 257.261 684.443 222.764 684.443 222.764L669.857 190.979Z" fill="#2A94F4"/>
<path d="M730.724 192.931L756.167 206.383C756.167 206.383 736.646 235.673 721.731 235.564L730.724 192.931Z" fill="#0E538C"/>
<path d="M692.778 183.602L664.483 183.819C664.483 183.819 670.186 219.292 683.675 226.235L692.778 183.602Z" fill="#0E538C"/>
<path d="M700.894 173.188C700.894 173.188 676.876 177.961 690.036 202.586C690.036 202.586 727.214 222.438 741.142 200.199C741.033 200.308 747.942 157.024 700.894 173.188Z" fill="#FFBE55"/>
<path d="M701.223 156.048L704.293 190.545C704.293 190.545 706.925 196.511 720.305 194.125C725.679 193.148 730.833 192.28 732.808 186.314L729.627 152.793L701.223 156.048Z" fill="#FCD2B1"/>
<path d="M666.348 124.805C666.348 124.805 657.245 129.036 664.593 148.888L667.225 151.057L671.063 140.101L666.348 124.805Z" fill="#FFE3CA"/>
<path d="M777.882 112.221C777.882 112.221 792.907 187.833 714.054 190.436C714.054 190.436 651.871 182.517 666.457 139.884C666.457 139.884 667.993 117.645 668.431 111.57C669.528 95.515 665.141 82.6057 694.423 73.4933C694.533 73.3848 758.47 56.6787 777.882 112.221Z" fill="#FFE3CA"/>
<path d="M664.154 114.933C664.154 114.933 662.728 70.0219 693.107 66.659C713.067 48.3256 747.832 60.584 747.832 60.584C785.998 77.0732 784.572 120.791 782.159 140.535C781.282 147.478 778.321 146.61 778.321 146.61C776.676 135.979 769.986 133.809 769.986 133.809C759.019 136.955 727.105 108.207 727.105 108.207C697.384 89.3316 678.302 103.651 677.315 102.566C676.766 104.411 674.024 91.5012 669.309 120.9C669.309 120.9 667.883 148.779 666.128 135.436C665.58 130.772 662.728 126.432 664.154 114.933Z" fill="#FFBE55"/>
<path d="M772.947 136.955C772.947 136.955 800.035 137.606 783.036 159.519C783.036 159.519 769.547 174.815 762.09 165.377C762.09 165.377 759.348 140.969 772.947 136.955Z" fill="#FFE3CA"/>
<path d="M760.554 118.947C760.554 118.947 769.328 135.979 765.379 156.156C765.379 156.156 768.56 156.265 771.74 150.624C774.921 145.091 778.54 136.738 775.798 127.842C775.798 127.842 771.411 117.862 760.554 118.947Z" fill="#FFBE55"/>
<path d="M676.327 67.5268C676.327 67.5268 665.251 71.6491 669.199 82.0633C669.199 82.0633 670.296 84.016 672.05 81.5209C672.05 81.5209 676.218 73.9272 681.043 71.5406C680.934 71.5406 680.934 66.225 676.327 67.5268Z" fill="#E89CC3"/>
<path d="M698.7 97.0337C698.7 97.0337 714.383 119.489 726.556 122.201C726.556 122.201 718.55 109.292 716.576 98.3355C716.576 98.3355 697.603 85.3177 698.7 97.0337Z" fill="#FFBE55"/>
<path d="M775.031 112.221C775.031 112.221 784.681 114.065 782.817 129.361C782.817 129.361 792.468 110.268 778.54 103.76L775.031 112.221Z" fill="#2A94F4"/>
<path d="M729.846 84.3414L727.214 92.2606L769.437 115.259L776.566 110.919L779.417 102.132L729.846 84.3414Z" fill="#4D8AF0"/>
<path d="M727.214 92.2605C724.034 103.651 732.698 116.56 746.626 121.008C760.444 125.456 774.263 119.923 777.443 108.533C780.624 97.1422 771.96 84.2329 758.032 79.7851C744.213 75.3374 730.395 80.87 727.214 92.2605Z" fill="#0E538C"/>
<path d="M729.079 86.5111C725.898 97.9016 734.562 110.811 748.49 115.259C762.309 119.706 776.127 114.174 779.308 102.783C782.488 91.3927 773.824 78.4834 759.896 74.0357C746.078 69.588 732.259 75.1205 729.079 86.5111Z" fill="#2A94F4"/>
<path d="M734.891 88.4637C732.478 97.1422 739.059 107.014 749.697 110.485C758.58 113.306 767.353 110.919 771.411 104.953C772.289 103.76 772.837 102.458 773.276 100.939C775.688 92.2605 768.999 82.3887 758.47 78.9173C751.78 76.7477 745.09 77.6156 740.484 80.7615C737.852 82.6057 735.878 85.2092 734.891 88.4637Z" fill="#CCE9FF"/>
<path d="M749.368 89.0061L762.528 111.57L769.547 107.773L754.413 88.5722L749.368 89.0061Z" fill="#F7F7F7"/>
<path d="M733.136 79.4598L728.969 87.4874C728.969 87.4874 722.17 81.8464 710.106 85.5347L713.286 78.4834C713.286 78.4834 722.499 72.1915 733.136 79.4598Z" fill="#2A94F4"/>
<path d="M660.096 268.434L648.252 285.791L650.774 291.324L663.496 271.255L660.096 268.434Z" fill="#0E538C"/>
<path d="M734.672 268.434L746.516 285.791L743.994 291.324L731.272 271.255L734.672 268.434Z" fill="#0E538C"/>
<path d="M811.66 257.478L804.093 280.367L813.415 282.211L820.982 261.166L811.66 257.478Z" fill="#0E538C"/>
<path d="M605.7 76.6392H629.06L629.169 71.5406L629.389 60.8009L629.718 45.8304C617.654 42.2505 613.158 58.3058 613.158 58.3058L605.7 76.6392Z" fill="#00455B"/>
<path d="M608.332 76.6392H631.692L631.802 71.5406L632.021 60.8009L632.35 45.8304C620.286 42.2505 615.79 58.3058 615.79 58.3058L608.332 76.6392Z" fill="#0E538C"/>
<path d="M602.52 108.316C602.52 108.316 628.84 102.458 632.021 78.1579C632.35 75.9883 632.021 69.4794 632.021 69.4794H601.204C601.094 69.4794 591.114 97.7931 602.52 108.316Z" fill="#CCE9FF"/>
<path d="M602.52 69.4794H540.008V108.316H602.52V69.4794Z" fill="#CCE9FF"/>
<path d="M540.337 69.4794C540.337 69.4794 505.023 73.8187 505.9 94.7556C505.9 94.7556 508.203 108.533 542.311 108.316C542.311 108.316 546.917 78.3749 540.337 69.4794Z" fill="#0E538C"/>
<path d="M588.482 94.5386C588.482 94.5386 581.024 91.9351 582.011 106.038C582.011 106.038 568.412 120.249 579.379 130.012L588.921 115.801V107.556C588.921 107.556 590.127 100.939 588.482 94.5386Z" fill="#FFE3CA"/>
<path d="M629.608 93.3454L634.324 93.2369V94.9726C634.324 94.9726 622.37 100.505 599.668 97.4677C599.668 97.4677 576.967 94.7556 563.477 84.4499L563.697 82.7142L605.919 92.9114L629.608 93.3454Z" fill="#0B4870"/>
<path d="M563.587 82.8228C563.587 82.8228 566.219 84.45 570.935 86.6196C573.128 87.5959 575.87 88.7892 578.941 89.874C592.101 94.6472 612.28 98.9864 634.214 93.3454L609.429 86.7281L600.546 84.3415L595.062 82.8228H563.587Z" fill="#0E538C"/>
<path d="M593.636 119.381C593.636 119.381 583.547 133.158 579.818 135.111L577.625 128.819L589.25 112.764L593.636 119.381Z" fill="#0E538C"/>
<path d="M664.045 82.6057L664.483 91.0673L711.641 94.1047L716.686 87.0534L716.028 77.8325L664.045 82.6057Z" fill="#6EA5F4"/>
<path d="M664.483 91.0673C665.689 102.892 678.411 111.028 692.778 109.184C707.145 107.448 717.783 96.3829 716.576 84.5584C715.37 72.7339 702.648 64.5978 688.282 66.442C673.915 68.1777 663.277 79.2428 664.483 91.0673Z" fill="#0E538C"/>
<path d="M664.044 84.9923C665.251 96.8168 677.972 104.953 692.339 103.109C706.706 101.373 717.344 90.3079 716.138 78.4834C714.931 66.659 702.21 58.5228 687.843 60.367C673.476 62.1027 662.838 73.1679 664.044 84.9923Z" fill="#2A94F4"/>
<path d="M670.186 84.233C671.173 93.2369 680.824 99.5289 691.901 98.1186C701.113 97.0338 708.241 90.9588 709.886 83.6905C710.215 82.2803 710.325 80.7616 710.106 79.2428C709.119 70.2388 699.468 63.9469 688.391 65.3572C681.482 66.225 675.56 69.9134 672.489 74.7951C670.734 77.6156 669.857 80.87 670.186 84.233Z" fill="#CCE9FF"/>
<path d="M684.443 77.3986L704.842 92.5861L709.886 85.9687L688.94 74.795L684.443 77.3986Z" fill="#F7F7F7"/>
<path d="M548.562 11.225C544.943 12.9607 543.079 14.8049 541.433 18.2763C540.885 19.3611 539.459 19.3611 538.911 18.2763C537.156 14.6964 535.292 12.8522 531.782 11.225C530.686 10.6826 530.686 9.27233 531.782 8.72992C535.402 6.99422 537.266 5.15004 538.911 1.67863C539.459 0.593817 540.885 0.593817 541.433 1.67863C543.188 5.25852 545.053 7.1027 548.562 8.72992C549.659 9.27233 549.659 10.7911 548.562 11.225Z" fill="#FFBE55"/>
<path d="M419.481 158C425.951 161.038 429.351 164.509 432.531 170.91C433.518 172.862 436.26 172.862 437.137 170.91C440.208 164.509 443.718 161.146 450.188 158C452.162 157.024 452.162 154.312 450.188 153.444C443.718 150.407 440.318 146.935 437.137 140.535C436.15 138.582 433.409 138.582 432.531 140.535C429.46 146.935 425.951 150.298 419.481 153.444C417.506 154.312 417.506 157.024 419.481 158Z" fill="#FFBE55"/>
<path d="M454.246 131.205C457.865 132.941 459.729 134.785 461.374 138.257C461.923 139.341 463.348 139.341 463.897 138.257C465.652 134.677 467.516 132.833 471.025 131.205C472.122 130.663 472.122 129.253 471.025 128.71C467.406 126.975 465.542 125.13 463.897 121.659C463.348 120.574 461.923 120.574 461.374 121.659C459.62 125.239 457.755 127.083 454.246 128.71C453.149 129.144 453.149 130.663 454.246 131.205Z" fill="#FFBE55"/>
<path d="M984.5 110.268C978.03 113.306 974.63 116.777 971.449 123.178C970.462 125.13 967.721 125.13 966.843 123.178C963.772 116.777 960.263 113.414 953.792 110.268C951.818 109.292 951.818 106.58 953.792 105.712C960.263 102.675 963.663 99.2034 966.843 92.803C967.83 90.8503 970.572 90.8503 971.449 92.803C974.52 99.2034 978.03 102.566 984.5 105.712C986.364 106.58 986.364 109.292 984.5 110.268Z" fill="#FFBE55"/>
<path d="M949.735 83.4735C946.116 85.2092 944.251 87.0534 942.606 90.5248C942.058 91.6096 940.632 91.6096 940.084 90.5248C938.329 86.9449 936.465 85.1007 932.955 83.4735C931.858 82.9311 931.858 81.5209 932.955 80.9784C936.574 79.2427 938.439 77.3985 940.084 73.9271C940.632 72.8423 942.058 72.8423 942.606 73.9271C944.361 77.507 946.225 79.3512 949.735 80.9784C950.831 81.4124 950.831 82.9311 949.735 83.4735Z" fill="#FFBE55"/>
<path d="M880.862 140.318C877.243 142.054 875.379 143.898 873.733 147.369C873.185 148.454 871.759 148.454 871.211 147.369C869.456 143.789 867.592 141.945 864.083 140.318C862.986 139.775 862.986 138.365 864.083 137.823C867.702 136.087 869.566 134.243 871.211 130.771C871.759 129.687 873.185 129.687 873.733 130.771C875.488 134.351 877.353 136.196 880.862 137.823C881.959 138.365 881.959 139.884 880.862 140.318Z" fill="#FFBE55"/>
</svg>
