<svg width="310" height="310" viewBox="0 0 310 310" fill="none" xmlns="http://www.w3.org/2000/svg">
<g filter="url(#filter0_d)">
<circle cx="125" cy="125" r="75" fill="white"/>
</g>
<path opacity="0.31" d="M168.288 149.732C168.106 149.734 166.986 148.237 166.771 148.029C165.017 146.332 163.964 144.466 163.173 142.437C162.57 140.89 162.12 139.246 161.63 137.513C161.298 136.343 160.764 135.036 159.606 134.667C158.48 134.309 157.267 135.052 156.575 136.009C155.882 136.966 155.533 138.128 154.941 139.15C153.867 141.003 151.965 141.78 150.393 140.151C148.148 137.824 147.136 134.65 145.712 131.812C144.679 129.751 143.813 127.338 142.511 125.438C140.525 122.542 137.801 120.071 134.18 120.071C131.884 120.418 129.862 122.452 128.492 124.993C127.124 127.533 126.324 130.556 125.644 133.571C125.074 136.099 124.573 138.656 124.11 141.225C123.249 138.129 122.353 135.055 121.384 132.035C120.334 128.763 119.174 125.504 117.563 122.886C115.952 120.269 113.819 118.338 111.677 118.351C108.377 118.99 106.248 122.248 104.851 125.859C103.936 128.226 103.493 131.093 102.844 133.594C101.952 137.039 101.484 140.786 99.7691 143.802C98.5693 145.912 96.7244 145.374 95.4813 143.478C94.7952 142.431 94.3117 141.187 93.5436 140.232C92.7755 139.277 91.5637 138.654 90.5894 139.256C89.5874 139.875 89.2871 141.441 89.1521 142.814C88.9519 144.853 88.7771 146.78 88.4479 148.628C88.3768 149.03 88.2972 149.428 88.2092 149.822H122.666C122.642 149.97 122.618 150.118 122.595 150.265L168.288 149.732Z" fill="#DCE6EF"/>
<path opacity="0.77" d="M154.501 145.049C154.411 146.825 152.479 149.93 150.702 149.841C148.926 149.751 147.979 146.5 148.069 144.724C148.158 142.948 150.05 134.059 151.826 134.15C153.601 134.239 154.59 143.273 154.501 145.049Z" fill="#FFBE55"/>
<path d="M150.845 149.745C150.844 149.745 150.842 149.745 150.842 149.745C150.817 149.744 150.797 149.721 150.799 149.696L151.695 135.301C151.696 135.276 151.717 135.254 151.744 135.258C151.77 135.259 151.79 135.282 151.788 135.307L150.892 149.702C150.889 149.726 150.869 149.745 150.845 149.745Z" fill="#0B4870"/>
<path opacity="0.77" d="M150.435 144.678C150.031 145.567 149.722 146.499 149.537 147.471C149.443 147.963 149.382 148.497 149.605 148.947C149.849 149.438 150.389 149.723 150.929 149.813C152.25 150.03 153.57 149.221 154.344 148.129C155.118 147.038 155.453 145.703 155.761 144.402C156.003 143.377 156.241 142.337 156.698 141.382C156.893 140.972 158.04 139.391 157.497 138.981C156.756 138.399 154.609 139.032 153.235 140.534C152.101 141.769 151.127 143.159 150.435 144.678Z" fill="#FFBE55"/>
<path d="M150.929 149.859C150.926 149.859 150.922 149.859 150.917 149.857C150.892 149.851 150.877 149.825 150.883 149.801C150.899 149.738 152.526 143.541 156.34 140.013C156.359 139.996 156.388 139.996 156.406 140.016C156.424 140.035 156.423 140.064 156.404 140.082C152.609 143.591 150.991 149.762 150.975 149.824C150.97 149.845 150.951 149.859 150.929 149.859Z" fill="#0B4870"/>
<path opacity="0.77" d="M159.771 143.216C159.635 143.461 159.38 143.627 159.147 143.757C158.861 143.919 158.556 144.06 158.261 144.197C157.882 144.373 157.491 144.555 157.13 144.782C156.867 144.947 156.633 145.134 156.436 145.334C156.746 144.63 157.109 144.015 157.536 143.465C158.098 142.742 158.674 142.375 159.252 142.375C159.265 142.375 159.278 142.375 159.292 142.377C159.47 142.381 159.609 142.426 159.704 142.508C159.9 142.676 159.892 142.999 159.771 143.216Z" fill="#FFBE55"/>
<path opacity="0.77" d="M160.415 147.228C160.187 147.39 159.885 147.431 159.619 147.451C159.292 147.474 158.955 147.471 158.631 147.47C158.214 147.467 157.782 147.464 157.359 147.515C157.05 147.552 156.758 147.621 156.495 147.717C157.076 147.213 157.667 146.812 158.288 146.498C159.106 146.084 159.783 146 160.306 146.247C160.318 146.253 160.33 146.259 160.342 146.265C160.501 146.346 160.607 146.445 160.659 146.561C160.763 146.795 160.617 147.084 160.415 147.228Z" fill="#FFBE55"/>
<path opacity="0.77" d="M158.896 149.203C158.706 149.176 158.536 149.055 158.395 148.94C158.222 148.797 158.055 148.639 157.895 148.485C157.689 148.289 157.475 148.085 157.241 147.911C157.07 147.785 156.893 147.682 156.717 147.607C157.243 147.629 157.724 147.706 158.181 147.841C158.781 148.018 159.157 148.295 159.301 148.661C159.305 148.67 159.307 148.678 159.311 148.686C159.352 148.801 159.358 148.9 159.33 148.982C159.272 149.149 159.063 149.225 158.896 149.203Z" fill="#FFBE55"/>
<path d="M154.575 149.895C154.55 149.892 154.528 149.874 154.528 149.848C154.528 149.809 154.599 145.989 159.202 142.788C159.224 142.773 159.253 142.778 159.267 142.8C159.282 142.822 159.277 142.851 159.255 142.865C154.692 146.039 154.62 149.81 154.62 149.848C154.622 149.873 154.601 149.895 154.575 149.895Z" fill="#0B4870"/>
<path d="M154.574 149.895C154.567 149.895 154.561 149.893 154.554 149.89C154.53 149.879 154.52 149.851 154.531 149.827C154.545 149.797 156.012 146.75 159.857 146.75C159.883 146.75 159.904 146.771 159.904 146.797C159.904 146.824 159.883 146.844 159.857 146.844C156.073 146.844 154.63 149.837 154.616 149.867C154.609 149.884 154.592 149.895 154.574 149.895Z" fill="#0B4870"/>
<path d="M158.983 148.815C158.973 148.815 158.963 148.812 158.955 148.806C157.433 147.658 156.684 147.692 156.678 147.693C156.652 147.695 156.63 147.675 156.628 147.649C156.627 147.624 156.646 147.601 156.671 147.599C156.703 147.595 157.454 147.557 159.012 148.731C159.032 148.747 159.037 148.776 159.021 148.797C159.012 148.808 158.997 148.815 158.983 148.815Z" fill="#0B4870"/>
<path d="M100.083 144.288C99.4134 143.515 98.5658 142.849 98.2981 141.874C98.1027 141.161 98.2571 140.408 98.333 139.673C98.409 138.939 98.3825 138.126 97.9074 137.562C97.5155 137.097 96.8969 136.894 96.3025 136.766C95.708 136.638 95.0871 136.558 94.5589 136.255C93.7016 135.763 93.8728 134.927 93.4122 134.194C92.8961 133.372 91.694 132.322 90.6642 132.868C89.5742 133.447 89.7466 135.204 90.4713 135.979C90.9524 136.494 91.5686 136.987 91.6397 137.689C91.7458 138.744 90.5376 139.694 90.8692 140.702C91.1152 141.446 92.0521 141.702 92.5163 142.333C92.9745 142.959 92.8817 143.835 92.6128 144.562C92.3427 145.289 91.9182 145.96 91.7506 146.716C91.407 148.265 92.6224 149.334 94.0067 149.68C95.2788 149.997 98.0219 149.848 98.0219 149.848C99.001 149.505 100.086 148.646 100.625 147.705C101.032 146.995 101.088 146.095 100.774 145.339C100.611 144.951 100.362 144.61 100.083 144.288Z" fill="#FFBE55"/>
<path d="M97.0776 149.855C97.0535 149.855 97.0318 149.836 97.0305 149.81C96.5277 141.88 91.8915 134.636 91.8445 134.563C91.83 134.541 91.836 134.513 91.8589 134.498C91.8806 134.484 91.9096 134.49 91.924 134.513C91.9711 134.585 96.6206 141.851 97.1258 149.804C97.127 149.83 97.1077 149.853 97.0824 149.854C97.08 149.855 97.0788 149.855 97.0776 149.855Z" fill="#0B4870"/>
<path d="M87.7124 144.297C87.7847 144.236 87.8896 144.202 88.0247 144.199C88.0343 144.199 88.0452 144.199 88.0548 144.199C88.4901 144.199 88.9266 144.476 89.3523 145.022C89.6754 145.438 89.9491 145.904 90.1831 146.435C90.0347 146.283 89.8575 146.142 89.6585 146.018C89.386 145.847 89.0894 145.709 88.8036 145.576C88.5806 145.472 88.3503 145.365 88.1344 145.243C87.9584 145.144 87.7654 145.017 87.6618 144.833C87.5701 144.669 87.5641 144.424 87.7124 144.297Z" fill="#FFBE55"/>
<path d="M86.9913 147.362C87.0299 147.275 87.1106 147.2 87.2312 147.138C87.2397 147.134 87.2493 147.13 87.2577 147.125C87.652 146.938 88.1645 147.002 88.7831 147.315C89.2533 147.552 89.6995 147.856 90.1396 148.237C89.9406 148.163 89.72 148.112 89.4872 148.084C89.1665 148.045 88.8409 148.048 88.525 148.05C88.279 148.051 88.0246 148.054 87.7774 148.036C87.5761 148.021 87.3482 147.99 87.1758 147.867C87.0214 147.758 86.9117 147.539 86.9913 147.362Z" fill="#FFBE55"/>
<path d="M87.9944 149.194C87.9727 149.133 87.9776 149.058 88.0089 148.971C88.0113 148.965 88.0137 148.958 88.0161 148.952C88.1247 148.674 88.4092 148.466 88.8638 148.332C89.2087 148.23 89.5728 148.172 89.9707 148.155C89.8369 148.211 89.703 148.289 89.574 148.385C89.3968 148.517 89.2352 148.67 89.0797 148.819C88.9579 148.935 88.8325 149.055 88.701 149.163C88.5949 149.25 88.4659 149.341 88.3224 149.362C88.1958 149.377 88.0391 149.32 87.9944 149.194Z" fill="#FFBE55"/>
<path d="M91.5902 149.895C91.5648 149.895 91.5431 149.874 91.5431 149.848C91.5431 149.819 91.4865 146.971 88.0439 144.577C88.0222 144.563 88.0174 144.533 88.0319 144.512C88.0464 144.49 88.0765 144.486 88.097 144.5C91.5829 146.924 91.6372 149.819 91.6372 149.848C91.6384 149.873 91.6167 149.895 91.5902 149.895C91.5914 149.895 91.5914 149.895 91.5902 149.895Z" fill="#0B4870"/>
<path d="M91.5914 149.895C91.5733 149.895 91.5564 149.885 91.5492 149.868C91.5383 149.845 90.4495 147.589 87.5966 147.589C87.5701 147.589 87.5496 147.569 87.5496 147.542C87.5496 147.516 87.5701 147.495 87.5966 147.495C90.511 147.495 91.6227 149.806 91.6336 149.829C91.6444 149.853 91.6348 149.88 91.6107 149.891C91.6046 149.892 91.5974 149.895 91.5914 149.895Z" fill="#0B4870"/>
<path d="M88.2572 149.079C88.2427 149.079 88.2295 149.073 88.2198 149.059C88.2041 149.039 88.2078 149.009 88.2295 148.993C89.4099 148.102 89.9827 148.133 90.0068 148.135C90.0321 148.137 90.0526 148.159 90.0502 148.185C90.0478 148.211 90.0261 148.232 89.9996 148.229C89.9935 148.229 89.4316 148.204 88.2861 149.068C88.2765 149.076 88.2668 149.079 88.2572 149.079Z" fill="#0B4870"/>
<path d="M138.114 147.905H105.054C104.326 147.905 103.734 147.313 103.734 146.585V102.091C103.734 101.363 104.326 100.771 105.054 100.771H114.935V101.133H105.054C104.526 101.133 104.095 101.563 104.095 102.091V146.585C104.095 147.113 104.526 147.543 105.054 147.543H138.114C138.642 147.543 139.073 147.113 139.073 146.585V102.091C139.073 101.563 138.642 101.133 138.114 101.133H128.235V100.771H138.114C138.843 100.771 139.435 101.363 139.435 102.091V146.585C139.435 147.312 138.843 147.905 138.114 147.905Z" fill="#FFBE55"/>
<path d="M136.735 145.566H106.433C106.177 145.566 105.968 145.357 105.968 145.1V103.576C105.968 103.319 106.177 103.11 106.433 103.11H136.735C136.992 103.11 137.2 103.319 137.2 103.576V145.1C137.2 145.357 136.992 145.566 136.735 145.566Z" fill="#F2F2F2"/>
<path d="M128.392 104.342H114.776V99.887H118.718C118.744 98.3291 120.02 97.0691 121.584 97.0691C123.148 97.0691 124.424 98.3291 124.45 99.887H128.392V104.342ZM115.138 103.981H128.03V100.249H124.073L124.085 100.01C124.086 99.9859 124.088 99.9606 124.088 99.9353C124.088 98.5546 122.965 97.4308 121.584 97.4308C120.203 97.4308 119.08 98.5546 119.08 99.9353C119.08 99.9606 119.082 99.9859 119.083 100.01L119.095 100.249H115.138V103.981Z" fill="#FFBE55"/>
<path d="M121.584 101.625C120.653 101.625 119.895 100.867 119.895 99.9353C119.895 99.0032 120.652 98.246 121.584 98.246C122.516 98.246 123.273 99.0032 123.273 99.9353C123.273 100.867 122.515 101.625 121.584 101.625ZM121.584 98.6089C120.852 98.6089 120.257 99.2046 120.257 99.9365C120.257 100.668 120.852 101.264 121.584 101.264C122.316 101.264 122.912 100.668 122.912 99.9365C122.912 99.2046 122.316 98.6089 121.584 98.6089Z" fill="#FFBE55"/>
<path d="M169.132 154.887H80.8682C79.4695 154.887 78.336 153.753 78.336 152.355C78.336 150.956 79.4695 149.823 80.8682 149.823H169.132C170.531 149.823 171.664 150.956 171.664 152.355C171.664 153.753 170.531 154.887 169.132 154.887Z" fill="#D3D3D3"/>
<path d="M115.122 114.897H109.905V109.679H115.122V114.897ZM110.025 114.776H115.002V109.8H110.025V114.776Z" fill="#0B4870"/>
<path d="M112.685 113.746L110.961 112.392L111.259 112.014L112.653 113.107L115.671 110.2L116.005 110.547L112.685 113.746Z" fill="#0B4870"/>
<path d="M134.116 111.187H117.508C117.4 111.187 117.312 111.099 117.312 110.99C117.312 110.882 117.4 110.794 117.508 110.794H134.116C134.224 110.794 134.312 110.882 134.312 110.99C134.312 111.099 134.224 111.187 134.116 111.187Z" fill="#0B4870"/>
<path d="M134.116 112.052H117.508C117.4 112.052 117.312 111.964 117.312 111.856C117.312 111.747 117.4 111.659 117.508 111.659H134.116C134.224 111.659 134.312 111.747 134.312 111.856C134.312 111.964 134.224 112.052 134.116 112.052Z" fill="#0B4870"/>
<path d="M134.116 112.917H117.508C117.4 112.917 117.312 112.829 117.312 112.72C117.312 112.612 117.4 112.524 117.508 112.524H134.116C134.224 112.524 134.312 112.612 134.312 112.72C134.312 112.829 134.224 112.917 134.116 112.917Z" fill="#0B4870"/>
<path d="M134.116 113.783H117.508C117.4 113.783 117.312 113.695 117.312 113.586C117.312 113.478 117.4 113.39 117.508 113.39H134.116C134.224 113.39 134.312 113.478 134.312 113.586C134.312 113.695 134.224 113.783 134.116 113.783Z" fill="#0B4870"/>
<path d="M115.122 123.102H109.905V117.885H115.122V123.102ZM110.025 122.982H115.002V118.005H110.025V122.982Z" fill="#0B4870"/>
<path d="M112.685 121.952L110.961 120.598L111.259 120.219L112.653 121.313L115.671 118.406L116.005 118.753L112.685 121.952Z" fill="#0B4870"/>
<path d="M134.116 119.392H117.508C117.4 119.392 117.312 119.304 117.312 119.195C117.312 119.087 117.4 118.999 117.508 118.999H134.116C134.224 118.999 134.312 119.087 134.312 119.195C134.312 119.304 134.224 119.392 134.116 119.392Z" fill="#0B4870"/>
<path d="M134.116 120.258H117.508C117.4 120.258 117.312 120.17 117.312 120.061C117.312 119.953 117.4 119.865 117.508 119.865H134.116C134.224 119.865 134.312 119.953 134.312 120.061C134.312 120.17 134.224 120.258 134.116 120.258Z" fill="#0B4870"/>
<path d="M134.116 121.122H117.508C117.4 121.122 117.312 121.034 117.312 120.926C117.312 120.817 117.4 120.729 117.508 120.729H134.116C134.224 120.729 134.312 120.817 134.312 120.926C134.312 121.034 134.224 121.122 134.116 121.122Z" fill="#0B4870"/>
<path d="M134.116 121.988H117.508C117.4 121.988 117.312 121.9 117.312 121.791C117.312 121.683 117.4 121.595 117.508 121.595H134.116C134.224 121.595 134.312 121.683 134.312 121.791C134.312 121.9 134.224 121.988 134.116 121.988Z" fill="#0B4870"/>
<path d="M115.122 131.308H109.905V126.09H115.122V131.308ZM110.025 131.187H115.002V126.211H110.025V131.187Z" fill="#0B4870"/>
<path d="M112.685 130.157L110.961 128.803L111.259 128.425L112.653 129.518L115.671 126.611L116.005 126.958L112.685 130.157Z" fill="#0B4870"/>
<path d="M134.116 127.597H117.508C117.4 127.597 117.312 127.509 117.312 127.401C117.312 127.292 117.4 127.204 117.508 127.204H134.116C134.224 127.204 134.312 127.292 134.312 127.401C134.312 127.509 134.224 127.597 134.116 127.597Z" fill="#0B4870"/>
<path d="M134.116 128.463H117.508C117.4 128.463 117.312 128.375 117.312 128.267C117.312 128.158 117.4 128.07 117.508 128.07H134.116C134.224 128.07 134.312 128.158 134.312 128.267C134.312 128.375 134.224 128.463 134.116 128.463Z" fill="#0B4870"/>
<path d="M134.116 129.328H117.508C117.4 129.328 117.312 129.24 117.312 129.131C117.312 129.023 117.4 128.935 117.508 128.935H134.116C134.224 128.935 134.312 129.023 134.312 129.131C134.312 129.24 134.224 129.328 134.116 129.328Z" fill="#0B4870"/>
<path d="M134.116 130.193H117.508C117.4 130.193 117.312 130.105 117.312 129.997C117.312 129.888 117.4 129.8 117.508 129.8H134.116C134.224 129.8 134.312 129.888 134.312 129.997C134.312 130.105 134.224 130.193 134.116 130.193Z" fill="#0B4870"/>
<path d="M115.122 139.513H109.905V134.296H115.122V139.513ZM110.025 139.392H115.002V134.416H110.025V139.392Z" fill="#0B4870"/>
<path d="M112.685 138.363L110.961 137.009L111.259 136.63L112.653 137.724L115.671 134.816L116.005 135.164L112.685 138.363Z" fill="#0B4870"/>
<path d="M134.116 135.803H117.508C117.4 135.803 117.312 135.715 117.312 135.606C117.312 135.498 117.4 135.41 117.508 135.41H134.116C134.224 135.41 134.312 135.498 134.312 135.606C134.312 135.715 134.224 135.803 134.116 135.803Z" fill="#0B4870"/>
<path d="M134.116 136.668H117.508C117.4 136.668 117.312 136.58 117.312 136.472C117.312 136.363 117.4 136.275 117.508 136.275H134.116C134.224 136.275 134.312 136.363 134.312 136.472C134.312 136.58 134.224 136.668 134.116 136.668Z" fill="#0B4870"/>
<path d="M134.116 137.533H117.508C117.4 137.533 117.312 137.445 117.312 137.336C117.312 137.228 117.4 137.14 117.508 137.14H134.116C134.224 137.14 134.312 137.228 134.312 137.336C134.312 137.445 134.224 137.533 134.116 137.533Z" fill="#0B4870"/>
<path d="M134.116 138.399H117.508C117.4 138.399 117.312 138.311 117.312 138.202C117.312 138.094 117.4 138.006 117.508 138.006H134.116C134.224 138.006 134.312 138.094 134.312 138.202C134.312 138.311 134.224 138.399 134.116 138.399Z" fill="#0B4870"/>
<path d="M134.956 129.982C135.226 129.791 135.475 129.569 135.589 129.504C135.637 129.477 135.787 129.443 135.829 129.43C135.955 129.393 136.155 129.354 136.242 129.256L136.613 128.849C136.789 128.649 137.019 128.582 137.218 128.758C137.434 128.949 137.37 129.22 137.155 129.413L136.901 129.703C136.73 129.857 136.644 130.074 136.549 130.284C136.356 130.712 135.918 131.034 135.545 131.259C135.309 131.4 134.954 131.3 134.487 131.141C134.258 131.063 133.926 130.873 134.212 130.766C134.452 130.677 135.173 130.871 135.492 130.207C135.507 130.174 135.541 130.087 135.508 130.057C135.412 129.967 135.199 130.172 135.056 130.237C134.856 130.328 134.696 130.297 134.646 130.223C134.593 130.146 134.763 130.12 134.956 129.982Z" fill="#FAB9AF"/>
<path d="M145.104 115.406C145.104 115.406 144.508 122.556 142.37 124.969C141.083 126.423 137.932 128.916 137.202 129.488C137.11 129.56 136.979 129.564 136.883 129.496C136.821 129.453 136.752 129.4 136.691 129.347C136.63 129.293 136.559 129.214 136.495 129.14C136.389 129.015 136.393 128.831 136.504 128.712C137.322 127.823 140.529 124.301 140.92 123.375C141.367 122.312 142.138 116.041 142.846 115.133C143.553 114.223 144.91 114.026 145.104 115.406Z" fill="#FFBE55"/>
<path d="M142.404 127.217L144.227 114.412L149.143 113.737L151.701 127.126L142.404 127.217Z" fill="#FAB9AF"/>
<path d="M146.205 147.061L146.2 148.504C146.199 148.799 146.239 149.09 146.318 149.372L146.444 149.817C146.546 150.183 146.272 150.544 145.893 150.543C144.91 150.54 143.229 150.542 142.796 150.543C142.725 150.543 142.656 150.495 142.65 150.425C142.614 150.004 143.831 149.721 144.748 149.366C145.446 149.096 145.409 147.841 145.323 147.108C145.291 146.831 145.522 146.596 145.8 146.618C146.029 146.638 146.206 146.831 146.205 147.061Z" fill="#FAB9AF"/>
<path d="M152.962 146.656L153.459 148.307C153.481 148.38 153.513 148.449 153.557 148.512L153.909 149.035C154.133 149.368 153.971 149.821 153.588 149.938C153.588 149.938 152.877 150.188 152.145 150.429C151.395 150.675 150.45 150.47 150.45 150.271C150.45 149.831 150.86 150.18 151.548 149.721C151.778 149.567 152.016 149.406 152.228 149.24C152.819 148.776 152.303 147.601 151.941 146.939C151.811 146.702 151.949 146.406 152.215 146.35L152.386 146.313C152.637 146.262 152.887 146.41 152.962 146.656Z" fill="#FAB9AF"/>
<path d="M147.882 127.342L142.433 126.885C142.433 126.885 141.885 130.85 143.262 138.029C143.908 141.395 145.254 147.828 145.254 147.828C145.588 147.974 145.927 148.01 146.271 147.924C146.271 147.924 146.374 145.087 146.437 142.031C146.497 139.1 146.513 135.969 146.7 134.944C147.081 132.851 147.882 127.342 147.882 127.342Z" fill="#0B4870"/>
<path d="M146.757 127.41C146.194 130.43 144.938 134.944 147.359 139.185C149.779 143.426 152.322 147.835 152.322 147.835C152.65 147.849 152.947 147.73 153.223 147.521C153.223 147.521 152.798 145.599 152.185 143.353C151.483 140.785 150.594 137.765 150.847 136.19C151.322 133.238 151.867 129.307 151.702 127.397C151.536 125.487 147.053 125.824 146.757 127.41Z" fill="#0B4870"/>
<path d="M142.216 126.892L144.227 114.412L149.145 113.737L151.787 126.915C151.836 127.162 151.676 127.403 151.427 127.45C150.512 127.624 148.304 127.985 145.832 127.985C143.988 127.985 142.951 127.627 142.479 127.399C142.289 127.308 142.182 127.102 142.216 126.892Z" fill="#F2F2F2"/>
<path d="M151.948 131.722C152.023 131.4 152.064 131.069 152.106 130.945C152.124 130.893 152.215 130.769 152.238 130.73C152.307 130.619 152.432 130.457 152.432 130.327L152.441 129.776C152.441 129.51 152.57 129.308 152.836 129.308C153.124 129.308 153.255 129.554 153.221 129.841V130.227C153.195 130.456 153.275 130.676 153.342 130.896C153.48 131.345 153.365 131.875 153.234 132.293C153.152 132.554 152.818 132.715 152.363 132.903C152.14 132.996 151.765 133.073 151.908 132.804C152.029 132.578 152.698 132.248 152.498 131.538C152.488 131.503 152.457 131.415 152.412 131.414C152.28 131.41 152.256 131.704 152.192 131.848C152.102 132.049 151.961 132.131 151.875 132.109C151.784 132.085 151.894 131.953 151.948 131.722Z" fill="#FAB9AF"/>
<path d="M147.609 114.514C147.609 115.414 147.773 116.304 148.079 117.149C148.679 118.802 149.581 121.928 149.045 124.682C148.274 128.647 147.282 130.25 148.567 131.175C149.853 132.098 152.317 130.557 152.388 130.042C152.459 129.529 151.908 123.214 151.285 120.478C150.66 117.742 148.912 113.809 148.912 113.809L148.172 113.889C147.851 113.922 147.609 114.192 147.609 114.514Z" fill="#FFBE55"/>
<path d="M149.919 114.077C149.919 114.077 154.202 119.834 154.193 123.057C154.188 125 153.475 128.954 153.306 129.865C153.284 129.981 153.19 130.07 153.072 130.082C152.997 130.091 152.909 130.097 152.83 130.097C152.749 130.097 152.643 130.085 152.545 130.072C152.383 130.049 152.265 129.908 152.269 129.744C152.294 128.537 152.371 123.774 152.051 122.82C151.683 121.726 148.114 116.515 148.044 115.365C147.973 114.215 148.861 113.17 149.919 114.077Z" fill="#FFBE55"/>
<path d="M145.561 114.229C145.561 114.229 144.709 116.071 145.005 118.719C145.303 121.367 145.991 129.43 143.582 130.648C142.819 131.034 141.077 129.326 141.077 128.692C141.077 128.058 141.658 125.938 142.209 124.01C142.76 122.082 144.088 114.43 144.088 114.43L145.561 114.229Z" fill="#FFBE55"/>
<path d="M146.247 108.517C147.344 108.517 147.754 109.298 147.775 110.743C147.783 111.284 147.54 111.819 147.343 112.162C147.197 112.416 147.158 112.718 147.241 112.999L147.482 113.814C147.646 114.57 147.287 114.986 146.756 115.137C146.493 115.211 146.178 115.153 145.949 115.005C145.677 114.829 145.654 114.449 145.705 114.129L145.767 113.896C145.852 113.582 145.67 113.245 145.352 113.176C144.507 112.992 144.387 112.11 144.16 110.743C143.924 109.317 145.15 108.517 146.247 108.517Z" fill="#FAB9AF"/>
<path d="M143.692 107.883L144.322 108.074C144.553 108.144 144.799 108.147 145.032 108.079L146.288 107.715C147.049 107.715 148.307 108.144 148.148 109.243L148.008 110.019C147.952 110.329 147.693 110.562 147.378 110.588C147.349 110.696 147.252 110.77 147.141 110.77C147.005 110.77 146.895 110.661 146.895 110.525C146.895 110.174 146.649 109.876 146.308 109.799C145.888 109.705 145.441 109.682 144.972 109.808C144.099 110.043 143.177 109.502 143.091 108.601C143.085 108.545 143.082 108.487 143.082 108.428C143.081 108.063 143.381 107.797 143.692 107.883Z" fill="#0B4870"/>
<path d="M147.171 110.769C147.171 111.104 147.295 111.376 147.618 111.376C147.941 111.376 148.148 110.915 148.148 110.58C148.148 110.245 147.94 110.163 147.618 110.163C147.295 110.163 147.171 110.435 147.171 110.769Z" fill="#FAB9AF"/>
<path d="M147.303 112.24C147.303 112.24 146.484 113.366 145.465 113.215C145.465 113.215 145.677 113.316 145.728 113.48C145.728 113.48 146.696 113.409 147.303 112.24Z" fill="#E8948B"/>
<path d="M149.477 96.5363C149.477 97.3188 148.961 97.9543 148.323 97.9543H134.641C134.005 97.9543 133.487 97.32 133.487 96.5363C133.487 95.7537 134.003 95.1183 134.641 95.1183H148.323C148.961 95.1195 149.477 95.7537 149.477 96.5363Z" fill="#F2F2F2"/>
<path d="M100.502 104.128C100.502 104.91 99.8679 105.546 99.0842 105.546H82.2731C81.4905 105.546 80.8551 104.912 80.8551 104.128C80.8551 103.345 81.4893 102.71 82.2731 102.71H99.0854C99.8679 102.71 100.502 103.344 100.502 104.128Z" fill="#F2F2F2"/>
<path d="M107.375 96.5313C107.375 97.3139 106.849 97.9493 106.202 97.9493H92.2906C91.6431 97.9493 91.1174 97.3151 91.1174 96.5313C91.1174 95.7488 91.6431 95.1133 92.2906 95.1133H106.202C106.849 95.1133 107.375 95.7476 107.375 96.5313Z" fill="#F2F2F2"/>
<path d="M164.456 102.676C164.456 103.459 163.822 104.094 163.038 104.094H146.227C145.444 104.094 144.809 103.46 144.809 102.676C144.809 101.894 145.443 101.258 146.227 101.258H163.039C163.822 101.259 164.456 101.894 164.456 102.676Z" fill="#F2F2F2"/>
<path d="M146.351 149.486C146.351 149.486 145.589 149.822 144.879 149.299C144.879 149.299 143.125 149.58 142.623 150.099C142.12 150.617 142.484 150.874 143.116 150.863C143.746 150.852 146.184 150.827 146.184 150.827C146.184 150.827 146.81 150.445 146.351 149.486Z" fill="#0B4870"/>
<path d="M153.677 148.635C153.677 148.635 153.306 149.123 152.474 148.833C152.474 148.833 150.624 149.679 150.298 150.323C149.971 150.967 150.394 151.104 150.994 150.907C151.595 150.711 153.915 149.966 153.915 149.966C153.915 149.966 154.4 149.413 153.677 148.635Z" fill="#0B4870"/>
<defs>
<filter id="filter0_d" x="0" y="0" width="310" height="310" filterUnits="userSpaceOnUse" color-interpolation-filters="sRGB">
<feFlood flood-opacity="0" result="BackgroundImageFix"/>
<feColorMatrix in="SourceAlpha" type="matrix" values="0 0 0 0 0 0 0 0 0 0 0 0 0 0 0 0 0 0 127 0"/>
<feOffset dx="30" dy="30"/>
<feGaussianBlur stdDeviation="40"/>
<feColorMatrix type="matrix" values="0 0 0 0 0.215686 0 0 0 0 0.329412 0 0 0 0 0.666667 0 0 0 0.1 0"/>
<feBlend mode="normal" in2="BackgroundImageFix" result="effect1_dropShadow"/>
<feBlend mode="normal" in="SourceGraphic" in2="effect1_dropShadow" result="shape"/>
</filter>
</defs>
</svg>
