<svg width="310" height="310" viewBox="0 0 310 310" fill="none" xmlns="http://www.w3.org/2000/svg">
<g filter="url(#filter0_d)">
<circle cx="125" cy="125" r="75" fill="white"/>
</g>
<path d="M94.9035 144.823C99.4132 147.464 103.308 151.624 107.444 160.293C107.444 160.293 116.764 176.017 141.121 163.006C149.176 158.702 156.833 152.263 162.801 144.823H94.9035Z" fill="#CCE9FF"/>
<path d="M105.961 139.192C105.961 139.192 110.989 146.97 106.648 151.045C102.307 155.109 101.849 150.527 101.849 150.527C101.849 150.527 99.5459 150.659 104.164 145.462C106.347 143.015 105.961 139.192 105.961 139.192Z" fill="#0E538C"/>
<path d="M95.3618 125.506C95.3618 125.506 90.2372 131.535 97.0861 139.867C103.935 148.211 102.874 152.625 102.874 152.625C102.874 152.625 112.424 138.119 95.3618 125.506Z" fill="#2A94F4"/>
<path d="M101.861 152.239C105.044 152.878 102.464 143.605 97.689 140.784C92.902 137.962 88.6335 137.685 85.9446 134.96C85.9566 134.96 86.1616 149.068 101.861 152.239Z" fill="#FFBE55"/>
<path d="M154.578 139.216H117.5C117.078 139.216 116.728 138.867 116.728 138.445V83.7138C116.728 83.2918 117.078 82.9421 117.5 82.9421H154.578C155 82.9421 155.35 83.2918 155.35 83.7138V138.445C155.35 138.879 155 139.216 154.578 139.216Z" fill="#0E538C"/>
<path d="M154.578 139.216H117.5L155.35 83.7138V138.445C155.35 138.879 155 139.216 154.578 139.216Z" fill="#0E538C"/>
<path d="M151.238 119.381H149.236V134.61H151.238V119.381Z" fill="#CCE9FF"/>
<path d="M147.295 121.081H145.294V134.598H147.295V121.081Z" fill="#FFBE55"/>
<path d="M142.99 123.3H140.989V134.598H142.99V123.3Z" fill="#CCE9FF"/>
<path d="M138.589 126.097H136.588V134.598H138.589V126.097Z" fill="#FFBE55"/>
<path d="M127.532 127.194L127.098 127.038L130.872 116.451L139.06 114.293L142.002 102.669L148.308 99.8834L149.731 90.8521L150.177 90.9244L148.73 100.209L142.388 103.006L139.433 114.666L131.234 116.837L127.532 127.194Z" fill="#FFBE55"/>
<path d="M140.205 113.702C140.639 114.232 140.555 115.004 140.036 115.426C139.506 115.86 138.734 115.776 138.312 115.257C137.878 114.739 137.962 113.955 138.481 113.533C138.999 113.099 139.771 113.171 140.205 113.702Z" fill="white"/>
<path d="M140.169 115.607C139.542 116.113 138.625 116.029 138.119 115.402C137.613 114.775 137.697 113.859 138.324 113.352C138.951 112.846 139.867 112.93 140.374 113.557C140.892 114.172 140.796 115.101 140.169 115.607ZM138.613 113.702C138.191 114.052 138.119 114.679 138.469 115.101C138.818 115.523 139.445 115.595 139.867 115.245C140.289 114.896 140.362 114.269 140.012 113.847C139.675 113.425 139.048 113.352 138.613 113.702Z" fill="#FFBE55"/>
<path d="M143.183 102.126C143.617 102.657 143.533 103.429 143.014 103.851C142.484 104.285 141.712 104.2 141.29 103.682C140.856 103.151 140.94 102.379 141.459 101.957C141.977 101.523 142.749 101.608 143.183 102.126Z" fill="white"/>
<path d="M143.147 104.031C142.52 104.538 141.604 104.453 141.097 103.826C140.591 103.199 140.675 102.283 141.302 101.777C141.929 101.27 142.846 101.355 143.352 101.982C143.871 102.609 143.774 103.525 143.147 104.031ZM141.592 102.138C141.17 102.488 141.097 103.115 141.447 103.537C141.797 103.959 142.424 104.031 142.846 103.682C143.268 103.332 143.34 102.705 142.99 102.283C142.653 101.849 142.026 101.789 141.592 102.138Z" fill="#FFBE55"/>
<path d="M149.393 99.2684C149.827 99.799 149.743 100.571 149.224 100.993C148.694 101.427 147.922 101.342 147.5 100.824C147.066 100.293 147.15 99.5216 147.669 99.0996C148.187 98.6655 148.971 98.7379 149.393 99.2684Z" fill="white"/>
<path d="M149.369 101.174C148.742 101.68 147.826 101.596 147.319 100.969C146.813 100.342 146.897 99.4253 147.524 98.9189C148.151 98.4124 149.068 98.4969 149.574 99.1239C150.08 99.7388 149.996 100.667 149.369 101.174ZM147.814 99.2686C147.392 99.6182 147.319 100.245 147.669 100.667C148.019 101.089 148.646 101.162 149.068 100.812C149.49 100.462 149.562 99.8353 149.212 99.4133C148.875 98.9792 148.236 98.9189 147.814 99.2686Z" fill="#FFBE55"/>
<path d="M132.054 115.969C132.488 116.499 132.404 117.271 131.885 117.693C131.355 118.127 130.583 118.043 130.161 117.524C129.739 117.006 129.811 116.222 130.33 115.8C130.848 115.366 131.62 115.45 132.054 115.969Z" fill="white"/>
<path d="M132.018 117.874C131.391 118.38 130.474 118.296 129.968 117.669C129.461 117.042 129.546 116.125 130.173 115.619C130.8 115.113 131.716 115.197 132.223 115.824C132.741 116.451 132.645 117.367 132.018 117.874ZM130.462 115.981C130.04 116.33 129.968 116.957 130.318 117.379C130.667 117.801 131.294 117.874 131.716 117.524C132.138 117.174 132.211 116.547 131.861 116.125C131.523 115.691 130.896 115.631 130.462 115.981Z" fill="#FFBE55"/>
<path d="M132.958 101.56H120.997C120.9 101.56 120.828 101.487 120.828 101.391V99.172C120.828 99.0756 120.9 99.0032 120.997 99.0032H132.958C133.055 99.0032 133.127 99.0756 133.127 99.172V101.391C133.127 101.475 133.055 101.56 132.958 101.56Z" fill="#CCE9FF"/>
<path d="M132.958 97.0981H120.997C120.9 97.0981 120.828 97.0257 120.828 96.9293V94.7106C120.828 94.6142 120.9 94.5418 120.997 94.5418H132.958C133.055 94.5418 133.127 94.6142 133.127 94.7106V96.9293C133.127 97.0257 133.055 97.0981 132.958 97.0981Z" fill="#2A94F4"/>
<path d="M118.609 103.501C118.609 103.501 118.248 107.022 118.899 107.902C118.899 107.902 117.174 107.528 116.776 106.937C116.391 106.334 118.609 103.501 118.609 103.501Z" fill="#FFBE55"/>
<path d="M129.353 114.727C129.353 114.727 129.98 114.305 130.076 114.244C130.173 114.184 130.498 114.196 130.86 114.232C131.222 114.281 131.704 114.498 131.728 114.558C131.752 114.618 131.813 114.654 131.789 114.823C131.765 114.98 131.656 115.113 131.656 115.113C131.656 115.113 131.716 115.33 131.572 115.462C131.572 115.462 131.62 115.667 131.427 115.8C131.427 115.8 131.475 116.005 131.33 116.089C131.33 116.089 131.005 116.077 130.884 116.113C130.764 116.15 130.101 116.077 129.474 115.92C129.474 115.908 128.774 115.764 129.353 114.727Z" fill="#FFE3CA"/>
<path d="M128.979 114.787C128.979 114.787 129.377 114.739 129.618 114.63C129.859 114.522 129.57 115.848 129.57 115.848C129.57 115.848 128.979 115.438 128.593 115.426C128.219 115.426 128.979 114.787 128.979 114.787Z" fill="#FFE3CA"/>
<path d="M112.725 150.31C112.725 150.31 113.955 152.106 114.377 152.48C114.377 152.48 115.233 152.926 115.257 153.276C115.306 153.951 115.342 154.337 114.22 154.373C113.099 154.409 112.388 154.373 112.183 153.686C111.978 152.998 111.616 152.468 111.616 152.468L111.531 154.24H111.278C111.278 154.24 111.17 152.456 111.146 152.203C111.134 151.949 110.965 150.973 111.495 150.539C112.038 150.129 112.725 150.31 112.725 150.31Z" fill="#0B4870"/>
<path d="M114.534 152.577C114.534 152.577 113.931 152.745 113.195 152.565C112.472 152.384 111.773 150.647 111.568 150.503L111.375 149.803H112.785C112.785 149.803 112.797 150.322 113.027 150.768C113.268 151.202 114.534 152.577 114.534 152.577Z" fill="#FFE3CA"/>
<path d="M120.683 149.634C120.683 149.634 120.864 150.068 121.214 150.527C121.467 150.864 122.263 152.227 122.613 152.323C122.962 152.42 124.035 152.613 124.132 153.215C124.228 153.818 124.277 154.24 123.215 154.289C122.154 154.337 121.455 154.397 120.949 153.65C120.442 152.902 119.634 152.359 119.634 152.359V154.301H119.212C119.212 154.301 119.019 152.275 118.911 152.13C118.802 151.986 118.513 150.43 119.502 149.622C120.49 148.826 120.683 149.634 120.683 149.634Z" fill="#0B4870"/>
<path d="M122.613 152.323C122.613 152.323 121.66 152.564 121.298 152.323C120.937 152.082 119.695 149.984 119.285 149.863C119.285 149.863 119.683 149.055 120.683 149.646C120.683 149.634 122.335 151.973 122.613 152.323Z" fill="#FFE3CA"/>
<path d="M112.182 120.515C112.182 120.515 110.844 122.263 110.482 124.325C110.121 126.399 110.699 133.344 110.687 134.357C110.675 135.382 109.783 138.565 109.976 140.494C110.169 142.424 111.158 150.466 111.158 150.466L113.485 150.418C113.485 150.418 113.014 141.736 113.135 140.929C113.256 140.121 113.629 136.684 113.678 136.347C113.726 136.009 116.33 127.207 116.33 125.711C116.33 124.216 115.414 118.079 112.182 120.515Z" fill="#FFBE55"/>
<path d="M118.923 121.202C118.923 121.202 121.129 129.618 121.383 130.776C121.648 131.945 122.166 133.465 122.142 133.682C122.118 133.899 121.865 137.492 121.865 137.492L121.238 149.719H118.911C118.911 149.719 118.163 141.941 118.043 140.374C117.922 138.806 118.899 136.383 118.658 135.707C118.416 135.044 114.823 127.363 114.823 127.363C114.823 127.363 112.122 118.754 118.923 121.202Z" fill="#FFBE55"/>
<path d="M118.235 108.601C118.235 108.601 119.116 108.686 119.779 109.397C120.442 110.109 121.069 111.254 121.25 111.628C121.419 112.014 123.867 115.535 123.999 115.619C124.132 115.703 125.193 115.414 126.049 115.342C127.448 115.221 129.534 114.51 129.534 114.51L129.847 116.089C129.847 116.089 124.711 117.753 123.517 117.452C122.07 117.09 118.73 112.81 118.73 112.81C118.73 112.81 116.234 109.904 118.235 108.601Z" fill="#2A94F4"/>
<path d="M116.704 107.986C116.704 107.986 117.85 108.529 118.248 108.601C118.645 108.686 120.177 110.675 120.454 111.411C120.719 112.134 120.454 113.232 119.9 114.522C119.345 115.812 119.863 116.234 119.61 117.524C119.357 118.802 119.357 122.311 119.405 123.023C119.453 123.734 112.062 125.084 110.591 123.782C110.591 123.782 111.592 120.49 112.773 119.26C113.027 118.995 113.002 117.211 112.822 116.764C112.653 116.318 110.675 113.002 110.675 113.002C110.675 113.002 110.531 109.638 111.387 108.975C112.134 108.396 114.16 108.191 114.534 108.059C114.896 107.938 115.957 107.878 116.704 107.986Z" fill="#2A94F4"/>
<path d="M117.066 110.531L117.765 109.723L117.162 107.588C117.15 107.576 116.957 108.77 117.066 110.531Z" fill="#0E538C"/>
<path d="M112.713 108.601C112.713 108.601 111.278 108.191 110.446 109.771C109.626 111.363 109.831 112.207 109.638 112.93C109.445 113.641 108.686 118.416 108.638 118.621C108.589 118.826 107.866 121.25 107.95 121.998C108.047 122.745 108.722 128.388 108.698 128.581C108.662 128.774 110.012 128.4 110.012 128.4C110.012 128.4 109.952 122.637 110 122.154C110.048 121.684 110.097 119.176 110.446 118.537C110.808 117.898 111.688 113.967 111.869 113.569C112.086 113.171 113.931 109.12 112.713 108.601Z" fill="#EEA886"/>
<path d="M117.247 106.672C117.247 106.672 117.018 108.77 117.066 109.445C117.066 109.445 115.884 110.639 114.534 108.059C114.534 108.059 115.101 106.998 114.679 105.551C114.244 104.104 117.247 106.672 117.247 106.672Z" fill="#FFE3CA"/>
<path d="M117.066 109.445V110.531L115.788 109.397L117.066 109.445Z" fill="#FFE3CA"/>
<path d="M117.066 110.531L116.499 109.831L114.582 107.926L113.871 108.252L117.066 110.531Z" fill="#0E538C"/>
<path d="M117.753 109.723L118.634 109.964L117.15 107.576L117.753 109.723Z" fill="#0E538C"/>
<path d="M116.499 109.831L115.703 111.109L113.846 108.203L114.642 107.793L116.499 109.831Z" fill="#0E538C"/>
<path d="M120.563 114.992C120.563 114.992 120.852 113.087 120.551 111.941C120.551 111.941 120.382 112.87 119.972 114.329L120.563 114.992Z" fill="#0E538C"/>
<path d="M111.7 114.739C111.7 114.739 112.484 112.122 112.532 111.99C112.532 111.99 112.484 114.389 112.171 115.583C112.171 115.571 111.881 115.064 111.7 114.739Z" fill="#0E538C"/>
<path d="M116.282 99.5458C116.282 99.5458 118.38 99.4855 118.766 101.981C119.152 104.465 118.26 106.66 117.91 107.01C117.56 107.359 115.462 107.094 114.968 105.804C114.474 104.514 113.75 103.573 113.859 102.452C113.967 101.33 113.702 99.4976 116.282 99.5458Z" fill="#FFE3CA"/>
<path d="M118.863 102.922C118.863 102.922 119.429 99.8232 116.632 99.2565C113.847 98.7018 112.858 100.607 112.593 101.74C112.327 102.874 112.641 106.081 112.641 106.081C112.641 106.081 114.498 107.709 115.607 108.131C115.607 108.131 114.679 104.719 115.028 102.283C115.028 102.283 117.295 102.645 118.802 102.271C118.814 102.271 118.851 102.789 118.863 102.922Z" fill="#FFBE55"/>
<path d="M117.199 107.142C117.199 107.142 116.463 107.142 115.474 106.491C115.474 106.491 116.174 107.371 117.15 107.685C117.15 107.685 117.199 107.251 117.199 107.142Z" fill="#FCD2B1"/>
<path d="M113.049 123.156L104.934 124.482L105.915 130.491L114.031 129.166L113.049 123.156Z" fill="#0B4870"/>
<path d="M108.42 130.39C108.42 130.39 108.288 130.185 108.276 130.064C108.276 130.064 108.276 129.847 108.264 129.691C108.264 129.642 108.252 129.594 108.252 129.57C108.228 129.461 108.143 129.22 108.155 128.931C108.167 128.641 108.565 127.424 108.565 127.424L109.289 127.448L109.964 127.375C109.964 127.375 110.784 128.931 110.796 129.208C110.796 129.232 110.796 129.256 110.796 129.281C110.784 129.51 110.687 129.678 110.663 129.799C110.651 129.847 110.555 130.269 110.434 130.33C110.265 130.414 110.121 130.402 110.012 130.342C110.012 130.342 109.687 130.486 109.445 130.426C109.445 130.426 109.144 130.571 108.879 130.414C108.891 130.414 108.565 130.535 108.42 130.39Z" fill="#FFE3CA"/>
<path d="M112.713 108.601C112.713 108.601 111.278 108.191 110.446 109.771C109.626 111.363 109.626 112.038 109.518 112.809C109.409 113.545 108.408 117.886 108.36 118.091C108.312 118.296 107.986 121.009 107.962 121.998C107.95 122.745 108.119 127.677 108.095 127.87C108.059 128.063 110.374 127.532 110.374 127.532C110.374 127.532 110.121 122.986 110.169 122.516C110.217 122.046 110.314 119.67 110.555 118.971C110.832 118.151 111.905 114.027 112.098 113.617C112.267 113.219 113.931 109.12 112.713 108.601Z" fill="#2A94F4"/>
<path d="M136.491 108.276L137.034 111.025L137.576 113.774C137.576 113.774 134.453 112.797 130.908 113.497L130.667 112.279L130.426 111.061C133.983 110.362 136.491 108.276 136.491 108.276Z" fill="#FFBE55"/>
<path d="M131.415 116.499L131.728 116.355L130.306 113.352L129.51 113.726L130.716 116.27C130.848 116.56 131.125 116.632 131.415 116.499Z" fill="#2A94F4"/>
<path d="M129.546 113.352H129.51V116.644H129.546V113.352Z" fill="#2A94F4"/>
<path d="M129.582 113.352H129.546V116.644H129.582V113.352Z" fill="#2A94F4"/>
<path d="M129.618 113.352H129.582V116.644H129.618V113.352Z" fill="#2A94F4"/>
<path d="M129.654 113.352H129.618V116.644H129.654V113.352Z" fill="#2A94F4"/>
<path d="M129.691 113.352H129.655V116.644H129.691V113.352Z" fill="#2A94F4"/>
<path d="M129.727 113.352H129.691V116.644H129.727V113.352Z" fill="#2A94F4"/>
<path d="M129.751 113.352H129.715V116.644H129.751V113.352Z" fill="#2A94F4"/>
<path d="M129.787 113.352H129.751V116.644H129.787V113.352Z" fill="#2A94F4"/>
<path d="M129.823 113.352H129.787V116.644H129.823V113.352Z" fill="#2A94F4"/>
<path d="M129.859 113.352H129.823V116.644H129.859V113.352Z" fill="#2A94F4"/>
<path d="M129.896 113.352H129.859V116.644H129.896V113.352Z" fill="#2A94F4"/>
<path d="M129.92 113.352H129.884V116.644H129.92V113.352Z" fill="#2A94F4"/>
<path d="M129.956 113.352H129.92V116.644H129.956V113.352Z" fill="#2A94F4"/>
<path d="M129.992 113.352H129.956V116.644H129.992V113.352Z" fill="#2A94F4"/>
<path d="M130.028 113.352H129.992V116.644H130.028V113.352Z" fill="#2A94F4"/>
<path d="M130.064 113.352H130.028V116.644H130.064V113.352Z" fill="#2A94F4"/>
<path d="M130.101 113.352H130.064V116.644H130.101V113.352Z" fill="#2A94F4"/>
<path d="M130.125 113.352H130.089V116.644H130.125V113.352Z" fill="#2A94F4"/>
<path d="M130.161 113.352H130.125V116.644H130.161V113.352Z" fill="#2A94F4"/>
<path d="M130.197 113.352H130.161V116.644H130.197V113.352Z" fill="#2A94F4"/>
<path d="M130.233 113.352H130.197V116.644H130.233V113.352Z" fill="#2A94F4"/>
<path d="M130.269 113.352H130.233V116.644H130.269V113.352Z" fill="#2A94F4"/>
<path d="M130.294 113.352H130.257V116.644H130.294V113.352Z" fill="#2A94F4"/>
<path d="M130.33 113.352H130.294V116.644H130.33V113.352Z" fill="#2A94F4"/>
<path d="M130.366 113.352H130.33V116.644H130.366V113.352Z" fill="#2A94F4"/>
<path d="M130.402 113.352H130.366V116.644H130.402V113.352Z" fill="#2A94F4"/>
<path d="M130.438 113.352H130.402V116.644H130.438V113.352Z" fill="#2A94F4"/>
<path d="M130.474 113.352H130.438V116.644H130.474V113.352Z" fill="#2A94F4"/>
<path d="M130.498 113.352H130.462V116.644H130.498V113.352Z" fill="#2A94F4"/>
<path d="M130.535 113.352H130.499V116.644H130.535V113.352Z" fill="#2A94F4"/>
<path d="M130.571 113.352H130.535V116.644H130.571V113.352Z" fill="#2A94F4"/>
<path d="M130.607 113.352H130.571V116.644H130.607V113.352Z" fill="#2A94F4"/>
<path d="M130.643 113.352H130.607V116.644H130.643V113.352Z" fill="#2A94F4"/>
<path d="M130.679 113.352H130.643V116.644H130.679V113.352Z" fill="#2A94F4"/>
<path d="M130.704 113.352H130.667V116.644H130.704V113.352Z" fill="#2A94F4"/>
<path d="M130.74 113.352H130.703V116.644H130.74V113.352Z" fill="#2A94F4"/>
<path d="M130.776 113.352H130.74V116.644H130.776V113.352Z" fill="#2A94F4"/>
<path d="M130.812 113.352H130.776V116.644H130.812V113.352Z" fill="#2A94F4"/>
<path d="M130.848 113.352H130.812V116.644H130.848V113.352Z" fill="#2A94F4"/>
<path d="M130.872 113.352H130.836V116.644H130.872V113.352Z" fill="#2A94F4"/>
<path d="M130.908 113.352H130.872V116.644H130.908V113.352Z" fill="#2A94F4"/>
<path d="M130.945 113.352H130.909V116.644H130.945V113.352Z" fill="#2A94F4"/>
<path d="M130.981 113.352H130.945V116.644H130.981V113.352Z" fill="#2A94F4"/>
<path d="M131.017 113.352H130.981V116.644H131.017V113.352Z" fill="#2A94F4"/>
<path d="M131.053 113.352H131.017V116.644H131.053V113.352Z" fill="#2A94F4"/>
<path d="M131.077 113.352H131.041V116.644H131.077V113.352Z" fill="#2A94F4"/>
<path d="M131.113 113.352H131.077V116.644H131.113V113.352Z" fill="#2A94F4"/>
<path d="M131.15 113.352H131.113V116.644H131.15V113.352Z" fill="#2A94F4"/>
<path d="M131.186 113.352H131.15V116.644H131.186V113.352Z" fill="#2A94F4"/>
<path d="M131.222 113.352H131.186V116.644H131.222V113.352Z" fill="#2A94F4"/>
<path d="M131.246 113.352H131.21V116.644H131.246V113.352Z" fill="#2A94F4"/>
<path d="M131.282 113.352H131.246V116.644H131.282V113.352Z" fill="#2A94F4"/>
<path d="M131.319 113.352H131.282V116.644H131.319V113.352Z" fill="#2A94F4"/>
<path d="M131.355 113.352H131.318V116.644H131.355V113.352Z" fill="#2A94F4"/>
<path d="M131.391 113.352H131.355V116.644H131.391V113.352Z" fill="#2A94F4"/>
<path d="M131.427 113.352H131.391V116.644H131.427V113.352Z" fill="#2A94F4"/>
<path d="M131.451 113.352H131.415V116.644H131.451V113.352Z" fill="#2A94F4"/>
<path d="M131.487 113.352H131.451V116.644H131.487V113.352Z" fill="#2A94F4"/>
<path d="M131.523 113.352H131.487V116.644H131.523V113.352Z" fill="#2A94F4"/>
<path d="M131.56 113.352H131.523V116.644H131.56V113.352Z" fill="#2A94F4"/>
<path d="M131.596 113.352H131.56V116.644H131.596V113.352Z" fill="#2A94F4"/>
<path d="M131.62 113.352H131.584V116.644H131.62V113.352Z" fill="#2A94F4"/>
<path d="M131.656 113.352H131.62V116.644H131.656V113.352Z" fill="#2A94F4"/>
<path d="M131.692 113.352H131.656V116.644H131.692V113.352Z" fill="#2A94F4"/>
<path d="M131.728 113.352H131.692V116.644H131.728V113.352Z" fill="#2A94F4"/>
<path d="M128.473 114.003L131.596 113.424L131.089 110.856L127.99 111.567L128.473 114.003Z" fill="#2A94F4"/>
<path d="M128.051 110.856H127.99V114.003H128.051V110.856Z" fill="#2A94F4"/>
<path d="M128.099 110.856H128.039V114.003H128.099V110.856Z" fill="#2A94F4"/>
<path d="M128.159 110.856H128.099V114.003H128.159V110.856Z" fill="#2A94F4"/>
<path d="M128.207 110.856H128.147V114.003H128.207V110.856Z" fill="#2A94F4"/>
<path d="M128.268 110.856H128.207V114.003H128.268V110.856Z" fill="#2A94F4"/>
<path d="M128.328 110.856H128.268V114.003H128.328V110.856Z" fill="#2A94F4"/>
<path d="M128.376 110.856H128.316V114.003H128.376V110.856Z" fill="#2A94F4"/>
<path d="M128.437 110.856H128.376V114.003H128.437V110.856Z" fill="#2A94F4"/>
<path d="M128.485 110.856H128.425V114.003H128.485V110.856Z" fill="#2A94F4"/>
<path d="M128.545 110.856H128.485V114.003H128.545V110.856Z" fill="#2A94F4"/>
<path d="M128.605 110.856H128.545V114.003H128.605V110.856Z" fill="#2A94F4"/>
<path d="M128.654 110.856H128.593V114.003H128.654V110.856Z" fill="#2A94F4"/>
<path d="M128.714 110.856H128.654V114.003H128.714V110.856Z" fill="#2A94F4"/>
<path d="M128.762 110.856H128.702V114.003H128.762V110.856Z" fill="#2A94F4"/>
<path d="M128.822 110.856H128.762V114.003H128.822V110.856Z" fill="#2A94F4"/>
<path d="M128.883 110.856H128.822V114.003H128.883V110.856Z" fill="#2A94F4"/>
<path d="M128.931 110.856H128.871V114.003H128.931V110.856Z" fill="#2A94F4"/>
<path d="M128.991 110.856H128.931V114.003H128.991V110.856Z" fill="#2A94F4"/>
<path d="M129.039 110.856H128.979V114.003H129.039V110.856Z" fill="#2A94F4"/>
<path d="M129.1 110.856H129.039V114.003H129.1V110.856Z" fill="#2A94F4"/>
<path d="M129.16 110.856H129.1V114.003H129.16V110.856Z" fill="#2A94F4"/>
<path d="M129.208 110.856H129.148V114.003H129.208V110.856Z" fill="#2A94F4"/>
<path d="M129.269 110.856H129.208V114.003H129.269V110.856Z" fill="#2A94F4"/>
<path d="M129.317 110.856H129.257V114.003H129.317V110.856Z" fill="#2A94F4"/>
<path d="M129.377 110.856H129.317V114.003H129.377V110.856Z" fill="#2A94F4"/>
<path d="M129.437 110.856H129.377V114.003H129.437V110.856Z" fill="#2A94F4"/>
<path d="M129.486 110.856H129.425V114.003H129.486V110.856Z" fill="#2A94F4"/>
<path d="M129.546 110.856H129.486V114.003H129.546V110.856Z" fill="#2A94F4"/>
<path d="M129.594 110.856H129.534V114.003H129.594V110.856Z" fill="#2A94F4"/>
<path d="M129.654 110.856H129.594V114.003H129.654V110.856Z" fill="#2A94F4"/>
<path d="M129.715 110.856H129.654V114.003H129.715V110.856Z" fill="#2A94F4"/>
<path d="M129.763 110.856H129.703V114.003H129.763V110.856Z" fill="#2A94F4"/>
<path d="M129.823 110.856H129.763V114.003H129.823V110.856Z" fill="#2A94F4"/>
<path d="M129.883 110.856H129.823V114.003H129.883V110.856Z" fill="#2A94F4"/>
<path d="M129.932 110.856H129.872V114.003H129.932V110.856Z" fill="#2A94F4"/>
<path d="M129.992 110.856H129.932V114.003H129.992V110.856Z" fill="#2A94F4"/>
<path d="M130.04 110.856H129.98V114.003H130.04V110.856Z" fill="#2A94F4"/>
<path d="M130.101 110.856H130.04V114.003H130.101V110.856Z" fill="#2A94F4"/>
<path d="M130.161 110.856H130.101V114.003H130.161V110.856Z" fill="#2A94F4"/>
<path d="M130.209 110.856H130.149V114.003H130.209V110.856Z" fill="#2A94F4"/>
<path d="M130.269 110.856H130.209V114.003H130.269V110.856Z" fill="#2A94F4"/>
<path d="M130.318 110.856H130.257V114.003H130.318V110.856Z" fill="#2A94F4"/>
<path d="M130.378 110.856H130.318V114.003H130.378V110.856Z" fill="#2A94F4"/>
<path d="M130.438 110.856H130.378V114.003H130.438V110.856Z" fill="#2A94F4"/>
<path d="M130.486 110.856H130.426V114.003H130.486V110.856Z" fill="#2A94F4"/>
<path d="M130.547 110.856H130.486V114.003H130.547V110.856Z" fill="#2A94F4"/>
<path d="M130.595 110.856H130.535V114.003H130.595V110.856Z" fill="#2A94F4"/>
<path d="M130.655 110.856H130.595V114.003H130.655V110.856Z" fill="#2A94F4"/>
<path d="M130.716 110.856H130.655V114.003H130.716V110.856Z" fill="#2A94F4"/>
<path d="M130.764 110.856H130.703V114.003H130.764V110.856Z" fill="#2A94F4"/>
<path d="M130.824 110.856H130.764V114.003H130.824V110.856Z" fill="#2A94F4"/>
<path d="M130.872 110.856H130.812V114.003H130.872V110.856Z" fill="#2A94F4"/>
<path d="M130.933 110.856H130.872V114.003H130.933V110.856Z" fill="#2A94F4"/>
<path d="M130.993 110.856H130.933V114.003H130.993V110.856Z" fill="#2A94F4"/>
<path d="M131.041 110.856H130.981V114.003H131.041V110.856Z" fill="#2A94F4"/>
<path d="M131.101 110.856H131.041V114.003H131.101V110.856Z" fill="#2A94F4"/>
<path d="M131.15 110.856H131.089V114.003H131.15V110.856Z" fill="#2A94F4"/>
<path d="M131.21 110.856H131.15V114.003H131.21V110.856Z" fill="#2A94F4"/>
<path d="M131.27 110.856H131.21V114.003H131.27V110.856Z" fill="#2A94F4"/>
<path d="M131.318 110.856H131.258V114.003H131.318V110.856Z" fill="#2A94F4"/>
<path d="M131.379 110.856H131.318V114.003H131.379V110.856Z" fill="#2A94F4"/>
<path d="M131.427 110.856H131.367V114.003H131.427V110.856Z" fill="#2A94F4"/>
<path d="M131.487 110.856H131.427V114.003H131.487V110.856Z" fill="#2A94F4"/>
<path d="M131.548 110.856H131.487V114.003H131.548V110.856Z" fill="#2A94F4"/>
<path d="M131.596 110.856H131.535V114.003H131.596V110.856Z" fill="#2A94F4"/>
<path d="M131.632 114.546C131.632 114.546 130.703 114.461 130.667 114.606C130.631 114.751 130.715 114.823 130.715 114.823L130.318 114.956C130.318 114.956 130.101 115.197 130.426 115.354C130.426 115.354 130.209 115.559 130.535 115.679C130.535 115.679 130.45 115.884 130.595 115.957C130.74 116.041 131.343 116.065 131.343 116.065C131.343 116.065 131.475 116.017 131.439 115.776C131.439 115.776 131.632 115.655 131.584 115.438C131.584 115.438 131.716 115.317 131.668 115.088C131.668 115.088 131.957 114.799 131.74 114.534C131.728 114.558 131.668 114.546 131.632 114.546Z" fill="#FFE3CA"/>
<defs>
<filter id="filter0_d" x="0" y="0" width="310" height="310" filterUnits="userSpaceOnUse" color-interpolation-filters="sRGB">
<feFlood flood-opacity="0" result="BackgroundImageFix"/>
<feColorMatrix in="SourceAlpha" type="matrix" values="0 0 0 0 0 0 0 0 0 0 0 0 0 0 0 0 0 0 127 0"/>
<feOffset dx="30" dy="30"/>
<feGaussianBlur stdDeviation="40"/>
<feColorMatrix type="matrix" values="0 0 0 0 0.215686 0 0 0 0 0.329412 0 0 0 0 0.666667 0 0 0 0.1 0"/>
<feBlend mode="normal" in2="BackgroundImageFix" result="effect1_dropShadow"/>
<feBlend mode="normal" in="SourceGraphic" in2="effect1_dropShadow" result="shape"/>
</filter>
</defs>
</svg>
