<svg width="310" height="310" viewBox="0 0 310 310" fill="none" xmlns="http://www.w3.org/2000/svg">
<g filter="url(#filter0_d)">
<circle cx="125" cy="125" r="75" fill="white"/>
</g>
<path opacity="0.58" d="M171.475 111.561C168.137 101.344 157.076 98.0186 148.485 93.5245C133.025 85.4158 111.637 80.0301 95.5509 89.5485C76.2958 100.946 79.8022 126.827 85.8993 144.779C87.285 148.863 87.4537 153.273 89.0442 157.273C89.1888 157.647 89.3575 158.008 89.5262 158.382H136.7C138.098 157.454 139.556 156.623 141.146 155.96C149.304 152.55 158.401 149.863 164.812 142.658C172.09 134.465 174.897 122.043 171.475 111.561Z" fill="#CCE9FF"/>
<path d="M77.4404 159.129H144.629C144.629 159.129 142.327 146.454 124.096 149.912C124.096 149.912 118.071 138.947 106.793 143.044C106.793 143.044 96.1413 138.911 89.8515 146.538C89.8394 146.538 79.031 146.43 77.4404 159.129Z" fill="#0B4870"/>
<path d="M104.01 159.129H72.6689C72.8376 157.755 73.2473 156.695 73.7654 155.888C74.633 154.55 75.8138 153.888 76.7778 153.562C77.7297 153.249 78.4527 153.249 78.4527 153.249C81.3928 149.683 86.3572 151.622 86.3572 151.622C91.6228 149.719 94.4304 154.827 94.4304 154.827C102.937 153.213 104.01 159.129 104.01 159.129Z" fill="#0B4870"/>
<path d="M170.993 159.129H103.817C103.817 159.129 106.118 146.454 124.349 149.912C124.349 149.912 130.374 138.947 141.653 143.044C141.653 143.044 152.304 138.911 158.594 146.538C158.594 146.538 169.403 146.43 170.993 159.129Z" fill="#2A94F4"/>
<path d="M145.87 159.105H177.211C177.042 157.731 176.632 156.671 176.114 155.864C175.247 154.526 174.066 153.864 173.102 153.538C172.15 153.225 171.427 153.225 171.427 153.225C168.487 149.659 163.522 151.598 163.522 151.598C158.257 149.695 155.449 154.803 155.449 154.803C146.942 153.189 145.87 159.105 145.87 159.105Z" fill="#0B4870"/>
<path d="M141.158 100.428H140.11C141.098 100.428 141.893 101.235 141.893 102.223L141.64 150.767C141.64 151.43 141.122 151.972 140.484 152.02H141.424C142.122 152.02 142.689 151.466 142.701 150.767L142.954 102.223C142.942 101.235 142.147 100.428 141.158 100.428Z" fill="#D3D3D3"/>
<path d="M141.64 150.767L141.893 102.223C141.893 101.236 141.098 100.428 140.11 100.428L109.046 100.26H108.107C107.119 100.26 106.311 101.055 106.311 102.043L106.058 150.586C106.058 151.285 106.612 152.032 107.323 152.032H140.363C140.399 152.032 140.435 152.032 140.472 152.032C141.122 151.972 141.628 151.43 141.64 150.767Z" fill="#F7F7F7"/>
<path d="M110.227 112.056L137.52 112.202L137.557 105.093L110.265 104.948L110.227 112.056Z" fill="#D3D3D3"/>
<path d="M110.071 134.057L117 134.094L117.032 127.985L110.104 127.948L110.071 134.057Z" fill="#D3D3D3"/>
<path d="M120.277 134.105L127.206 134.142L127.238 128.033L120.31 127.996L120.277 134.105Z" fill="#D3D3D3"/>
<path d="M130.425 144.2L137.353 144.237L137.386 138.128L130.457 138.091L130.425 144.2Z" fill="#D3D3D3"/>
<path d="M110.012 144.091L116.941 144.128L116.973 138.019L110.045 137.982L110.012 144.091Z" fill="#D3D3D3"/>
<path d="M120.219 144.139L127.147 144.176L127.18 138.067L120.251 138.03L120.219 144.139Z" fill="#D3D3D3"/>
<path d="M136.339 124.32H131.398C130.928 124.32 130.555 123.935 130.555 123.477V118.85C130.555 118.381 130.94 118.007 131.398 118.007H136.339C136.809 118.007 137.182 118.393 137.182 118.85V123.477C137.182 123.947 136.809 124.32 136.339 124.32Z" fill="#2A94F4"/>
<path d="M134.121 119.814H133.628V122.513H134.121V119.814Z" fill="white"/>
<path d="M135.29 120.935H132.459V121.405H135.29V120.935Z" fill="white"/>
<path d="M116.011 124.14H111.071C110.601 124.14 110.227 123.754 110.227 123.296V118.67C110.227 118.2 110.613 117.826 111.071 117.826H116.011C116.481 117.826 116.855 118.212 116.855 118.67V123.296C116.855 123.754 116.469 124.14 116.011 124.14Z" fill="#0B4870"/>
<path d="M114.951 120.742H112.119V121.212H114.951V120.742Z" fill="white"/>
<path d="M126.181 124.116H121.241C120.771 124.116 120.397 123.73 120.397 123.272V118.646C120.397 118.176 120.783 117.802 121.241 117.802H126.181C126.651 117.802 127.024 118.188 127.024 118.646V123.272C127.024 123.73 126.651 124.116 126.181 124.116Z" fill="#FFBE55"/>
<path d="M122.891 122.08L122.542 121.742L124.542 119.839L124.892 120.164L122.891 122.08Z" fill="white"/>
<path d="M124.542 122.08L122.542 120.164L122.891 119.839L124.892 121.742L124.542 122.08Z" fill="white"/>
<path d="M136.375 134.285H131.434C130.965 134.285 130.591 133.899 130.591 133.441V128.815C130.591 128.345 130.977 127.971 131.434 127.971H136.375C136.845 127.971 137.218 128.357 137.218 128.815V133.441C137.218 133.911 136.845 134.285 136.375 134.285Z" fill="#0B4870"/>
<path d="M135.327 130.899H132.495V131.369H135.327V130.899Z" fill="white"/>
<path d="M133.917 130.441C133.856 130.441 133.808 130.429 133.748 130.417C133.579 130.369 133.435 130.272 133.35 130.128C133.266 129.983 133.242 129.815 133.29 129.658C133.338 129.501 133.447 129.357 133.591 129.272C133.748 129.188 133.917 129.164 134.085 129.212C134.254 129.26 134.399 129.357 134.483 129.501C134.567 129.646 134.592 129.815 134.543 129.971C134.495 130.128 134.387 130.272 134.242 130.357C134.134 130.405 134.025 130.441 133.917 130.441ZM133.905 129.658C133.881 129.658 133.844 129.67 133.82 129.682C133.784 129.706 133.76 129.73 133.748 129.778C133.736 129.815 133.748 129.863 133.76 129.899C133.784 129.935 133.82 129.959 133.856 129.971C133.893 129.983 133.941 129.971 133.977 129.959C134.013 129.935 134.037 129.911 134.049 129.863C134.061 129.827 134.049 129.778 134.037 129.742C134.013 129.706 133.977 129.682 133.941 129.67C133.941 129.658 133.929 129.658 133.905 129.658Z" fill="white"/>
<path d="M133.905 133.068C133.543 133.068 133.254 132.791 133.254 132.441C133.254 132.092 133.543 131.815 133.905 131.815C134.266 131.815 134.555 132.092 134.555 132.441C134.567 132.779 134.266 133.068 133.905 133.068ZM133.905 132.285C133.82 132.285 133.748 132.357 133.748 132.441C133.748 132.526 133.82 132.598 133.905 132.598C133.989 132.598 134.061 132.526 134.061 132.441C134.061 132.357 134.001 132.285 133.905 132.285Z" fill="white"/>
<path d="M151.015 123.248H149.063V129.248H151.015V123.248Z" fill="#FFBE55"/>
<path d="M155.449 120.935H153.256V129.248H155.449V120.935Z" fill="#FFBE55"/>
<path d="M159.631 118.525H157.449V129.248H159.631V118.525Z" fill="#FFBE55"/>
<path d="M163.547 115.489H161.643V129.248H163.547V115.489Z" fill="#2A94F4"/>
<path d="M93.5748 113.609H85.333C85.2607 113.609 85.2004 113.549 85.2004 113.477V108.609C85.2004 108.537 85.2607 108.477 85.333 108.477H93.5748C93.6471 108.477 93.7074 108.537 93.7074 108.609V113.477C93.7074 113.549 93.6471 113.609 93.5748 113.609Z" fill="#2A94F4"/>
<path d="M91.659 110.055H86.7789V110.561H91.659V110.055Z" fill="white"/>
<path d="M91.659 111.308H86.7789V111.814H91.659V111.308Z" fill="white"/>
<path d="M85.7667 123.586H76.4042C76.3199 123.586 76.2596 123.525 76.2596 123.441V117.923C76.2596 117.838 76.3199 117.778 76.4042 117.778H85.7547C85.839 117.778 85.8993 117.838 85.8993 117.923V123.441C85.9113 123.525 85.839 123.586 85.7667 123.586Z" fill="#FFBE55"/>
<path d="M83.5737 119.561H78.043V120.128H83.5737V119.561Z" fill="white"/>
<path d="M83.5737 120.983H78.043V121.549H83.5737V120.983Z" fill="white"/>
<path d="M93.8279 133.851H84.9835C84.8992 133.851 84.8389 133.791 84.8389 133.706V128.188C84.8389 128.104 84.8992 128.044 84.9835 128.044H93.8279C93.9122 128.044 93.9725 128.104 93.9725 128.188V133.706C93.9725 133.791 93.9122 133.851 93.8279 133.851Z" fill="#0E538C"/>
<path d="M91.7674 129.827H86.5258V130.393H91.7674V129.827Z" fill="white"/>
<path d="M91.7674 131.248H86.5258V131.815H91.7674V131.248Z" fill="white"/>
<path d="M117.722 120.911L111.975 124.778L111.372 123.875L111.276 127.61C111.42 127.863 111.746 127.935 111.975 127.754L118.06 123.092L117.722 120.911Z" fill="#2A94F4"/>
<path d="M127.237 129.03L119.727 126.236L116.077 136.062L123.587 138.855L127.237 129.03Z" fill="#FFBE55"/>
<path d="M128.321 130.231L121.383 126.222L116.144 135.301L123.082 139.31L128.321 130.231Z" fill="#2A94F4"/>
<path d="M107.54 165.514H102.829V163.502H105.673C106.709 163.502 107.54 164.334 107.54 165.37V165.514Z" fill="#0B4870"/>
<path d="M108.866 114.935H106.745V117.501H108.866V114.935Z" fill="#FFE3CA"/>
<path d="M109.215 116.067C109.203 116.067 109.191 116.067 109.191 116.067C109.083 116.067 108.974 116.067 108.866 116.055V116.706C108.866 116.706 107.793 116.127 107.432 115.706C107.311 115.573 107.757 115.597 107.697 115.465L108.866 115.935L109.215 116.067Z" fill="#FCD2B1"/>
<path d="M110.974 113.392L110.577 113.465C110.697 114.923 110.649 116.067 109.215 116.079C109.203 116.079 109.191 116.079 109.191 116.079C109.083 116.079 108.974 116.079 108.866 116.067C108.589 116.043 108.287 115.983 107.974 115.887C107.649 115.802 107.323 115.67 106.998 115.525C106.757 115.417 106.528 115.296 106.311 115.164C105.191 114.501 104.275 113.537 104.275 112.465C104.275 110.477 105.721 108.862 107.492 108.862C108.817 108.862 109.962 109.766 110.456 111.043C110.625 111.477 110.721 111.959 110.721 112.465L111.107 113.115C111.167 113.224 111.095 113.368 110.974 113.392Z" fill="#FFE3CA"/>
<path d="M111.492 119.356L111.071 135.73H100.913C100.913 135.73 100.443 117.838 100.636 117.284C103.178 117.26 105.142 117.284 107.227 117.284C107.372 117.284 107.516 117.284 107.661 117.284C108.323 117.284 109.01 117.284 109.721 117.284C110.818 117.296 111.661 118.272 111.492 119.356Z" fill="#2A94F4"/>
<path d="M116.855 130.67L110.986 128.104C110.649 127.959 110.444 127.598 110.492 127.236L111.529 118.995C111.36 117.947 110.504 117.26 109.721 117.308C108.805 117.369 107.914 118.477 108.227 119.754C107.962 122.827 107.697 125.899 107.444 128.971C107.408 129.417 107.685 129.827 108.107 129.971L116.095 132.574L116.855 130.67Z" fill="#2A94F4"/>
<path d="M99.7442 116.224C100.13 115.236 100.913 114.453 101.901 114.055C102.576 113.802 103.022 113.453 103.323 113.115C103.829 112.549 103.817 112.32 103.817 112.32C103.817 112.32 103.877 111.742 103.877 111.609C103.877 109.368 105.504 107.549 107.504 107.549C107.745 107.549 109.01 107.549 109.083 107.561C110.035 107.669 110.77 108.465 110.77 109.441C110.77 109.477 110.77 109.525 110.77 109.561C110.709 110.549 109.878 111.332 108.878 111.332C108.793 111.332 108.709 111.32 108.625 111.32C108.564 112.597 108.179 113.718 107.613 114.441C107.588 114.477 107.564 114.513 107.528 114.537L107.516 114.549C107.48 114.585 107.444 114.621 107.408 114.67C106.974 115.272 107.131 116.742 107.131 116.742C107.179 116.923 107.203 117.103 107.227 117.284C107.239 117.405 107.239 117.525 107.239 117.646C107.239 119.079 106.456 120.332 105.299 121.007C105.311 121.176 105.323 121.345 105.323 121.525C105.323 124.465 102.949 126.839 100.009 126.839C97.0692 126.839 94.6954 124.465 94.6954 121.525C94.6954 118.682 96.9366 116.356 99.7442 116.224Z" fill="#0B4870"/>
<path d="M105.42 163.502H102.817L102.733 141.911H106.745L105.42 163.502Z" fill="#FFE3CA"/>
<path d="M111.89 165.514H107.179V163.502H110.022C111.059 163.502 111.89 164.334 111.89 165.37V165.514Z" fill="#0B4870"/>
<path d="M109.745 163.502H107.179L106.745 141.911H110.131L109.745 163.502Z" fill="#FFE3CA"/>
<path d="M111.071 135.73V148.538H99.4671L100.913 135.73H111.071Z" fill="#FFBE55"/>
<path d="M116.855 130.67C116.855 130.67 120.397 130.959 120.481 132.007C120.554 133.056 119.048 133.634 116.083 132.562L116.855 130.67Z" fill="#FFE3CA"/>
<path d="M122.277 119.79L119.289 120.176L119.698 119.67C120.192 119.248 119.999 118.886 119.999 118.886L118.758 119.573L117.722 120.899L117.987 122.561L118.072 123.079C118.674 123.043 119.132 122.887 119.469 122.67C119.518 122.682 119.566 122.694 119.626 122.682C120.337 122.561 120.494 121.826 120.481 120.887C120.481 120.887 120.481 120.874 120.481 120.85C120.481 120.73 120.481 120.658 120.481 120.658L121.747 120.38C122.807 120.188 122.313 119.79 122.277 119.79Z" fill="#FFE3CA"/>
<path d="M117.083 130.694L118.228 130.297L118.023 130.827L117.083 130.694Z" fill="#DD9786"/>
<path d="M118.951 110.404L119.65 107.127L118.734 107.344L118.855 106.778L120.457 106.404L119.614 110.392H118.951V110.404Z" fill="#999999"/>
<path d="M122.699 107.452C122.699 107.296 122.65 107.175 122.554 107.079C122.458 106.983 122.313 106.946 122.132 106.946C121.952 106.946 121.771 106.983 121.59 107.055C121.409 107.127 121.253 107.224 121.108 107.332L121.253 106.681C121.542 106.489 121.891 106.404 122.301 106.404C122.638 106.404 122.891 106.489 123.084 106.657C123.277 106.826 123.373 107.043 123.373 107.332C123.373 107.549 123.337 107.73 123.265 107.898C123.193 108.067 123.084 108.224 122.94 108.368C122.795 108.513 122.53 108.706 122.168 108.934C121.807 109.163 121.554 109.332 121.421 109.465C121.289 109.597 121.204 109.718 121.18 109.85H122.915L122.795 110.404H120.337L120.385 110.163C120.421 109.959 120.494 109.766 120.602 109.609C120.698 109.44 120.843 109.284 121 109.139C121.168 108.983 121.421 108.802 121.771 108.585C122.012 108.428 122.193 108.296 122.325 108.187C122.458 108.067 122.554 107.959 122.602 107.85C122.65 107.742 122.699 107.597 122.699 107.452Z" fill="#999999"/>
<path d="M125.976 107.32C125.976 107.609 125.88 107.838 125.699 108.031C125.518 108.224 125.265 108.344 124.94 108.392V108.404C125.169 108.44 125.349 108.537 125.482 108.693C125.615 108.85 125.675 109.031 125.675 109.26C125.675 109.501 125.615 109.718 125.494 109.898C125.374 110.079 125.193 110.224 124.964 110.332C124.735 110.428 124.446 110.489 124.12 110.489C123.94 110.489 123.759 110.465 123.59 110.428C123.41 110.392 123.253 110.332 123.096 110.26L123.217 109.694C123.337 109.766 123.482 109.838 123.651 109.886C123.819 109.934 123.976 109.959 124.12 109.959C124.41 109.959 124.627 109.898 124.783 109.778C124.94 109.657 125.024 109.489 125.024 109.26C125.024 109.079 124.952 108.922 124.807 108.814C124.663 108.706 124.446 108.645 124.157 108.645H123.843L123.952 108.127H124.325C124.639 108.127 124.88 108.067 125.06 107.946C125.241 107.826 125.325 107.657 125.325 107.44C125.325 107.284 125.277 107.163 125.169 107.067C125.06 106.983 124.916 106.934 124.723 106.934C124.434 106.934 124.145 107.007 123.867 107.151L123.988 106.573C124.277 106.465 124.59 106.416 124.904 106.416C125.241 106.416 125.494 106.501 125.699 106.657C125.904 106.814 125.976 107.043 125.976 107.32Z" fill="#999999"/>
<path d="M126.699 110.091C126.699 110.199 126.663 110.296 126.578 110.368C126.494 110.44 126.398 110.477 126.289 110.477C126.181 110.477 126.085 110.44 126 110.368C125.928 110.296 125.892 110.212 125.892 110.103C125.892 109.995 125.928 109.898 126.012 109.826C126.097 109.754 126.193 109.718 126.313 109.718C126.422 109.718 126.518 109.754 126.591 109.826C126.663 109.898 126.699 109.983 126.699 110.091Z" fill="#999999"/>
<path d="M130.242 107.609C130.242 108.139 130.157 108.621 130.001 109.079C129.844 109.537 129.627 109.886 129.35 110.115C129.085 110.344 128.784 110.465 128.434 110.465C128.097 110.465 127.844 110.344 127.639 110.115C127.434 109.886 127.35 109.561 127.35 109.139C127.35 108.657 127.434 108.199 127.591 107.766C127.747 107.332 127.976 106.995 128.241 106.754C128.519 106.513 128.832 106.404 129.169 106.404C129.495 106.404 129.748 106.513 129.94 106.717C130.145 106.946 130.242 107.236 130.242 107.609ZM129.591 107.621C129.591 107.404 129.555 107.224 129.47 107.115C129.398 106.995 129.278 106.934 129.145 106.934C128.952 106.934 128.772 107.031 128.615 107.224C128.458 107.416 128.314 107.718 128.193 108.115C128.073 108.513 128.012 108.874 128.012 109.2C128.012 109.428 128.049 109.609 128.133 109.742C128.217 109.874 128.338 109.934 128.494 109.934C128.699 109.934 128.88 109.826 129.037 109.609C129.193 109.392 129.314 109.091 129.422 108.706C129.531 108.32 129.591 107.959 129.591 107.621Z" fill="#999999"/>
<path d="M133.326 107.609C133.326 108.139 133.242 108.621 133.085 109.079C132.929 109.537 132.712 109.886 132.435 110.115C132.17 110.344 131.868 110.465 131.519 110.465C131.181 110.465 130.928 110.344 130.724 110.115C130.519 109.886 130.434 109.561 130.434 109.139C130.434 108.657 130.519 108.199 130.675 107.766C130.832 107.332 131.061 106.995 131.326 106.754C131.603 106.513 131.917 106.404 132.254 106.404C132.579 106.404 132.832 106.513 133.025 106.717C133.242 106.946 133.326 107.236 133.326 107.609ZM132.676 107.621C132.676 107.404 132.639 107.224 132.555 107.115C132.483 106.995 132.362 106.934 132.23 106.934C132.037 106.934 131.856 107.031 131.7 107.224C131.543 107.416 131.398 107.718 131.278 108.115C131.157 108.513 131.097 108.874 131.097 109.2C131.097 109.428 131.133 109.609 131.218 109.742C131.302 109.874 131.422 109.934 131.579 109.934C131.784 109.934 131.965 109.826 132.121 109.609C132.278 109.392 132.398 109.091 132.507 108.706C132.615 108.32 132.676 107.959 132.676 107.621Z" fill="#999999"/>
<defs>
<filter id="filter0_d" x="0" y="0" width="310" height="310" filterUnits="userSpaceOnUse" color-interpolation-filters="sRGB">
<feFlood flood-opacity="0" result="BackgroundImageFix"/>
<feColorMatrix in="SourceAlpha" type="matrix" values="0 0 0 0 0 0 0 0 0 0 0 0 0 0 0 0 0 0 127 0"/>
<feOffset dx="30" dy="30"/>
<feGaussianBlur stdDeviation="40"/>
<feColorMatrix type="matrix" values="0 0 0 0 0.215686 0 0 0 0 0.329412 0 0 0 0 0.666667 0 0 0 0.1 0"/>
<feBlend mode="normal" in2="BackgroundImageFix" result="effect1_dropShadow"/>
<feBlend mode="normal" in="SourceGraphic" in2="effect1_dropShadow" result="shape"/>
</filter>
</defs>
</svg>
