<svg width="500" height="421" viewBox="0 0 500 421" fill="none" xmlns="http://www.w3.org/2000/svg">
<path d="M267.617 108.872C271.447 110.534 275.037 112.376 278.291 114.339C289.668 121.197 298.82 131.182 310 138.061C320.557 144.556 333.449 146.135 345.529 147.22C366.586 149.113 410.504 167.263 402.574 200.903C399.689 213.145 389.515 221.46 384.306 232.546C378.765 244.339 379.347 259.047 370.525 269.271C366.644 273.766 361.287 276.735 355.787 278.984C319.183 293.946 278.078 293.251 239.266 291.601C208.631 290.299 159.428 297.179 132.52 280.379C119.161 272.038 126.108 249.236 116.864 236.99C109.096 226.699 98.524 219.94 93.331 207.058C84.493 185.139 97.091 156.615 119.147 148.833C132.93 143.971 147.532 141.743 161.157 136.403C175.233 130.884 180.657 122.618 191.391 112.835C210.797 95.15 243.826 98.544 267.617 108.872Z" fill="#CCE9FF"/>
<path d="M236.631 271.211C236.631 271.211 236.631 271.344 236.631 271.561C236.652 271.345 236.631 271.211 236.631 271.211Z" fill="white"/>
<path d="M262.186 271.138C262.651 279.75 256.045 287.109 247.432 287.575C238.819 288.041 231.461 281.436 230.994 272.823C230.529 264.211 237.133 256.849 245.75 256.386C254.359 255.92 261.719 262.523 262.186 271.138Z" fill="#FFBE55"/>
<path d="M249.641 264.774C249.852 264.761 250.079 264.763 250.319 264.772C251.792 264.834 253.557 266.084 253.903 268.641L253.946 269.495C253.889 271.888 252.3 274.901 247.458 278.812C247.171 279.041 246.77 279.063 246.464 278.867C241.228 275.501 239.321 272.674 239.007 270.301L238.962 269.449C239.028 266.87 240.65 265.435 242.105 265.215C242.343 265.178 242.568 265.153 242.781 265.145C244.47 265.052 245.322 265.742 246.31 266.795C247.18 265.641 247.949 264.866 249.641 264.774Z" fill="white"/>
<path d="M163.04 208.231C165.905 208.231 168.227 205.909 168.227 203.044C168.227 200.179 165.905 197.857 163.04 197.857C160.175 197.857 157.853 200.179 157.853 203.044C157.853 205.909 160.175 208.231 163.04 208.231Z" fill="#FFBE55"/>
<path d="M161.016 201.415C161.526 201.176 161.873 201.282 162.309 201.484C162.434 201.019 162.575 200.684 163.082 200.446C163.146 200.416 163.217 200.387 163.291 200.361C163.752 200.197 164.451 200.362 164.877 201.106L164.996 201.363C165.277 202.106 165.164 203.233 164.16 205.041C164.099 205.146 163.98 205.203 163.859 205.181C161.828 204.797 160.89 204.164 160.498 203.473L160.377 203.216C160.076 202.414 160.397 201.771 160.818 201.522C160.887 201.48 160.953 201.444 161.016 201.415Z" fill="white"/>
<path d="M160.606 251.409C167.133 251.409 172.424 246.118 172.424 239.591C172.424 233.064 167.133 227.773 160.606 227.773C154.079 227.773 148.788 233.064 148.788 239.591C148.788 246.118 154.079 251.409 160.606 251.409Z" fill="#FFBE55"/>
<path d="M155.994 235.878C157.154 235.334 157.945 235.575 158.937 236.034C159.22 234.976 159.542 234.213 160.701 233.67C160.847 233.601 161.006 233.536 161.178 233.477C162.227 233.103 163.823 233.479 164.787 235.175L165.062 235.76C165.703 237.453 165.443 240.021 163.154 244.139C163.021 244.38 162.746 244.508 162.472 244.457C157.843 243.582 155.706 242.141 154.81 240.566L154.535 239.981C153.851 238.152 154.582 236.687 155.541 236.119C155.697 236.026 155.85 235.944 155.994 235.878Z" fill="white"/>
<path d="M187.433 231.151C192.551 231.151 196.7 227.002 196.7 221.884C196.7 216.766 192.551 212.617 187.433 212.617C182.315 212.617 178.166 216.766 178.166 221.884C178.166 227.002 182.315 231.151 187.433 231.151Z" fill="#2A94F4"/>
<path d="M183.141 225.063L183.246 224.666C183.715 222.893 185.551 221.826 187.324 222.296C189.097 222.765 190.162 224.601 189.693 226.373L189.588 226.77L183.141 225.063Z" fill="white"/>
<path d="M187.971 221.917C189.113 221.917 190.038 220.992 190.038 219.85C190.038 218.708 189.113 217.783 187.971 217.783C186.829 217.783 185.904 218.708 185.904 219.85C185.904 220.992 186.829 221.917 187.971 221.917Z" fill="white"/>
<path d="M143.824 223.604C147.939 223.604 151.274 220.268 151.274 216.154C151.274 212.039 147.939 208.704 143.824 208.704C139.709 208.704 136.374 212.039 136.374 216.154C136.374 220.268 139.709 223.604 143.824 223.604Z" fill="#2A94F4"/>
<path d="M142.535 220.251L142.416 219.943C141.883 218.567 142.574 217.006 143.947 216.474C145.322 215.941 146.883 216.63 147.416 218.005L147.535 218.314L142.535 220.251Z" fill="white"/>
<path d="M143.213 216.238C144.13 216.238 144.874 215.494 144.874 214.577C144.874 213.659 144.13 212.916 143.213 212.916C142.296 212.916 141.552 213.659 141.552 214.577C141.552 215.494 142.296 216.238 143.213 216.238Z" fill="white"/>
<path d="M336.96 205.966C339.825 205.966 342.147 203.644 342.147 200.779C342.147 197.914 339.825 195.592 336.96 195.592C334.095 195.592 331.773 197.914 331.773 200.779C331.773 203.644 334.095 205.966 336.96 205.966Z" fill="#FFBE55"/>
<path d="M338.984 199.149C339.046 199.178 339.113 199.214 339.181 199.254C339.603 199.504 339.923 200.147 339.622 200.949L339.501 201.206C339.108 201.896 338.171 202.529 336.14 202.913C336.021 202.936 335.9 202.88 335.841 202.773C334.835 200.965 334.722 199.839 335.003 199.096L335.124 198.839C335.548 198.095 336.247 197.93 336.708 198.094C336.782 198.119 336.853 198.149 336.917 198.179C337.425 198.417 337.567 198.752 337.69 199.216C338.127 199.017 338.475 198.91 338.984 199.149Z" fill="white"/>
<path d="M339.395 249.144C345.922 249.144 351.214 243.853 351.214 237.325C351.214 230.798 345.922 225.506 339.395 225.506C332.868 225.506 327.576 230.798 327.576 237.325C327.576 243.853 332.868 249.144 339.395 249.144Z" fill="#FFBE55"/>
<path d="M344.006 233.611C344.151 233.678 344.303 233.759 344.459 233.853C345.418 234.421 346.148 235.886 345.465 237.715L345.19 238.3C344.295 239.874 342.157 241.316 337.528 242.191C337.255 242.242 336.979 242.114 336.846 241.873C334.559 237.755 334.299 235.187 334.938 233.494L335.213 232.909C336.18 231.213 337.774 230.836 338.822 231.21C338.994 231.271 339.152 231.335 339.299 231.404C340.459 231.947 340.779 232.711 341.063 233.767C342.055 233.309 342.846 233.068 344.006 233.611Z" fill="white"/>
<path d="M312.567 228.885C317.685 228.885 321.834 224.736 321.834 219.618C321.834 214.5 317.685 210.351 312.567 210.351C307.449 210.351 303.3 214.5 303.3 219.618C303.3 224.736 307.449 228.885 312.567 228.885Z" fill="#2A94F4"/>
<path d="M316.859 222.798L316.754 222.401C316.285 220.628 314.449 219.561 312.676 220.03C310.905 220.5 309.838 222.335 310.307 224.108L310.412 224.505L316.859 222.798Z" fill="white"/>
<path d="M312.029 219.651C313.171 219.651 314.096 218.726 314.096 217.584C314.096 216.443 313.171 215.517 312.029 215.517C310.887 215.517 309.962 216.443 309.962 217.584C309.962 218.726 310.887 219.651 312.029 219.651Z" fill="white"/>
<path d="M356.176 221.338C360.291 221.338 363.626 218.003 363.626 213.888C363.626 209.773 360.291 206.438 356.176 206.438C352.061 206.438 348.726 209.773 348.726 213.888C348.726 218.003 352.061 221.338 356.176 221.338Z" fill="#2A94F4"/>
<path d="M357.465 217.984L357.584 217.676C358.117 216.301 357.426 214.739 356.053 214.207C354.678 213.674 353.117 214.364 352.584 215.738L352.465 216.047L357.465 217.984Z" fill="white"/>
<path d="M356.787 213.972C357.704 213.972 358.448 213.228 358.448 212.311C358.448 211.394 357.704 210.65 356.787 210.65C355.87 210.65 355.126 211.394 355.126 212.311C355.126 213.228 355.87 213.972 356.787 213.972Z" fill="white"/>
<path d="M298.708 274.563C308.385 274.563 316.229 266.719 316.229 257.042C316.229 247.365 308.385 239.521 298.708 239.521C289.031 239.521 281.187 247.365 281.187 257.042C281.187 266.719 289.031 274.563 298.708 274.563Z" fill="#2A94F4"/>
<path d="M304.145 265.554L304.227 264.781C304.594 261.333 302.073 258.212 298.623 257.844C295.173 257.476 292.053 260 291.687 263.448L291.605 264.221L304.145 265.554Z" fill="white"/>
<path d="M299.129 256.995C301.288 256.995 303.038 255.245 303.038 253.086C303.038 250.927 301.288 249.177 299.129 249.177C296.97 249.177 295.22 250.927 295.22 253.086C295.22 255.245 296.97 256.995 299.129 256.995Z" fill="white"/>
<path d="M194.081 274.566C203.758 274.566 211.602 266.722 211.602 257.045C211.602 247.368 203.758 239.524 194.081 239.524C184.404 239.524 176.56 247.368 176.56 257.045C176.56 266.722 184.404 274.566 194.081 274.566Z" fill="#2A94F4"/>
<path d="M197.867 266.408L198.09 265.662C199.082 262.34 197.174 258.809 193.852 257.818C190.528 256.826 186.998 258.734 186.008 262.056L185.783 262.801L197.867 266.408Z" fill="white"/>
<path d="M198.965 254.351C198.346 256.42 196.17 257.597 194.102 256.98C192.034 256.363 190.856 254.185 191.475 252.117C192.088 250.049 194.268 248.871 196.336 249.488C198.406 250.105 199.582 252.282 198.965 254.351Z" fill="white"/>
<path d="M274.406 143.363V247.281C274.406 247.928 273.881 248.454 273.232 248.454H219.947C219.299 248.454 218.775 247.929 218.775 247.281V143.363C218.775 142.722 219.298 142.197 219.947 142.197H273.232C273.881 142.197 274.406 142.723 274.406 143.363Z" fill="#F2F2F2"/>
<path d="M222.336 148.08V236.924H270.844V148.08C270.844 147.627 270.467 147.267 270.004 147.267H223.174C222.713 147.267 222.336 147.627 222.336 148.08Z" fill="#B3B3B3"/>
<path d="M246.59 245.669C248.326 245.669 249.733 244.262 249.733 242.526C249.733 240.79 248.326 239.383 246.59 239.383C244.854 239.383 243.447 240.79 243.447 242.526C243.447 244.262 244.854 245.669 246.59 245.669Z" fill="#D3D3D3"/>
<path d="M246.59 145.944C247.252 145.944 247.789 145.407 247.789 144.745C247.789 144.083 247.252 143.546 246.59 143.546C245.928 143.546 245.391 144.083 245.391 144.745C245.391 145.407 245.928 145.944 246.59 145.944Z" fill="#4D4D4D"/>
<path d="M270.844 147.267H222.336V236.924H270.844V147.267Z" fill="#F2F2F2"/>
<path d="M236.111 233.01C236.283 232.739 236.386 232.417 236.386 232.072C236.386 231.099 235.597 230.311 234.626 230.311C233.653 230.311 232.864 231.099 232.864 232.072C232.864 233.045 233.653 233.833 234.626 233.833C235.058 233.833 235.446 233.672 235.753 233.415L236.386 233.581L236.111 233.01Z" fill="#0E538C"/>
<path d="M228.855 230.311C228.91 230.311 228.964 230.313 229.025 230.319C229.392 230.356 229.818 230.692 229.869 231.336V231.551C229.824 232.148 229.385 232.881 228.119 233.792C228.045 233.847 227.945 233.847 227.871 233.792C226.607 232.881 226.168 232.147 226.123 231.551V231.336C226.174 230.692 226.598 230.357 226.965 230.319C227.026 230.313 227.082 230.311 227.135 230.311C227.559 230.311 227.762 230.494 227.996 230.772C228.229 230.493 228.432 230.311 228.855 230.311Z" fill="#FFBE55"/>
<path d="M270.844 158.717H222.336V203.74H270.844V158.717Z" fill="#D3D3D3"/>
<path d="M270.846 167.255H222.336V227.777H270.846V167.255Z" fill="#FFE3CA"/>
<path d="M228.187 165.624C229.424 165.624 230.426 164.622 230.426 163.385C230.426 162.148 229.424 161.146 228.187 161.146C226.95 161.146 225.948 162.148 225.948 163.385C225.948 164.622 226.95 165.624 228.187 165.624Z" fill="#CCCCCC"/>
<path d="M252.343 162.294H231.812V164.477H252.343V162.294Z" fill="#CCCCCC"/>
<path d="M266.944 162.487C267.103 162.487 267.232 162.358 267.232 162.199C267.232 162.04 267.103 161.911 266.944 161.911C266.785 161.911 266.656 162.04 266.656 162.199C266.656 162.358 266.785 162.487 266.944 162.487Z" fill="#999999"/>
<path d="M266.944 163.673C267.103 163.673 267.232 163.544 267.232 163.385C267.232 163.226 267.103 163.097 266.944 163.097C266.785 163.097 266.656 163.226 266.656 163.385C266.656 163.544 266.785 163.673 266.944 163.673Z" fill="#999999"/>
<path d="M266.944 164.859C267.103 164.859 267.232 164.73 267.232 164.571C267.232 164.412 267.103 164.283 266.944 164.283C266.785 164.283 266.656 164.412 266.656 164.571C266.656 164.73 266.785 164.859 266.944 164.859Z" fill="#999999"/>
<path d="M248.367 231.924C248.797 231.924 249.146 231.575 249.146 231.145C249.146 230.715 248.797 230.366 248.367 230.366C247.937 230.366 247.588 230.715 247.588 231.145C247.588 231.575 247.937 231.924 248.367 231.924Z" fill="#D3D3D3"/>
<path d="M245.162 231.924C245.592 231.924 245.941 231.575 245.941 231.145C245.941 230.715 245.592 230.366 245.162 230.366C244.732 230.366 244.383 230.715 244.383 231.145C244.383 231.575 244.732 231.924 245.162 231.924Z" fill="#F2F2F2"/>
<path d="M229.252 154.679C229.793 154.679 230.232 154.24 230.232 153.699C230.232 153.158 229.793 152.719 229.252 152.719C228.711 152.719 228.272 153.158 228.272 153.699C228.272 154.24 228.711 154.679 229.252 154.679Z" fill="#0B4870"/>
<path d="M231.982 151.54H230.982L230.83 151.191C230.748 151.001 230.56 150.879 230.353 150.879H228.148C227.941 150.879 227.753 151.001 227.671 151.191L227.519 151.54H226.519C226.203 151.54 225.947 151.796 225.947 152.113V155.284C225.947 155.6 226.203 155.857 226.519 155.857H231.982C232.298 155.857 232.556 155.6 232.556 155.284V152.113C232.557 151.796 232.299 151.54 231.982 151.54ZM229.252 155.119C228.467 155.119 227.83 154.481 227.83 153.699C227.83 152.915 228.467 152.277 229.252 152.277C230.035 152.277 230.672 152.915 230.672 153.699C230.672 154.481 230.035 155.119 229.252 155.119Z" fill="#0B4870"/>
<path d="M252.648 174.93C252.388 173.374 252.466 171.915 253.005 170.636C253.398 172.133 253.457 173.703 252.648 174.93Z" fill="#FFBE55"/>
<path d="M303.08 178.02C302.461 178.485 298.67 178.489 296.303 178.446C294.735 177.513 291.686 176.592 290.401 176.224C290.483 175.742 290.555 175.365 290.614 175.147C290.991 173.712 294.163 172.202 295.448 171.974C296.733 171.746 298.471 168.955 300.21 169.482C301.944 170.012 296.812 173.258 296.733 174.089C296.69 174.548 298.268 174.818 299.917 174.978H299.933C301.275 175.104 302.656 175.147 303.236 175.147C304.009 175.147 306.345 175.344 307.877 174.118C309.1 173.288 310.191 172.833 310.582 173.331C311.406 174.378 303.986 177.34 303.08 178.02Z" fill="#FED5B5"/>
<path d="M198.916 177.112L194.082 180.586C194.082 180.586 194.162 180.817 194.309 181.237C191.295 180.42 188.557 179.277 188.118 178.865C187.692 178.474 186.466 177.846 186.155 177.687C186.577 177.88 188.735 178.856 189.696 178.971C189.7 178.976 189.7 178.976 189.7 178.976C189.778 178.986 189.846 178.986 189.903 178.986C190.116 178.981 190.286 178.904 190.417 178.793C191.589 178.484 193.763 177.847 193.54 177.436C193.415 177.209 193.333 176.742 193.28 176.263C194.01 175.809 193.782 174.842 193.782 174.842L192.237 173.171C192.237 173.171 192.798 173.012 193.018 172.22C193.241 171.423 188.61 169.491 188.61 169.491C188.417 169.408 188.122 169.322 188.122 169.322C188.397 169.124 191.218 169.254 193.063 169.968C193.208 170.027 193.348 170.079 193.487 170.136C193.221 171.291 193.053 172.175 193.053 172.175C196.303 173.432 196.782 172.035 196.782 172.035C197.169 172.74 198.94 176.101 198.94 176.101C198.945 176.46 198.936 176.798 198.916 177.112Z" fill="#FED5B5"/>
<path d="M193.279 176.263C193.332 176.742 193.414 177.209 193.539 177.436C193.762 177.847 191.588 178.485 190.416 178.793C190.285 178.904 190.115 178.981 189.902 178.986C189.845 178.986 189.777 178.986 189.699 178.976C189.699 178.976 189.699 178.976 189.695 178.971C188.734 178.856 186.576 177.88 186.154 177.687C186.107 177.663 186.082 177.653 186.082 177.653C186.082 177.653 186.082 177.648 186.078 177.643C186.019 177.552 185.98 177.455 185.957 177.358C185.943 177.32 185.937 177.28 185.932 177.238C185.93 177.201 185.928 177.162 185.928 177.12C185.903 176.562 186.28 176.084 186.324 176.026C186.328 176.026 186.328 176.021 186.328 176.021C186.328 176.021 186.324 176.015 186.318 176C186.291 175.938 186.261 175.875 186.236 175.812C186.205 175.716 186.164 175.595 186.146 175.445C186.134 175.418 186.13 175.383 186.13 175.349C186.126 175.339 186.126 175.329 186.126 175.325C186.087 174.784 186.306 174.369 186.435 174.172C186.464 174.127 186.497 174.089 186.531 174.045C186.531 174.045 186.504 173.973 186.484 173.837C186.478 173.818 186.478 173.794 186.474 173.772C186.468 173.719 186.464 173.663 186.462 173.601C186.454 173.353 186.501 173.123 186.579 172.925C186.628 172.78 186.694 172.65 186.757 172.543C186.778 172.514 186.796 172.484 186.816 172.451C186.841 172.418 186.867 172.379 186.894 172.341C186.927 172.297 186.962 172.249 187.005 172.201C187.019 172.18 187.038 172.157 187.058 172.139C187.058 172.139 187.052 172.129 187.052 172.115C187.025 171.969 186.888 171.186 187.163 170.433C187.464 169.597 187.841 169.526 188.12 169.323C188.12 169.323 188.415 169.409 188.608 169.492C188.608 169.492 193.239 171.424 193.016 172.221C192.795 173.013 192.235 173.172 192.235 173.172L193.78 174.843C193.781 174.842 194.01 175.809 193.279 176.263Z" fill="#FED5B5"/>
<path d="M193.053 172.176C193.053 172.176 193.221 171.292 193.487 170.137C195.139 170.8 196.469 171.487 196.749 171.979C196.759 171.999 196.767 172.018 196.782 172.037C196.781 172.036 196.303 173.433 193.053 172.176Z" fill="#FED5B5"/>
<path d="M190.416 178.793C190.014 178.9 189.73 178.967 189.699 178.977C189.699 178.977 189.699 178.977 189.695 178.972C189.73 178.851 190.757 174.978 193.181 174.823C193.181 174.823 193.201 175.552 193.279 176.263C193.332 176.742 193.414 177.209 193.539 177.436C193.762 177.847 191.588 178.484 190.416 178.793Z" fill="#B2897C"/>
<path d="M193.279 176.263C193.043 176.412 192.709 176.51 192.23 176.499C192.23 176.499 192.761 178.04 190.888 177.774C190.888 177.774 190.829 178.46 190.415 178.793C190.284 178.904 190.114 178.981 189.901 178.986C189.844 178.986 189.776 178.986 189.698 178.976C189.698 178.976 189.698 178.976 189.694 178.971C188.733 178.856 186.575 177.88 186.153 177.687C186.106 177.663 186.081 177.653 186.081 177.653C186.081 177.653 186.081 177.648 186.077 177.643C186.052 177.615 185.989 177.523 185.956 177.358C185.942 177.32 185.936 177.28 185.931 177.238C185.904 176.963 185.962 176.556 186.324 176.026C186.328 176.026 186.328 176.021 186.328 176.021C186.328 176.021 186.324 176.015 186.318 176C186.306 175.972 186.271 175.909 186.236 175.812C186.205 175.716 186.164 175.595 186.146 175.445C186.134 175.418 186.13 175.383 186.13 175.349C186.126 175.339 186.126 175.329 186.126 175.325C186.087 174.992 186.14 174.576 186.435 174.172C186.464 174.127 186.497 174.089 186.531 174.045C186.531 174.045 186.504 173.973 186.484 173.837C186.478 173.818 186.478 173.794 186.474 173.772C186.449 173.568 186.454 173.274 186.579 172.925C186.622 172.804 186.681 172.674 186.757 172.543C186.778 172.514 186.796 172.484 186.816 172.451C186.841 172.418 186.867 172.379 186.894 172.341C186.927 172.297 186.962 172.249 187.005 172.201C187.019 172.18 187.038 172.157 187.058 172.139C187.058 172.139 187.052 172.129 187.052 172.115C186.99 171.878 186.54 169.98 188.12 169.323C188.12 169.323 188.415 169.409 188.608 169.492C188.608 169.492 193.239 171.424 193.016 172.221C192.795 173.013 192.235 173.172 192.235 173.172L193.78 174.843C193.781 174.842 194.01 175.809 193.279 176.263Z" fill="#E6AC8C"/>
<path d="M196.781 172.036C196.781 172.036 196.302 173.432 193.052 172.176C193.052 172.176 193.22 171.292 193.486 170.137C193.834 168.626 194.355 166.661 194.902 165.613C195.125 165.198 195.168 165.029 195.631 165.072C196.096 165.116 196.227 166.898 196.192 168.409C196.154 169.921 196.781 172.036 196.781 172.036Z" fill="#FED5B5"/>
<path d="M268.309 192.215C267.553 198.438 267.434 199.005 267.434 199.005C266.477 197.615 265.639 196.26 265.008 195.191V195.189C264.215 190.614 266.309 181.886 266.309 181.886C266.309 181.886 269.064 185.99 268.309 192.215Z" fill="#FFBE55"/>
<path d="M252.648 174.93C252.056 175.838 250.998 176.552 249.263 176.92C241.124 178.634 238.511 165.583 238.511 165.583C239.927 165.312 240.839 165.037 241.085 164.96C241.101 164.955 241.108 164.955 241.124 164.951C241.144 164.945 241.153 164.941 241.153 164.941L241.182 164.945C241.186 164.941 241.186 164.941 241.192 164.945L250.446 165.636C250.446 165.636 250.524 165.669 250.663 165.718C250.669 165.722 250.669 165.722 250.669 165.722C250.669 165.722 250.673 165.728 250.677 165.732C250.798 165.906 252.359 168.168 253.005 170.635C253.398 172.133 253.457 173.703 252.648 174.93Z" fill="#FFBE55"/>
<path d="M250.977 156.013C250.977 156.013 250.805 157.071 250.665 158.625C250.591 159.419 250.526 160.342 250.495 161.318C250.415 164.021 250.595 167.142 251.606 169.096C251.606 169.096 246.534 172.287 240.778 165.001C240.778 165.001 241.042 155.746 237.717 150.925C234.391 146.106 250.977 156.013 250.977 156.013Z" fill="#FED5B5"/>
<path d="M252.648 174.93C252.056 175.838 250.998 176.552 249.263 176.92C241.124 178.634 238.511 165.583 238.511 165.583C239.29 165.346 240.777 165.004 240.777 165.004C240.884 164.989 240.986 164.97 241.086 164.96C241.102 164.955 241.109 164.955 241.125 164.951C241.145 164.951 241.164 164.945 241.184 164.945C241.188 164.941 241.188 164.941 241.194 164.945C248.048 163.96 250.549 165.636 250.665 165.718C250.671 165.722 250.671 165.722 250.671 165.722C250.671 165.722 250.675 165.728 250.679 165.732C250.8 165.906 252.361 168.168 253.007 170.635C253.398 172.133 253.457 173.703 252.648 174.93Z" fill="#FED5B5"/>
<path d="M246.598 127.83C246.598 127.83 256.012 127.594 257.743 138.392C259.474 149.19 255.472 158.677 253.901 160.198C252.333 161.718 242.919 160.563 240.702 154.955C238.483 149.348 235.237 145.259 235.723 140.437C236.211 135.613 235.02 127.646 246.598 127.83Z" fill="#FED5B5"/>
<path d="M250.695 160.79C250.695 160.79 247.425 160.769 242.976 157.97C242.976 157.97 246.107 161.777 250.468 163.17C250.469 163.17 250.727 161.274 250.695 160.79Z" fill="#B2897C"/>
<path d="M297.279 179.47C297.279 179.798 295.925 181.73 293.892 184.416C293.81 184.521 293.722 184.633 293.642 184.744C287.728 192.506 276.572 206.025 275.398 206.039C272.902 206.072 269.8 202.441 267.433 199.007C267.433 199.007 267.554 198.438 268.308 192.216C269.046 186.16 266.458 182.112 266.312 181.895C266.878 183.243 267.259 184.666 267.207 186.165C267.062 190.266 265.416 192.936 265.102 194.429C265.053 194.642 265.026 194.893 265.01 195.178C265.01 195.178 265.01 195.183 265.01 195.188C264.246 193.899 263.793 193.029 263.793 193.029C263.793 193.029 253.953 182.818 252.648 174.931C253.457 173.704 253.398 172.134 253.005 170.637C252.359 168.169 250.798 165.908 250.677 165.734C251.47 166.044 254.132 167.045 256.103 167.135C256.281 167.145 256.468 167.179 256.658 167.241H256.662C256.703 167.255 256.734 167.27 256.779 167.285C257.668 167.594 263.459 169.762 266.091 174.259C268.95 179.142 270.157 184.407 271.138 187.382C271.138 187.382 274.103 193.56 274.925 193.005C275.745 192.449 279.726 187.072 282.991 184.552C286.255 182.036 289.811 176.061 289.811 176.061C289.811 176.061 290.032 176.119 290.399 176.225C291.684 176.592 294.733 177.514 296.301 178.447C296.893 178.798 297.279 179.146 297.279 179.47Z" fill="#FFBE55"/>
<path d="M264.904 202.721C264.554 206.132 263.703 222.373 264.293 226.982C264.33 227.269 264.236 227.534 264.022 227.778H229.803C231.241 224.942 234.393 218.376 234.412 215.279C234.428 213.903 235.142 209.591 232.705 206.52C231.424 204.901 230.144 198.043 227.91 193.832C227.113 192.212 226.181 190.677 225.308 189.371C224.064 190.991 223.023 192.43 222.343 193.727C222.339 193.73 222.339 193.738 222.335 193.742C220.646 196.94 211.177 207.78 209.062 208.822C207.193 209.739 205.994 210.411 203.464 205.418C201.159 200.872 195.505 184.697 194.306 181.239C194.161 180.819 194.079 180.587 194.079 180.587L198.913 177.113L199.403 176.759C199.403 176.759 202.106 182.121 204.135 186.092C206.151 190.044 205.576 188.568 207.477 193.032C207.477 193.032 212.276 186.274 213.413 183.652C214.159 181.934 217.587 173.763 222.335 169.622C223.769 168.367 225.327 167.481 226.966 167.256C227.394 167.197 227.829 167.182 228.267 167.217C229.958 166.623 231.501 166.363 233.458 166.184C233.827 166.153 234.212 166.122 234.616 166.09C236.143 165.982 237.464 165.783 238.512 165.585C238.512 165.585 238.645 166.249 238.948 167.256C239.745 169.956 241.739 175.131 245.569 176.648C246.649 177.075 247.878 177.21 249.264 176.919C250.996 176.554 252.053 175.839 252.647 174.93C253.954 182.818 263.792 193.028 263.792 193.028C263.792 193.028 264.245 193.899 265.009 195.188V195.192C264.904 196.9 265.203 199.807 264.904 202.721Z" fill="#FFBE55"/>
<path d="M258.496 144.828C258.314 143.846 255.639 142.65 253.871 141.331C251.734 139.735 250.832 137.526 250.812 135.648C250.812 135.648 251.38 143.977 242.976 145.034C238.449 145.601 238.587 151.783 238.587 151.783C238.816 152.538 239.085 153.299 239.388 154.06C239.636 154.456 239.87 154.83 240.093 155.185C240.556 155.672 241.058 156.157 241.599 156.634C248.63 162.836 250.929 170.839 245.747 175.684C245.626 175.797 245.503 175.904 245.382 176.007C246.554 179.405 244.905 183.048 241.759 184.878C239.374 186.267 238.359 187.894 238.282 189.408C238.382 189.505 238.483 189.6 238.594 189.694C240.946 191.692 241.875 194.367 238.836 196.116C238.736 196.191 238.631 196.249 238.52 196.289C239.387 194.628 236.403 193.788 236.403 193.788C233.489 192.926 228.784 186.464 233.534 181.613C238.675 176.364 235.651 168.57 230.766 162.129C225.881 155.688 226.256 143.262 231.893 135.051C238.356 125.632 248.315 126.518 252.27 129.422C258.613 130.63 259.852 137.524 258.496 144.828Z" fill="#0E538C"/>
<path d="M316.334 160.306C314.877 160.684 313.334 161.16 312.184 162.483C310.963 163.886 310.061 165.816 308.823 167.215C308.468 167.617 308.067 168.004 307.634 168.358C304.946 170.568 300.976 171.674 298.208 168.792C296.681 167.2 295.831 165.799 293.989 165.016C292.204 164.265 290.362 164.084 288.565 163.419C285.696 162.354 283.524 157.424 284.126 153.357C284.245 152.542 284.458 151.847 284.72 151.204C284.007 150.119 283.265 149.063 282.861 147.667C281.152 141.75 286.132 137.832 288.67 137.176C290.123 136.799 291.67 136.322 292.82 134.998C294.035 133.597 294.939 131.667 296.183 130.267C296.537 129.864 296.937 129.479 297.371 129.124C300.059 126.914 304.025 125.809 306.793 128.691C308.326 130.287 309.17 131.689 311.018 132.466C312.803 133.218 314.639 133.4 316.434 134.065C319.309 135.129 321.481 140.059 320.879 144.126C320.76 144.941 320.545 145.641 320.287 146.283C321 147.374 321.742 148.425 322.141 149.818C323.852 155.738 318.873 159.649 316.334 160.306Z" fill="#2A94F4"/>
<path fill-rule="evenodd" clip-rule="evenodd" d="M294.186 135.681C293.879 135.577 293.764 135.357 293.752 135.037C293.684 133.109 292.342 131.527 290.465 131.161C290.211 131.113 289.949 131.108 289.69 131.088C289.469 131.07 289.294 130.98 289.202 130.772C289.114 130.578 289.134 130.387 289.266 130.216C289.381 130.069 289.539 130.014 289.725 130.013C290.557 130.007 291.329 129.778 292.002 129.296C293.121 128.498 293.717 127.405 293.758 126.024C293.766 125.735 293.893 125.534 294.123 125.461C294.482 125.345 294.818 125.58 294.832 125.967C294.846 126.404 294.893 126.833 295.043 127.243C295.602 128.773 296.689 129.679 298.291 129.968C298.447 129.995 298.611 130.02 298.77 130.011C299.108 129.993 299.338 130.12 299.448 130.449C299.448 130.521 299.448 130.593 299.448 130.665C299.333 130.982 299.098 131.094 298.772 131.096C298.014 131.104 297.315 131.329 296.69 131.746C295.526 132.522 294.899 133.619 294.84 135.019C294.826 135.351 294.723 135.576 294.401 135.682C294.33 135.681 294.258 135.681 294.186 135.681Z" fill="#FFBE55"/>
<path fill-rule="evenodd" clip-rule="evenodd" d="M283.947 139.172C284.052 138.864 284.273 138.746 284.593 138.743C285.968 138.729 287.198 137.59 287.331 136.219C287.341 136.109 287.349 135.996 287.352 135.885C287.364 135.61 287.571 135.392 287.854 135.365C288.098 135.344 288.356 135.527 288.401 135.781C288.442 136 288.44 136.226 288.481 136.445C288.704 137.634 289.688 138.564 290.887 138.717C291.014 138.734 291.145 138.741 291.272 138.745C291.592 138.754 291.831 138.988 291.831 139.296C291.831 139.58 291.601 139.806 291.292 139.819C290.017 139.878 289.114 140.482 288.61 141.66C288.471 141.983 288.422 142.327 288.422 142.681C288.424 142.984 288.178 143.219 287.883 143.218C287.596 143.217 287.373 142.998 287.352 142.702C287.34 142.537 287.329 142.372 287.301 142.209C287.1 140.922 285.996 139.918 284.696 139.833C284.661 139.831 284.626 139.823 284.589 139.826C284.277 139.84 284.06 139.707 283.946 139.412C283.947 139.332 283.947 139.252 283.947 139.172Z" fill="#FFBE55"/>
<path fill-rule="evenodd" clip-rule="evenodd" d="M314.557 143.219C314.871 143.326 314.983 143.553 314.993 143.875C315.02 144.854 315.827 145.713 316.807 145.825C316.93 145.839 317.057 145.836 317.18 145.858C317.465 145.908 317.653 146.155 317.627 146.435C317.602 146.718 317.371 146.918 317.068 146.921C316.168 146.931 315.353 147.522 315.088 148.376C315.026 148.573 315 148.785 314.99 148.992C314.972 149.311 314.765 149.548 314.461 149.555C314.154 149.564 313.93 149.344 313.912 149.02C313.855 147.988 313.258 147.233 312.291 146.988C312.139 146.95 311.975 146.934 311.816 146.928C311.496 146.915 311.269 146.7 311.263 146.391C311.257 146.098 311.499 145.861 311.816 145.852C312.845 145.825 313.66 145.15 313.871 144.146C313.891 144.051 313.912 143.952 313.908 143.855C313.89 143.529 314.037 143.321 314.342 143.217C314.414 143.219 314.486 143.219 314.557 143.219Z" fill="#FFBE55"/>
<path d="M309.292 146.128C309.494 152.585 309.536 160.521 309.518 162.468C304.429 163.782 299.346 163.786 294.271 162.468C294.245 160.48 294.216 152.425 294.372 145.964C294.374 145.903 294.376 145.843 294.38 145.78C293.296 145.751 292.394 145.253 291.794 144.805C291.288 144.428 291 144.086 291 144.086C292.091 141.268 294.487 138.059 295.005 137.418H295.007C295.008 137.414 295.008 137.414 295.008 137.414C295.345 136.939 296.571 136.16 297.859 135.41C298.089 135.277 298.336 135.176 298.591 135.105C298.846 135.034 299.109 135 299.376 135C299.522 135 299.642 135.119 299.642 135.266V135.278C299.642 136.63 300.761 137.721 302.124 137.671C303.42 137.624 304.431 136.521 304.431 135.224C304.431 135.222 304.431 135.222 304.431 135.222C304.431 135.101 304.529 135.001 304.65 135.001C305.067 135.001 305.478 135.114 305.839 135.329C307.056 136.046 308.237 136.809 308.581 137.294C309.069 137.894 311.513 141.339 312.663 144.071C312.061 144.915 310.265 145.894 309.292 146.128Z" fill="#F7F7F7"/>
</svg>
