<svg width="372" height="372" viewBox="0 0 372 372" fill="none" xmlns="http://www.w3.org/2000/svg">
<path d="M351.609 110.498C346.924 102.541 339.381 96.2722 330.667 93.2066C326.912 91.8978 322.4 91.2778 319.334 93.7922C316.269 96.3066 317.337 102.748 321.298 102.644C309.07 94.1711 294.328 89.3833 279.448 89.0044C275.728 88.9011 271.491 89.3144 269.149 92.2078C266.772 95.1011 268.77 100.819 272.421 100.164C261.192 92.9655 246.381 95.17 233.809 99.6477C230.158 100.957 226.541 102.403 222.924 103.85C218.963 105.434 220.134 111.324 224.406 111.29L351.609 110.498Z" fill="#CCE9FF"/>
<path d="M32.0678 69.44C27.3833 70.5766 22.63 66.6844 23.6289 63.4122C24.6278 60.14 29.1745 57.9011 33.7556 56.5577C44.1233 53.5266 56.42 53.5611 66.7533 56.6611C64.3422 55.4211 64.5489 52.8033 66.4433 51.2533C68.3722 49.7033 71.4378 49.0144 74.4 48.6355C88.5222 46.8444 103.988 50.9777 112.289 58.8311C109.568 56.9022 111.049 53.4577 114.321 52.0111C117.593 50.5644 121.933 50.5644 125.826 51.0466C142.566 53.0444 156.757 59.1411 159.96 70.3011L32.0678 69.44Z" fill="#CCE9FF"/>
<path d="M24.4556 330.529C37.9233 304.627 52.7345 279.413 68.82 255.061C75.2956 245.245 82.5978 235.049 93.4822 230.537C103.023 226.576 114.183 227.747 123.587 232.087C132.956 236.427 140.74 243.695 147.181 251.789C152.727 258.712 158.651 267.048 167.503 267.771C176.941 268.563 184.416 260.297 190.237 252.788C209.353 228.16 228.47 203.498 247.587 178.87C253.924 170.707 261.743 161.786 272.042 161.82C281.273 161.854 288.748 169.157 294.5 176.39C328.256 218.722 341.413 273.386 353.641 326.086L24.4556 330.529Z" fill="#F7F7F7"/>
<path d="M336.66 281.446C350.281 281.446 361.322 270.404 361.322 256.783C361.322 243.163 350.281 232.121 336.66 232.121C323.039 232.121 311.998 243.163 311.998 256.783C311.998 270.404 323.039 281.446 336.66 281.446Z" fill="#CCEEFF"/>
<path d="M336.522 324.845C336.143 324.777 335.902 324.432 335.902 324.053V264.361C335.902 263.948 336.212 263.569 336.626 263.569C337.073 263.534 337.418 263.879 337.418 264.327V324.122C337.418 324.57 337.004 324.949 336.522 324.845Z" fill="#B6EAFF"/>
<path d="M336.66 269.321C336.453 269.321 336.281 269.252 336.109 269.114C335.799 268.804 335.799 268.322 336.109 268.047L342.86 261.295C343.17 260.985 343.652 260.985 343.928 261.295C344.238 261.605 344.238 262.088 343.928 262.363L337.211 269.114C337.039 269.252 336.867 269.321 336.66 269.321Z" fill="#B6EAFF"/>
<path d="M336.66 275.59C336.453 275.59 336.281 275.521 336.109 275.383C335.799 275.073 335.799 274.591 336.109 274.315L342.86 267.564C343.17 267.254 343.652 267.254 343.928 267.564C344.238 267.874 344.238 268.357 343.928 268.632L337.211 275.383C337.039 275.521 336.867 275.59 336.66 275.59Z" fill="#B6EAFF"/>
<path d="M53.5611 284.408C74.6578 284.408 91.76 267.306 91.76 246.209C91.76 225.112 74.6578 208.01 53.5611 208.01C32.4644 208.01 15.3622 225.112 15.3622 246.209C15.3622 267.306 32.4644 284.408 53.5611 284.408Z" fill="#B0E1FF"/>
<path d="M53.5611 321.677C53.0789 321.677 52.7 321.298 52.7 320.816V246.209C52.7 245.727 53.0789 245.348 53.5611 245.348C54.0433 245.348 54.4222 245.727 54.4222 246.209V320.781C54.4566 321.263 54.0433 321.677 53.5611 321.677Z" fill="#CCEEFF"/>
<path d="M53.5611 266.841C53.3544 266.841 53.1133 266.772 52.9411 266.6L42.2633 255.922C41.9189 255.578 41.9189 255.027 42.2633 254.682C42.6078 254.338 43.1589 254.338 43.5033 254.682L54.1811 265.395C54.5255 265.739 54.5255 266.29 54.1811 266.635C54.0089 266.772 53.8022 266.841 53.5611 266.841Z" fill="#CCEEFF"/>
<path d="M53.5611 276.796C53.3544 276.796 53.1133 276.727 52.9411 276.555L42.2633 265.877C41.9189 265.532 41.9189 264.981 42.2633 264.637C42.6078 264.292 43.1589 264.292 43.5033 264.637L54.1811 275.315C54.5255 275.659 54.5255 276.21 54.1811 276.555C54.0089 276.692 53.8022 276.796 53.5611 276.796Z" fill="#CCEEFF"/>
<path d="M30.8278 317.612H347.269C352.263 317.612 356.293 321.642 356.293 326.637V337.934C356.293 342.929 352.263 346.959 347.269 346.959H30.8278C25.8333 346.959 21.8033 342.929 21.8033 337.934V326.637C21.8033 321.677 25.8333 317.612 30.8278 317.612Z" fill="#F2F2F2"/>
<path d="M245.313 165.643C274.343 165.643 297.876 142.11 297.876 113.081C297.876 84.0518 274.343 60.5189 245.313 60.5189C216.284 60.5189 192.751 84.0518 192.751 113.081C192.751 142.11 216.284 165.643 245.313 165.643Z" stroke="#FFBE55" stroke-miterlimit="10"/>
<path d="M237.116 173.841C247.966 179.146 244.797 189.307 244.797 189.307C244.797 189.307 238.734 198.056 227.85 192.751C217 187.447 205.461 170.087 205.461 170.087C205.461 170.087 226.266 168.537 237.116 173.841Z" fill="#2A94F4"/>
<path d="M237.116 173.841C247.966 179.146 244.797 189.307 244.797 189.307L205.461 170.087C205.461 170.087 226.266 168.537 237.116 173.841Z" fill="#CCE9FF"/>
<path d="M254.407 230.709C243.557 236.013 246.726 246.174 246.726 246.174C246.726 246.174 252.788 254.923 263.672 249.619C274.522 244.314 286.061 226.954 286.061 226.954C286.061 226.954 265.291 225.404 254.407 230.709Z" fill="#2A94F4"/>
<path d="M254.407 230.709C243.557 236.013 246.726 246.174 246.726 246.174L286.061 226.954C286.061 226.954 265.291 225.404 254.407 230.709Z" fill="#CCE9FF"/>
<path d="M279.517 321.125C265.704 338.382 244.797 330.529 244.797 330.529C244.797 330.529 232.534 311.86 246.347 294.569C260.159 277.278 298.633 263.19 298.633 263.19C298.633 263.19 293.329 303.834 279.517 321.125Z" fill="#CCE9FF"/>
<path d="M279.517 321.125C265.704 338.382 244.797 330.529 244.797 330.529L298.633 263.19C298.633 263.19 293.329 303.834 279.517 321.125Z" fill="#2A94F4"/>
<path d="M211.351 321.125C225.163 338.382 246.071 330.529 246.071 330.529C246.071 330.529 258.333 311.86 244.521 294.569C230.709 277.312 192.234 263.19 192.234 263.19C192.234 263.19 197.539 303.834 211.351 321.125Z" fill="#CCE9FF"/>
<path d="M211.351 321.125C225.163 338.382 246.071 330.529 246.071 330.529L192.234 263.19C192.234 263.19 197.539 303.834 211.351 321.125Z" fill="#2A94F4"/>
<path d="M176.631 185.311L166.746 188.48L165.299 187.791L162.509 185.036L162.784 180.523L168.261 180.385L176.631 185.311Z" fill="#FCD2B1"/>
<path d="M143.702 127.444C143.702 127.444 140.327 166.436 168.227 180.386C167.09 181.729 162.406 183.864 162.406 183.864C162.406 183.864 135.091 167.297 136.056 148.903C137.02 130.51 143.702 127.444 143.702 127.444Z" fill="#1D87D6"/>
<path d="M90.83 305.212C90.83 305.212 94.4811 322.09 97.1678 329.702C97.4778 330.598 96.3411 331.321 95.6866 330.667C91.1744 326.223 84.9055 317.233 82.8389 315.167C80.2555 312.583 76.2944 307.761 76.2944 307.761L85.7666 299.426L92.0011 302.56L90.83 305.212Z" fill="#0B4870"/>
<path d="M124.723 317.612C124.723 317.612 139.776 326.017 147.284 329.082C148.18 329.461 147.973 330.77 147.009 330.839C140.706 331.287 129.787 330.047 126.893 330.219C123.277 330.46 117.008 330.219 117.008 330.219V317.612L123.483 314.994L124.723 317.612Z" fill="#083751"/>
<path d="M139.982 171.637C139.982 171.637 138.536 246.967 137.709 248.654C136.882 250.308 124.723 317.647 124.723 317.647H117.008C117.008 317.647 118.386 247.277 121.417 244.659C121.417 238.459 119.316 172.257 125.206 167.538C133.817 167.021 139.982 171.637 139.982 171.637Z" fill="#083751"/>
<path d="M113.873 164.369C102.748 172.567 100.509 210.869 111.841 240.457C104.436 253.752 82.2878 306.487 82.2878 306.487L88.8322 310.413C88.8322 310.413 133.989 248.31 132.267 241.903C130.544 235.497 133.817 166.987 133.817 166.987L113.873 164.369Z" fill="#0B4870"/>
<path d="M145.803 118.799C146.044 119.729 146.354 120.659 146.733 121.555C149.144 127.272 152.451 139.087 152.21 141.05C151.934 143.186 144.391 150.453 142.393 155.999C140.396 161.545 140.051 171.637 140.051 171.637L113.942 164.369C113.942 164.369 121.21 146.458 121.486 138.363C121.761 130.269 124.551 113.529 134.85 111.841C142.703 110.532 145.114 116.181 145.803 118.799Z" fill="#2A94F4"/>
<path d="M153.76 84.6299C154.242 83.4244 154.07 82.0466 153.312 80.9788C149.386 75.6399 142.324 72.6433 135.78 73.8144C128.512 75.1233 122.416 81.3921 121.313 88.6944C120.9 91.5188 121.141 94.4122 120.556 97.2022C119.867 100.474 117.972 103.505 115.32 105.538C112.013 108.087 107.742 109.051 104.057 111.049C100.337 113.081 97.2711 116.112 94.6533 119.453C92.0355 122.794 89.7622 126.549 89.0389 130.751C88.3156 134.953 89.3489 139.603 92.4833 142.462C94.4811 144.288 97.0644 145.218 99.6133 146.079C104.711 147.801 110.05 149.351 115.389 148.765C120.728 148.18 126.136 145.011 127.789 139.879C130.097 132.645 124.413 125.033 125.447 117.524C126.17 112.427 129.89 108.224 134.023 105.159C138.157 102.093 142.841 99.751 146.768 96.4444C149.696 93.9988 152.486 87.7299 153.76 84.6299Z" fill="#0B4870"/>
<path d="M146.699 106.261C145.39 108.948 144.184 116.009 145.321 119.006C146.354 121.968 145.976 122.45 145.976 122.45L134.506 113.047L137.158 100.13L146.699 106.261Z" fill="#FCD2B1"/>
<path d="M156.033 95.4112C156.033 102.059 154.311 108.844 148.8 108.844C143.289 108.844 136.056 102.059 136.056 95.4112C136.056 88.7634 140.533 83.3556 146.044 83.3556C151.556 83.3556 156.033 88.7634 156.033 95.4112Z" fill="#FFE3CA"/>
<path d="M155.448 82.1501C157.411 81.9779 158.754 84.079 157.79 85.7667C155.896 89.1767 152.52 92.5867 144.667 91.6223C141.084 91.1745 135.367 91.6223 135.022 94.0334L132.267 87.489C132.267 87.489 132.956 83.3556 133.644 83.3556C134.333 83.3556 141.153 83.3556 141.153 83.3556L155.448 82.1501Z" fill="#0B4870"/>
<path d="M140.533 90.9333C139.5 93 138.949 96.6855 137.571 97.3744C135.849 96.3755 133.713 91.1744 133.851 91.2088C133.989 91.2433 135.711 90.21 136.056 90.21C136.4 90.21 140.533 90.9333 140.533 90.9333Z" fill="#0B4870"/>
<path d="M137.946 100.677C138.918 100.24 139.136 98.6204 138.435 97.0588C137.733 95.4972 136.376 94.5853 135.405 95.022C134.433 95.4586 134.214 97.0785 134.916 98.6401C135.618 100.202 136.974 101.114 137.946 100.677Z" fill="#FFE3CA"/>
<path d="M137.054 102.851C138.044 102.851 138.846 102.049 138.846 101.06C138.846 100.071 138.044 99.2689 137.054 99.2689C136.065 99.2689 135.263 100.071 135.263 101.06C135.263 102.049 136.065 102.851 137.054 102.851Z" fill="#FFBE55"/>
<path d="M165.264 224.853L143.874 205.943C143.117 205.289 143.048 204.118 143.702 203.36L156.963 186.999C157.618 186.241 158.789 186.172 159.547 186.827L182.28 206.908C183.038 207.562 183.107 208.733 182.452 209.491L167.848 224.681C167.159 225.439 166.022 225.508 165.264 224.853Z" fill="#2A94F4"/>
<path d="M186.31 230.95L166.746 221.891L171.809 216.036L187.929 226.748L188.17 226.92L186.31 230.95Z" fill="#2A94F4"/>
<path d="M178.457 187.929C180.868 189.996 181.66 193.819 180.661 198.71L178.87 207.562L158.927 190.306L167.744 187.24C172.291 185.621 176.08 185.862 178.457 187.929ZM179.593 186.62C176.838 184.243 172.498 183.727 167.159 185.587L155.551 189.651L180.007 210.766L182.383 199.02C183.52 193.337 182.383 189.031 179.593 186.62Z" fill="#2A94F4"/>
<path d="M186.31 230.95C185.07 228.642 186.344 227.402 187.929 226.748L188.17 226.92L186.31 230.95Z" fill="#2286D1"/>
<path d="M128.96 121.244C128.478 136.882 134.816 176.976 146.699 192.786C148.731 191.718 150.936 190.512 150.936 190.512C150.936 190.512 135.78 155.654 140.637 126.377C141.153 122.76 140.637 120.177 139.534 118.386C136.641 113.529 129.132 115.63 128.96 121.244Z" fill="#49B0FC"/>
<path d="M146.699 192.82C146.699 192.82 150.109 199.881 150.936 200.639C151.728 201.397 157.583 204.531 159.237 205.151C160.89 205.737 156.998 202.189 156.998 202.189C156.998 202.189 160.029 204.118 161.441 204.876C161.648 204.979 161.82 204.738 161.682 204.566C160.614 203.291 157.997 201.224 157.997 201.224C157.997 201.224 162.096 203.67 163.921 204.634C164.128 204.738 164.3 204.497 164.162 204.324C162.853 203.084 159.891 200.777 159.374 200.501C161.544 201.431 163.094 202.327 164.059 202.774C164.197 202.843 164.3 202.671 164.197 202.568C162.302 200.846 154.242 195.128 153.829 195.024C152.176 194.646 150.626 190.719 150.626 190.719L146.699 192.82Z" fill="#FCD2B1"/>
<path d="M166.746 188.48L165.299 187.791L165.127 187.55C165.127 187.55 169.019 183.589 170.018 183.141C170.672 182.866 173.428 183.933 175.184 184.657C175.701 184.863 175.667 185.621 175.116 185.793C172.326 186.689 166.746 188.48 166.746 188.48Z" fill="#FFE4D2"/>
<path d="M246.312 141.636H244.314V330.942H246.312V141.636Z" fill="#2A94F4"/>
<path d="M208.044 65.2377C203.808 65.2377 200.398 68.6822 200.398 72.8844C200.398 68.6477 196.953 65.2377 192.751 65.2377C196.988 65.2377 200.398 61.7933 200.398 57.5911C200.363 61.7933 203.808 65.2377 208.044 65.2377Z" fill="#FFBE55"/>
<path d="M211.696 65.2377C205.427 65.2377 200.363 70.3011 200.363 76.57C200.363 70.3011 195.3 65.2377 189.031 65.2377C195.3 65.2377 200.363 60.1744 200.363 53.9055C200.363 60.1744 205.461 65.2377 211.696 65.2377Z" stroke="#FFBE55" stroke-miterlimit="10"/>
<path d="M308.312 127.445C305.867 127.445 303.869 129.442 303.869 131.853C303.869 129.408 301.871 127.445 299.46 127.445C301.906 127.445 303.869 125.447 303.869 123.036C303.869 125.447 305.867 127.445 308.312 127.445Z" fill="#FFBE55"/>
<path d="M310.413 127.444C306.797 127.444 303.869 130.372 303.869 133.989C303.869 130.372 300.941 127.444 297.324 127.444C300.941 127.444 303.869 124.517 303.869 120.9C303.869 124.517 306.797 127.444 310.413 127.444Z" stroke="#FFBE55" stroke-width="0.75" stroke-miterlimit="10"/>
<path d="M190.822 228.849L238.666 251.341" stroke="#CCE9FF" stroke-miterlimit="10" stroke-dasharray="12 12"/>
<path d="M188.17 233.258L219.17 292.433" stroke="#CCE9FF" stroke-miterlimit="10" stroke-dasharray="12 12"/>
<path d="M197.883 239.044L238.666 292.433" stroke="#CCE9FF" stroke-miterlimit="10" stroke-dasharray="12 12"/>
<path d="M207.321 242.937L239.768 267.461" stroke="#CCE9FF" stroke-miterlimit="10" stroke-dasharray="12 12"/>
<path d="M237.598 148.042H252.857V155.654C252.857 159.857 249.447 163.267 245.244 163.267C241.042 163.267 237.632 159.857 237.632 155.654V148.042H237.598Z" fill="#0E538C"/>
<path d="M245.313 155.861C268.94 155.861 288.093 136.708 288.093 113.081C288.093 89.4544 268.94 70.3011 245.313 70.3011C221.687 70.3011 202.533 89.4544 202.533 113.081C202.533 136.708 221.687 155.861 245.313 155.861Z" fill="#FFBE55"/>
<path d="M245.313 145.183C263.043 145.183 277.416 130.811 277.416 113.081C277.416 95.3517 263.043 80.979 245.313 80.979C227.584 80.979 213.211 95.3517 213.211 113.081C213.211 130.811 227.584 145.183 245.313 145.183Z" stroke="#F7F7F7" stroke-miterlimit="10"/>
<path d="M246.898 99.4756C249.791 100.027 251.513 102.197 251.513 105.641V106.192L247.518 106.571V105.951C247.518 104.022 246.829 103.127 245.313 103.127C244.073 103.127 243.212 103.884 243.212 105.434V105.951C243.212 107.467 244.039 108.741 246.726 111.187C250.411 114.597 251.686 116.801 251.686 119.763V120.418C251.686 123.862 249.826 125.963 246.898 126.48V129.339H243.626V126.48C240.732 125.86 238.907 123.69 238.907 120.314V118.764L242.902 118.386V120.039C242.902 121.968 243.694 122.863 245.313 122.863C246.519 122.863 247.587 122.106 247.587 120.556V119.97C247.587 118.454 246.76 117.18 244.073 114.734C240.388 111.324 239.113 109.12 239.113 106.158V105.572C239.113 102.162 240.801 100.061 243.66 99.51V97.0645H246.932V99.4756H246.898Z" fill="#F7F7F7"/>
</svg>
