<svg xmlns="http://www.w3.org/2000/svg" width="122" height="99" viewBox="0 0 122 99">
    <g fill="none" fill-rule="evenodd">
        <path fill="#F6F9FD" fill-rule="nonzero" d="M17.087 98.568S3.377 93.254.727 82.748c-2.171-8.598.549-19.522 11.41-26.125C23 50.02 34.276 47.961 31.802 36.136 29.327 24.311 28.09 12.76 42.94 7.944c14.85-4.817 25.776-2.062 32.38-4.95 6.603-2.887 15.607-5.912 26.057 3.304 10.45 9.217 2.13 28.737 1.924 30.179-.206 1.44-3.208 16.064 6.141 25.689 9.35 9.625 13.188 18.115 11.459 25.939-1.664 7.545-5.982 10.443-10.822 10.463-6.05.01-92.99 0-92.99 0z"/>
        <path fill="#6997F5" fill-rule="nonzero" d="M112.207 89.02c1.224-.367 2.5-.623 3.617-1.246 1.117-.622 2.075-1.722 2.107-3 .033-1.277-1.217-2.554-2.45-2.215-.497.136-1.103.47-1.458.089s.014-.94.418-1.213c.661-.447 1.459-.608 2.23-.825.772-.217 1.559-.535 2.029-1.177s.455-1.694-.22-2.119c-.25-.162-.567-.217-.776-.43-.351-.354-.23-.972.08-1.368.31-.395.758-.648 1.115-.997 1.255-1.232.914-3.657-.63-4.495-1.545-.838-3.765.198-4.112 1.92-.108.536-.063 1.102-.258 1.61-.194.51-.778.944-1.267.707-.49-.236-.522-.932-.811-1.397-.496-.773-1.738-.736-2.414-.115-.676.62-.888 1.602-.905 2.52-.016.917.125 1.84 0 2.755-.043.324-.171.688-.486.767-.5.127-.763-.543-1.026-.987-.63-1.059-2.27-1.124-3.254-.384-.984.739-1.422 2.008-1.592 3.229-.275 1.97 0 3.954.324 5.901.305 1.885.313 3.909.694 5.758.537 2.594 2.48.073 3.682-.736a19.94 19.94 0 0 1 5.363-2.553z"/>
        <path stroke="#4D81EC" stroke-linecap="round" d="M106.187 80.602c0-.083.13-.063.125.016-.162 4.053-.846 8.01-2.179 11.835a118.107 118.107 0 0 1 7.009-11.292v-.008c.24-1.603.307-3.228.196-4.846 0-.08.12-.095.125-.014a22.44 22.44 0 0 1-.162 4.641 116.014 116.014 0 0 1 4.985-6.566c.052-.063.15.015.099.078a119.723 119.723 0 0 0-3.43 4.418l2.635-.885c.076-.026.124.09.046.117l-2.802.935h-.02a117.955 117.955 0 0 0-5.524 8.2 38.472 38.472 0 0 1 6.755-2.785c.078-.025.125.092.047.116a38.529 38.529 0 0 0-6.932 2.881c-.516.846-1.023 1.696-1.519 2.552a120.92 120.92 0 0 0-2.545 4.65c-.037.071-.153.02-.115-.05.253-.488.51-.974.771-1.46a.055.055 0 0 1 0-.035c1.505-4.026 2.25-8.215 2.435-12.498z"/>
        <path fill="#6997F5" fill-rule="nonzero" d="M17.413 93.03c-.639-.344-1.32-.632-1.87-1.107-.552-.475-.957-1.195-.828-1.91.13-.715.973-1.282 1.622-.953.26.133.56.389.797.217.237-.172.1-.527-.094-.725-.324-.324-.745-.506-1.146-.715-.4-.209-.81-.475-.994-.887-.183-.411-.06-.995.363-1.154.163-.058.343-.057.487-.149.236-.162.24-.517.113-.772-.126-.254-.348-.447-.506-.682-.557-.829-.09-2.14.866-2.432.957-.292 2.072.542 2.069 1.54 0 .31-.093.621-.042.926.05.305.324.614.625.538.302-.076.396-.459.616-.684.364-.373 1.051-.21 1.356.212.305.422.311.994.215 1.506-.095.513-.28 1.01-.314 1.53-.011.184.018.405.183.487.263.128.486-.215.684-.431.472-.519 1.391-.366 1.855.162.464.529.56 1.28.515 1.98-.07 1.134-.452 2.2-.85 3.242-.387 1.013-.623 2.14-1.046 3.126-.597 1.386-1.388-.244-1.967-.832a11.27 11.27 0 0 0-2.709-2.033z"/>
        <path stroke="#4D81EC" stroke-linecap="round" d="M21.724 89.035c.008-.045-.065-.05-.071 0a23.227 23.227 0 0 0-.143 6.835 67.072 67.072 0 0 0-2.607-7.088c.05-.92.2-1.83.446-2.718.013-.046-.055-.068-.068-.023-.236.85-.384 1.722-.441 2.602a48.813 48.813 0 0 0-.675-1.498c-.432-.92-.881-1.83-1.347-2.728-.02-.04-.086 0-.065.032.492.938.96 1.889 1.404 2.852l-1.37-.798c-.039-.024-.08.036-.039.06l1.46.845h.01a67.588 67.588 0 0 1 2.136 5.187 21.936 21.936 0 0 0-3.442-2.323c-.04-.022-.08.038-.039.06a21.964 21.964 0 0 1 3.526 2.4c.192.53.376 1.06.553 1.595.316.953.61 1.913.884 2.88.013.043.082.028.071-.016a98.154 98.154 0 0 0-.263-.9v-.02c-.355-2.401-.328-4.843.08-7.236z"/>
        <path fill="#AFCDF9" fill-rule="nonzero" d="M106.414 95.488c.649.162 1.297.39 1.975.408.678.018 1.404-.22 1.76-.793.357-.572.137-1.486-.513-1.665-.263-.07-.628-.082-.683-.35-.055-.267.261-.421.517-.437.419-.025.827.12 1.234.227.407.107.85.176 1.235.013.386-.164.663-.649.472-1.02a1.962 1.962 0 0 1-.237-.404c-.064-.256.163-.504.404-.6.242-.095.519-.089.775-.152.9-.22 1.398-1.41.924-2.207-.473-.796-1.76-.924-2.381-.236-.193.214-.325.486-.55.661-.225.175-.608.217-.767-.02-.159-.24.016-.565 0-.855-.018-.487-.59-.801-1.063-.702-.474.099-.835.486-1.09.898-.254.412-.437.869-.74 1.247-.106.133-.263.265-.427.217-.261-.076-.2-.452-.2-.723 0-.649-.726-1.12-1.37-1.05-.646.069-1.186.528-1.591 1.035-.649.81-1.065 1.793-1.446 2.756-.37.937-.91 1.858-1.236 2.798-.457 1.325 1.104.7 1.868.659 1.052-.06 2.108.04 3.13.295z"/>
        <path stroke="#6AA5FE" stroke-linecap="round" stroke-linejoin="round" stroke-width=".87" d="M105.95 90.049c.023-.036.074 0 .051.042a21.539 21.539 0 0 1-4.173 4.776 62.416 62.416 0 0 1 6.217-3.233 11.888 11.888 0 0 0 1.396-2.145c.02-.037.08-.011.06.028a11.79 11.79 0 0 1-1.323 2.06c.464-.207.93-.41 1.4-.606a57.912 57.912 0 0 1 2.629-1.03.034.034 0 0 1 .023.064 62.5 62.5 0 0 0-2.745 1.078l1.438.308c.042.01.032.076-.01.066l-1.524-.324a61.05 61.05 0 0 0-4.713 2.23c1.286.064 2.562.25 3.812.555.042.01.032.077-.01.067a20.21 20.21 0 0 0-3.917-.561 60.271 60.271 0 0 0-3.78 2.17c-.036.023-.075-.03-.04-.053.247-.153.495-.305.743-.454a.034.034 0 0 1 .01-.016 21.336 21.336 0 0 0 4.455-5.022z"/>
        <path fill="#6997F5" fill-rule="nonzero" d="M26.425 70.33a17.79 17.79 0 0 0-.034 10.91l-.212-.3a49.795 49.795 0 0 0-2.21-2.93c.94-5.144-1.143-10.084-1.143-10.084-.655 3.22-.386 6.56.775 9.633a65.63 65.63 0 0 0-2.091-2.41c.305-4.712-1.874-8.864-1.874-8.864a16.518 16.518 0 0 0 1.543 8.507 48.604 48.604 0 0 0-.395-.422l-.022-.01a48.617 48.617 0 0 0-1.799-1.796c.306-4.388-1.728-8.268-1.728-8.268a15.173 15.173 0 0 0 1.535 8.083c-.534-.5-1.074-.99-1.621-1.468-.289-.25-.58-.497-.872-.74a12.69 12.69 0 0 0-2.215-5.298c.39 2.719 1.529 4.484 2.012 5.13a38.33 38.33 0 0 0-3.156-2.362 11.582 11.582 0 0 0-5.243-3.3s2.26 2.748 5.575 3.773c.676.472 1.344.973 2.002 1.504a5.423 5.423 0 0 0-4.552.133s2.432 1.05 4.683-.026c.561.453 1.115.92 1.662 1.403.324.292.649.59.983.891a7.072 7.072 0 0 0-5.924.174s3.148 1.363 6.082-.026c.667.621 1.321 1.263 1.962 1.924a8.82 8.82 0 0 0-7.034.352s3.805 1.65 7.412.042c.41.433.814.876 1.214 1.33.467.53.927 1.07 1.381 1.62-.93-.533-4.518-2.31-8.905-.883 0 0 4.504 2.466 9.046 1.056a50.563 50.563 0 0 1 2.67 3.527l.057.081c-1.185-.805-4.884-2.913-9.712-2.102 0 0 4.735 3.187 9.94 2.418l.21.3c.08.117.162.232.241.35l.23.36.917 1.438c.324.474.583.973.869 1.46l.847 1.478.307-.144-.866-1.492c-.292-.486-.566-1-.887-1.477l-.935-1.449-.238-.363a8.617 8.617 0 0 0-.248-.352l-.065-.094c1.734-5.465-.174-11.217-.174-11.217zM106.789 74.234a6.775 6.775 0 0 0-4.113.622l.1-.098c.34-.325.664-.659.973-1.002 1.994.055 3.729-1.018 3.729-1.018a6.635 6.635 0 0 0-3.585.852c.22-.246.432-.496.649-.749l.146-.18c1.793-.162 3.23-1.22 3.23-1.22a6.282 6.282 0 0 0-3.115 1.076l.136-.173v-.008c.198-.258.388-.52.572-.783 1.67-.14 3.014-1.135 3.014-1.135a5.788 5.788 0 0 0-2.957 1.049c.162-.23.311-.462.459-.696.078-.123.162-.246.229-.371.7-.232 1.339-.62 1.867-1.135a4.316 4.316 0 0 0-1.816 1.055c.258-.43.493-.872.706-1.326a4.411 4.411 0 0 0 .938-2.167s-.903 1.011-1.097 2.32c-.138.282-.289.562-.45.841a2.065 2.065 0 0 0-.324-1.707s-.254.973.283 1.764a20.09 20.09 0 0 1-.71 1.13 2.691 2.691 0 0 0-.41-2.223s-.325 1.266.364 2.29c-.196.288-.399.572-.611.852a3.364 3.364 0 0 0-.543-2.63s-.399 1.53.416 2.795c-.139.18-.283.359-.43.535-.173.206-.35.412-.53.615a4.3 4.3 0 0 0-.184-3.405s-.666 1.842.128 3.471a19.21 19.21 0 0 1-1.174 1.211l-.027.026a5.236 5.236 0 0 0 .228-3.784s-.925 1.97-.334 3.891l-.1.097-.117.112-.123.107-.487.428c-.162.148-.334.278-.502.414l-.508.405.073.107.511-.412c.162-.14.345-.272.506-.421l.486-.436.123-.109c.041-.037.078-.076.119-.115l.03-.03c2.171.325 4.232-.732 4.232-.732z"/>
        <path fill="#E9F1FD" fill-rule="nonzero" d="M30.663 66.877s11.415-50.542 19.483-46.528c8.069 4.014 9.625 38.224 9.625 38.224s3.436-37.515 15.484-44.493c5.417-3.137 25.367-4.919 21.205 22.429-3.242 21.246 2.432 29.416 2.432 29.416" opacity=".6"/>
        <path fill="#BBD4FD" fill-rule="nonzero" d="M20.829 55.23h84.569v38.422H20.829z"/>
        <path fill="#8AB7F9" fill-rule="nonzero" d="M20.829 55.23h84.569v3.051H20.829z"/>
        <path fill="#557DE2" fill-rule="nonzero" d="M105.396 52.945H20.827l6.586-15.588h71.4z"/>
        <path fill="#134DA3" fill-rule="nonzero" d="M17.071 52.839h91.008v2.391H17.071z"/>
        <path fill="#AFCDF9" fill-rule="nonzero" d="M80.92 93.652H45.306V63.85l18.285-9.937 17.329 8.96z"/>
        <path fill="#557DE2" fill-rule="nonzero" d="M43.269 66.566h2.994v27.087h-2.994zM79.999 66.566h2.994v27.087h-2.994z"/>
        <path fill="#134DA3" fill-rule="nonzero" d="M57.02 73.594h12.185v20.109H57.02z"/>
        <path fill="#E3AD4E" fill-rule="nonzero" d="M58.246 74.821h9.732v18.884h-9.732z"/>
        <path fill="#F9CC3D" fill-rule="nonzero" d="M67.355 84.833a1.023 1.023 0 1 1-2.046.003 1.023 1.023 0 0 1 2.046-.003z"/>
        <path fill="#134DA3" fill-rule="nonzero" d="M54.682 72.092h16.86v1.258a.243.243 0 0 1-.242.244H54.926a.243.243 0 0 1-.244-.244v-1.258z"/>
        <path fill="#CAE6FE" fill-rule="nonzero" d="M59.572 76.205h3.002v6.113h-3.002z"/>
        <path fill="#FEFDFF" fill-rule="nonzero" d="M62.576 76.448v1.808l-3.004 3.003v-1.81z"/>
        <path fill="#000" fill-rule="nonzero" d="M59.572 76.205h3.002v1h-3.002z" opacity=".2"/>
        <path fill="#CAE6FE" fill-rule="nonzero" d="M63.81 76.205h3.002v6.113H63.81z"/>
        <path fill="#FEFDFF" fill-rule="nonzero" d="M66.812 76.448v1.808L63.81 81.26v-1.81z"/>
        <path fill="#000" fill-rule="nonzero" d="M63.81 76.205h3.002v1H63.81z" opacity=".2"/>
        <path fill="#134DA3" fill-rule="nonzero" d="M17.598 49.597h89.954c.291 0 .527.236.527.527v2.727H17.071v-2.727c0-.291.236-.527.527-.527z"/>
        <path fill="#2F65D1" fill-rule="nonzero" d="M89.908 66.593l-4.877-.013-5.071-.014-16.847-11.358-16.848 11.358-5.07.014-4.879.013L63.113 48.53z"/>
        <path fill="#134DA3" fill-rule="nonzero" d="M85.031 66.58l-5.071-.014-16.847-11.358-16.848 11.358-5.07.014 21.918-14.777z"/>
        <path fill="#CAE6FE" fill-rule="nonzero" d="M29.267 71.786h7.182V85.19h-7.182z"/>
        <path fill="#FEFDFF" fill-rule="nonzero" d="M36.449 71.788h-2.53l-4.632 4.631v3.784l7.162-7.162zM36.449 77.455l-7.162 7.164v.57h1.318l5.844-5.842z"/>
        <path fill="#134DA3" fill-rule="nonzero" d="M28.286 70.805v15.366h8.163V70.805h-8.163zm.981.981h6.183v6.193h-6.183v-6.193zm0 13.404v-6.196h6.183v6.196h-6.183z"/>
        <path fill="#000" fill-rule="nonzero" d="M28.286 70.889h8.163v1.582h-8.163z" opacity=".2"/>
        <path fill="#0A4489" fill-rule="nonzero" d="M26.704 69.565h11.327v1.04c0 .112-.09.202-.2.202H26.91a.201.201 0 0 1-.2-.201v-1.041h-.007z"/>
        <path fill="#8AB7F9" fill-rule="nonzero" d="M28.286 86.171h8.164v1.573h-8.164z"/>
        <path fill="#CAE6FE" fill-rule="nonzero" d="M92.471 71.786h7.182V85.19h-7.182z"/>
        <path fill="#FEFDFF" fill-rule="nonzero" d="M99.652 71.788h-2.53l-4.632 4.631v3.784l7.162-7.162zM99.652 77.455L92.49 84.62v.57h1.32l5.842-5.842z"/>
        <path fill="#134DA3" fill-rule="nonzero" d="M91.49 70.805v15.366h8.162V70.805H91.49zm.973.981h6.183v6.193H92.47l-.008-6.193zm0 13.404v-6.196h6.183v6.196h-6.183z"/>
        <path fill="#000" fill-rule="nonzero" d="M91.49 70.889h8.163v1.582H91.49z" opacity=".2"/>
        <path fill="#0A4489" fill-rule="nonzero" d="M89.908 69.565h11.327v1.04c0 .112-.09.202-.201.202H90.109a.201.201 0 0 1-.201-.201v-1.041z"/>
        <path fill="#8AB7F9" fill-rule="nonzero" d="M91.49 86.171h8.164v1.573H91.49z"/>
        <rect width="68.153" height="1.417" x="29.267" y="39.041" fill="#2F65D1" fill-rule="nonzero" rx=".708"/>
        <rect width="70.478" height="1.417" x="27.844" y="42.765" fill="#2F65D1" fill-rule="nonzero" rx=".708"/>
        <rect width="75.515" height="1.417" x="25.72" y="46.489" fill="#2F65D1" fill-rule="nonzero" rx=".708"/>
        <path fill="#134DA3" fill-rule="nonzero" d="M32.367 32.437h9.443V43.09h-9.443z"/>
        <path fill="#0A4489" fill-rule="nonzero" d="M32.367 32.437h9.443v2.737h-9.443z"/>
        <path fill="#134DA3" fill-rule="nonzero" d="M43.783 28.831v1.266a2.341 2.341 0 0 1-2.34 2.338h-8.708a2.341 2.341 0 0 1-2.34-2.338v-1.266h13.388z"/>
        <path fill="#134DA3" fill-rule="nonzero" d="M43.72 30.64a2.34 2.34 0 0 1-2.27 1.801h-8.715a2.34 2.34 0 0 1-2.27-1.8H43.72z"/>
        <rect width="89.249" height="2.383" x="18.436" y="93.652" fill="#134DA3" fill-rule="nonzero" rx="1.19"/>
        <rect width="93.712" height="2.383" x="16.204" y="95.998" fill="#0A4489" fill-rule="nonzero" rx="1.19"/>
        <path fill="#557DE2" fill-rule="nonzero" d="M46.265 66.593v3.62l17.08-10.993 16.654 10.993-.039-3.62-16.847-11.356z"/>
    </g>
</svg>
