<svg xmlns="http://www.w3.org/2000/svg" xmlns:xlink="http://www.w3.org/1999/xlink" width="488" height="321" viewBox="0 0 488 321">
    <defs>
        <path id="a" d="M0 390.51h504.01V.255H0z"/>
        <path id="c" d="M0 390.745h504.01V.49H0z"/>
    </defs>
    <g fill="none" fill-rule="evenodd" transform="translate(-16 -70)">
        <g transform="translate(0 .236)">
            <path fill="#F3F8FF" d="M126.507 144.876l48.231-36.936v280.026h-48.23z"/>
            <path fill="#E3EEFF" d="M199.77 126.843l-25.031-18.904v280.026h25.031z"/>
            <mask id="b" fill="#fff">
                <use xlink:href="#a"/>
            </mask>
            <path fill="#F3F8FF" d="M196.793 387.967h68.625V180.719h-68.625z" mask="url(#b)"/>
            <path fill="#E3EEFF" d="M265.418 387.967h35.617V180.719h-35.617z" mask="url(#b)"/>
            <path fill="#F3F8FF" d="M206.028 180.72h59.392v-17.922h-59.392z" mask="url(#b)"/>
            <path fill="#E3EEFF" d="M206.028 180.72h59.392v-4.025h-59.392zM265.42 180.72h26.382v-17.922H265.42z" mask="url(#b)"/>
            <path fill="#F3F8FF" d="M215.262 162.796h50.156v-17.923h-50.156z" mask="url(#b)"/>
            <path fill="#E3EEFF" d="M215.262 162.796h50.156v-4.024h-50.156zM265.418 162.796h17.148v-17.923h-17.148zM247.25 144.873h3.329v-25.05h-3.33z" mask="url(#b)"/>
            <path fill="#F3F8FF" d="M289.666 387.967h50.113v-175.89h-50.113z" mask="url(#b)"/>
            <path fill="#E3EEFF" d="M339.779 387.967h26.008v-175.89h-26.008z" mask="url(#b)"/>
            <path fill="#F3F8FF" d="M54.766 190.401l38.003-9.818v207.383H54.766z" mask="url(#b)"/>
            <path fill="#E3EEFF" d="M92.77 387.967h19.724V180.584H92.77z" mask="url(#b)"/>
            <path fill="#F3F8FF" d="M379.542 387.965h34.614V212.471h-34.614z" mask="url(#b)"/>
            <path fill="#E3EEFF" d="M432.12 258.511l-17.965-46.04v175.496h17.965z" mask="url(#b)"/>
            <path fill="#F3F8FF" d="M421.709 387.967h28.26V254.168h-28.26z" mask="url(#b)"/>
            <path fill="#E3EEFF" d="M464.634 282.771l-14.666-28.603v133.798h14.666z" mask="url(#b)"/>
        </g>
        <path fill="#E6F0FF" d="M504.01 388.202H97.63s87.693-22.085 129.865-41.928c42.174-19.843 49.556-11.18 74.437 3.15 24.88 14.332 48.664 14.119 83.248-1.469 84.501-38.085 82.8 26.762 118.83 40.247"/>
        <path fill="#D1E3FF" d="M15.771 388.202h435.065s-25.721-.073-76.798-19.915c-51.074-19.843-71.652-17.637-101.784-3.307-30.13 14.33-35.632-14.455-110.238-30.743-92.842-20.271-108.213 53.965-146.245 53.965"/>
        <path fill="#6997F5" d="M67.607 378.355c-2.164-.85-4.44-1.507-6.368-2.805-1.928-1.299-3.5-3.435-3.358-5.754.14-2.322 2.592-4.447 4.776-3.646.882.32 1.931 1.02 2.62.382.65-.602.113-1.707-.577-2.263-1.13-.909-2.563-1.322-3.918-1.833-1.355-.51-2.743-1.203-3.498-2.44-.756-1.235-.568-3.139.718-3.805.48-.249 1.061-.31 1.473-.662.69-.59.564-1.733.064-2.49-.501-.76-1.278-1.291-1.87-1.978-2.088-2.422-1.105-6.767 1.822-8.052 2.927-1.286 6.79.929 7.162 4.103.116.984-.054 2.005.222 2.956.274.952 1.267 1.829 2.19 1.474.938-.36 1.087-1.611 1.697-2.408 1.015-1.327 3.26-1.07 4.391.155 1.133 1.226 1.368 3.037 1.26 4.702-.11 1.665-.506 3.32-.412 4.984.031.586.209 1.275.763 1.464.886.307 1.465-.87 2.01-1.632 1.3-1.826 4.28-1.695 5.956-.206 1.673 1.49 2.271 3.858 2.396 6.095.2 3.611-.6 7.168-1.465 10.646-.838 3.372-1.16 7.04-2.13 10.335-1.365 4.634-4.503-.244-6.562-1.891a36.227 36.227 0 0 0-9.362-5.431"/>
        <path stroke="#4D81EC" stroke-linecap="round" d="M79.797 364.009c.007-.15-.222-.135-.228.013-.303 7.36.32 14.646 2.16 21.772a214.989 214.989 0 0 0-10.996-21.526c.002-.006.002-.01.002-.016a40.624 40.624 0 0 1 .378-8.81c.021-.147-.202-.194-.226-.047a41.1 41.1 0 0 0-.407 8.44 214.712 214.712 0 0 0-2.716-4.505 219.125 219.125 0 0 0-5.325-8.153c-.084-.122-.275.006-.191.128a214.44 214.44 0 0 1 5.55 8.524c-1.554-.67-3.106-1.341-4.657-2.012-.136-.058-.239.146-.103.204 1.644.713 3.288 1.422 4.932 2.133a.167.167 0 0 0 .034.01 214.405 214.405 0 0 1 8.776 15.697 70.204 70.204 0 0 0-11.824-6.07c-.135-.054-.238.15-.101.206a70.196 70.196 0 0 1 12.125 6.265 208.35 208.35 0 0 1 2.365 4.855 214.143 214.143 0 0 1 3.91 8.811c.057.134.276.063.22-.074-.387-.923-.782-1.842-1.18-2.76a.107.107 0 0 0 .003-.066c-2.104-7.523-2.821-15.227-2.501-23.02z"/>
        <path fill="#6997F5" d="M70.404 345.651c-1.964-1.246-4.073-2.32-5.722-3.96-1.647-1.641-2.787-4.033-2.207-6.286.577-2.252 3.386-3.875 5.379-2.676.805.484 1.704 1.368 2.5.871.752-.466.435-1.654-.138-2.33-.936-1.107-2.265-1.783-3.5-2.542-1.235-.757-2.465-1.7-2.973-3.058-.507-1.357.037-3.19 1.425-3.601.52-.154 1.103-.105 1.573-.37.788-.45.882-1.596.533-2.436-.347-.84-1.007-1.506-1.46-2.295-1.592-2.772.196-6.852 3.313-7.56 3.117-.71 6.492 2.197 6.255 5.385-.073.989-.432 1.957-.342 2.944.09.988.898 2.036 1.875 1.862.988-.176 1.371-1.376 2.12-2.045 1.247-1.11 3.403-.434 4.283.987.88 1.417.767 3.24.346 4.854-.424 1.614-1.124 3.163-1.35 4.817-.078.579-.033 1.29.473 1.582.813.468 1.604-.577 2.284-1.224 1.623-1.546 4.523-.853 5.886.927 1.362 1.78 1.5 4.217 1.2 6.438-.486 3.584-1.947 6.923-3.455 10.178-1.461 3.151-2.473 6.691-4.049 9.744-2.219 4.292-4.374-1.094-6.085-3.1a36.252 36.252 0 0 0-8.164-7.106"/>
        <path stroke="#4D81EC" stroke-linecap="round" d="M85.091 333.873c.033-.145-.195-.173-.228-.032-1.692 7.171-2.458 14.443-2.002 21.789a214.558 214.558 0 0 0-6.719-23.22l.003-.014a40.712 40.712 0 0 1 2.04-8.581c.05-.139-.162-.227-.211-.088a40.957 40.957 0 0 0-1.999 8.208 214.344 214.344 0 0 0-5.5-13.95c-.06-.135-.27-.044-.211.09 1.353 3.11 2.63 6.253 3.835 9.421-1.399-.952-2.795-1.906-4.192-2.857-.122-.083-.26.099-.138.182 1.478 1.01 2.958 2.018 4.438 3.027.01.008.021.012.032.017a213.457 213.457 0 0 1 5.644 17.075 70.186 70.186 0 0 0-10.46-8.2c-.124-.079-.262.103-.139.184a70.06 70.06 0 0 1 10.72 8.446 209.976 209.976 0 0 1 3.574 14.607c.03.143.258.115.228-.031-.204-.98-.417-1.956-.633-2.933a.11.11 0 0 0 .013-.064c-.642-7.785.115-15.485 1.905-23.076z"/>
        <path fill="#6997F5" d="M155.553 347.996c-5.91 11.247-4.85 22.101-4.29 25.592l-.382-.784a119.196 119.196 0 0 0-4.056-7.73c4.193-11.708 1.21-24.109 1.21-24.109-3.878 10.107-2.693 19.153-1.902 22.906a166.39 166.39 0 0 0-3.195-5.242c-.258-.41-.52-.812-.783-1.216 2.537-10.945-.976-21.53-.976-21.53-2.395 9.529-.623 17.397.34 20.561-.255-.381-.509-.764-.766-1.143l.017-.004-.041-.032a124.947 124.947 0 0 0-3.531-4.91c2.413-10.18-.868-20.067-.868-20.067-2.37 9.418-.335 17.088.483 19.565a137.216 137.216 0 0 0-3.227-4.07c-.581-.7-1.167-1.39-1.76-2.074.07-7.366-3.152-13.289-3.152-13.289-.139 6.53 1.858 11.115 2.742 12.815-2.088-2.39-4.245-4.663-6.497-6.76-1.422-2.235-4.895-6.793-11.031-9.77 0 0 4.243 7.322 11.629 11.007a89.09 89.09 0 0 1 4.118 4.304c-1.239-.81-5.372-3.08-10.736-1.446 0 0 5.288 3.4 11.004 1.747a122.15 122.15 0 0 1 3.355 3.93 146.07 146.07 0 0 1 1.965 2.476c-1.62-1.056-7.004-4.002-13.972-1.882 0 0 6.862 4.416 14.288 2.288a125.748 125.748 0 0 1 3.86 5.275c-2.635-1.531-8.843-4.263-16.646-1.889 0 0 8.293 5.34 17.38 2.959a112.34 112.34 0 0 1 2.337 3.589c.89 1.425 1.763 2.87 2.617 4.327-1.98-1.611-9.71-7.165-20.557-5.512 0 0 9.617 7.527 20.825 5.971 1.753 3.021 3.408 6.117 4.902 9.307l.106.214c-2.478-2.325-10.356-8.725-21.996-8.69 0 0 9.882 9.309 22.393 9.515l.378.785c.145.306.297.607.434.915l.4.933 1.596 3.73c.557 1.232.994 2.512 1.474 3.775l1.419 3.798.776-.224-1.457-3.833c-.494-1.273-.94-2.567-1.513-3.81l-1.635-3.76-.407-.941c-.142-.312-.298-.614-.446-.921l-.119-.245c6.17-12.16 3.893-26.4 3.893-26.4M388.763 361.002c4.832-1.45 9.87-2.457 14.275-4.916 4.404-2.46 8.188-6.79 8.3-11.836.113-5.044-4.802-10.082-9.669-8.746-1.963.538-4.36 1.858-5.734.354-1.296-1.419.063-3.71 1.656-4.79 2.604-1.76 5.78-2.392 8.803-3.255 3.023-.86 6.147-2.11 8.003-4.646 1.857-2.537 1.796-6.684-.865-8.357-.993-.626-2.239-.862-3.063-1.698-1.386-1.401-.909-3.848.31-5.399 1.22-1.55 2.993-2.557 4.403-3.939 4.95-4.857 3.609-14.428-2.488-17.738-6.096-3.31-14.854.782-16.23 7.58-.424 2.108-.244 4.345-1.013 6.354-.766 2.008-3.069 3.724-5.005 2.789-1.963-.948-2.057-3.682-3.232-5.516-1.954-3.05-6.856-2.904-9.525-.455-2.67 2.447-3.504 6.321-3.57 9.942-.064 3.622.493 7.266-.009 10.852-.177 1.258-.684 2.714-1.915 3.027-1.97.502-3.013-2.145-4.051-3.894-2.484-4.183-8.952-4.436-12.841-1.516-3.892 2.92-5.609 7.928-6.282 12.743-1.089 7.773.004 15.606 1.244 23.288 1.203 7.442 1.239 15.431 2.743 22.73 2.116 10.27 9.777.286 14.53-2.905 6.524-4.38 13.697-7.797 21.225-10.053"/>
        <path stroke="#4D81EC" stroke-linecap="round" d="M364.99 327.78c.014-.322.508-.25.494.068-.673 15.972-3.34 31.614-8.601 46.69a465.954 465.954 0 0 1 27.66-44.563c0-.01 0-.02.002-.033a88.35 88.35 0 0 0 .772-19.121c-.023-.32.472-.382.495-.06a89.119 89.119 0 0 1-.64 18.321 472.504 472.504 0 0 1 6.685-9.245 467.61 467.61 0 0 1 12.988-16.673c.203-.247.592.064.39.313a466.068 466.068 0 0 0-13.54 17.433c3.477-1.173 6.954-2.343 10.433-3.513.303-.101.487.36.183.464l-11.05 3.72a.282.282 0 0 1-.075.013 464.306 464.306 0 0 0-21.81 32.362 152.235 152.235 0 0 1 26.662-10.993c.305-.093.492.37.183.464a152.367 152.367 0 0 0-27.35 11.356 460.194 460.194 0 0 0-5.99 10.07 466.335 466.335 0 0 0-10.047 18.35c-.147.283-.606.086-.457-.199 1-1.927 2.02-3.844 3.045-5.758a.228.228 0 0 1 .007-.14c5.91-15.887 8.848-32.418 9.562-49.326z"/>
        <path fill="#AFCDF9" d="M365.904 386.525c2.58.645 5.136 1.542 7.795 1.614 2.66.07 5.541-.875 6.95-3.133 1.409-2.255.535-5.862-2.03-6.567-1.036-.285-2.477-.33-2.695-1.383-.206-.993 1.027-1.667 2.04-1.726 1.654-.097 3.263.47 4.866.894 1.603.423 3.355.699 4.881.048 1.523-.65 2.613-2.548 1.857-4.023-.282-.55-.782-.993-.933-1.592-.25-1.01.625-1.991 1.593-2.365.972-.375 2.047-.355 3.057-.603 3.552-.869 5.52-5.57 3.646-8.71-1.872-3.142-6.944-3.644-9.397-.932-.76.841-1.28 1.904-2.17 2.609-.889.702-2.394.861-3.02-.085-.634-.959.058-2.221.02-3.37-.065-1.908-2.328-3.162-4.195-2.77-1.87.391-3.291 1.923-4.296 3.548-1.004 1.624-1.732 3.425-2.926 4.915-.417.524-1.04 1.048-1.682.859-1.03-.303-.789-1.784-.789-2.856 0-2.565-2.863-4.422-5.413-4.145-2.55.277-4.678 2.085-6.28 4.089-2.586 3.231-4.199 7.075-5.702 10.892-1.46 3.698-3.593 7.329-4.877 11.043-1.804 5.226 4.358 2.762 7.372 2.595 4.136-.23 8.308.15 12.328 1.154"/>
        <path stroke="#6AA5FE" stroke-linecap="round" stroke-linejoin="round" stroke-width=".867" d="M364.068 365.064c.093-.142.297.024.206.164-4.604 7.062-10.024 13.434-16.467 18.855a245.347 245.347 0 0 1 24.536-12.76c.003-.005.005-.01.01-.015a46.576 46.576 0 0 0 5.495-8.46c.077-.152.317-.048.241.104a46.81 46.81 0 0 1-5.222 8.135c1.831-.82 3.67-1.619 5.52-2.392a246.36 246.36 0 0 1 10.376-4.063c.16-.058.252.188.092.246a249.032 249.032 0 0 0-10.83 4.258c1.892.407 3.783.81 5.676 1.218.164.034.124.293-.042.26l-6.012-1.29c-.012-.003-.026-.006-.036-.014a245.148 245.148 0 0 0-18.602 8.803 80.235 80.235 0 0 1 15.048 2.193c.164.039.124.3-.04.258a80.407 80.407 0 0 0-15.458-2.212c-1.821.963-3.63 1.945-5.427 2.952-3.206 1.801-6.37 3.675-9.493 5.617-.143.09-.298-.124-.155-.213.974-.606 1.95-1.2 2.93-1.792a.133.133 0 0 1 .042-.061c6.957-5.612 12.737-12.316 17.612-19.79z"/>
        <path fill="#2F65D1" d="M217.805 273.927c-71.172 0-129.074-88.674-129.074-197.671a1.215 1.215 0 0 1 2.43 0c0 107.655 56.812 195.241 126.644 195.241 69.832 0 126.644-87.586 126.644-195.241a1.215 1.215 0 1 1 2.43 0c0 108.997-57.903 197.67-129.074 197.67"/>
        <mask id="d" fill="#fff">
            <use xlink:href="#c"/>
        </mask>
        <path fill="#557DE2" d="M89.947 245.653h70.302v-14.27H89.947zM89.947 196.003h70.302v-14.268H89.947zM89.947 146.356h70.302v-14.27H89.947zM89.947 102.285h70.302v-14.27H89.947z" mask="url(#d)"/>
        <path fill="#557DE2" d="M145.505 245.653h15.47v-14.27h-15.47zM146.608 196.003h15.47v-14.268h-15.47zM147.589 146.356h15.47v-14.27h-15.47zM148.567 102.285h15.47v-14.27h-15.47z" mask="url(#d)"/>
        <path fill="#318FFF" d="M150.18 389.283h20.139v-29.832h-20.14z" mask="url(#d)"/>
        <path fill="#2F65D1" d="M151.282 231.383h17.932v-49.648h-17.932zM152.261 181.735h15.974v-49.65h-15.974zM153.24 132.085h14.017V82.436h-14.016z" mask="url(#d)"/>
        <path fill="#557DE2" d="M335.594 359.452h20.14V231.383h-20.14z" mask="url(#d)"/>
        <path fill="#557DE2" d="M355.734 293.9h-20.14v16.14l20.14 10.126zM79.877 359.452h20.14V231.383h-20.14z" mask="url(#d)"/>
        <path fill="#557DE2" d="M100.016 293.9h-20.14v16.14l20.14 10.126z" mask="url(#d)"/>
        <path fill="#318FFF" d="M39.84 284.29h18.268v-1.215H39.84zM32.278 284.29h4.86v-1.215h-4.86z" mask="url(#d)"/>
        <path fill="#557DE2" d="M19.227 301.083h471.159v-13.757H19.227z" mask="url(#d)"/>
        <path fill="#557DE2" d="M160.249 301.083h18.011v-13.757H160.25z" mask="url(#d)"/>
        <path fill="#2F65D1" d="M150.18 359.452h20.139V231.383h-20.14z" mask="url(#d)"/>
        <path fill="#2F65D1" d="M148.098 389.283H172.4v-29.832h-24.302z" mask="url(#d)"/>
        <path fill="#557DE2" d="M77.795 389.283h24.3v-29.832h-24.3zM80.982 231.383h17.93v-49.648h-17.93zM81.958 181.735h15.975v-49.65H81.958zM82.939 132.085h14.015V82.436H82.939z" mask="url(#d)"/>
        <path fill="#2F65D1" d="M164.502 82.438h-8.505v-8.112a4.252 4.252 0 1 1 8.505 0v8.112z" mask="url(#d)"/>
        <path fill="#557DE2" d="M94.198 82.438h-8.504v-8.112a4.252 4.252 0 1 1 8.504 0v8.112zM345.664 245.653h70.303v-14.27h-70.303zM345.664 196.003h70.303v-14.268h-70.303zM345.664 146.356h70.303v-14.27h-70.303zM345.664 102.285h70.303v-14.27h-70.303z" mask="url(#d)"/>
        <path fill="#557DE2" d="M401.225 245.653h15.47v-14.27h-15.47zM402.328 196.003h15.47v-14.268h-15.47zM403.305 146.356h15.47v-14.27h-15.47zM404.285 102.285h15.47v-14.27h-15.47z" mask="url(#d)"/>
        <path fill="#318FFF" d="M405.897 389.283h20.14v-29.832h-20.14z" mask="url(#d)"/>
        <path fill="#2F65D1" d="M407.002 231.383h17.93v-49.648h-17.93zM407.98 181.735h15.975v-49.65H407.98zM408.959 132.085h14.016V82.436H408.96z" mask="url(#d)"/>
        <path fill="#557DE2" d="M415.967 301.083h18.011v-13.757h-18.01z" mask="url(#d)"/>
        <path fill="#2F65D1" d="M405.897 359.452h20.14V231.383h-20.14z" mask="url(#d)"/>
        <path fill="#2F65D1" d="M403.817 389.283h24.3v-29.832h-24.3z" mask="url(#d)"/>
        <path fill="#557DE2" d="M333.514 389.283h24.302v-29.832h-24.302zM336.698 231.383h17.932v-49.648h-17.932zM337.677 181.735h15.974v-49.65h-15.974zM338.655 132.085h14.017V82.436h-14.017z" mask="url(#d)"/>
        <path fill="#2F65D1" d="M420.22 82.438h-8.506v-8.112a4.252 4.252 0 1 1 8.505 0v8.112z" mask="url(#d)"/>
        <path fill="#557DE2" d="M349.917 82.438h-8.505v-8.112a4.252 4.252 0 1 1 8.505 0v8.112z" mask="url(#d)"/>
        <path fill="#2F65D1" d="M288.108 273.927c-71.172 0-129.075-88.674-129.075-197.671a1.216 1.216 0 0 1 2.431 0c0 107.655 56.812 195.241 126.644 195.241 69.833 0 126.645-87.586 126.645-195.241a1.216 1.216 0 1 1 2.43 0c0 108.997-57.902 197.67-129.075 197.67" mask="url(#d)"/>
        <path stroke="#3C6FD5" stroke-linecap="round" stroke-width="2" d="M41 390h436.416" mask="url(#d)"/>
    </g>
</svg>
