<svg xmlns="http://www.w3.org/2000/svg" width="123" height="99" viewBox="0 0 123 99">
    <g fill="none" fill-rule="evenodd">
        <path fill="#F6F9FD" fill-rule="nonzero" d="M17.065 98.403S3.377 93.1.731 82.61c-2.166-8.584.549-19.491 11.393-26.08 10.844-6.59 22.1-8.648 19.628-20.453-2.471-11.805-3.705-23.327 11.119-28.14 14.824-4.812 25.737-2.052 32.32-4.94 6.585-2.89 15.58-5.903 26.012 3.293s2.125 28.689 1.922 30.13c-.202 1.442-3.202 16.038 6.132 25.646 9.333 9.608 13.165 18.085 11.442 25.897-1.662 7.519-5.973 10.42-10.798 10.434-6.045.016-92.836.006-92.836.006z"/>
        <path fill="#E9F1FD" fill-rule="nonzero" d="M110.038 98.352H99.993v-27.37h10.045z" opacity=".81"/>
        <g fill="#E9F1FD" fill-rule="nonzero" opacity=".81">
            <path d="M70.09 98.312h22.582V26.335h-6.821V39.35l-15.76 14.74zM86.474 26.335l.081-21.483.082 21.483z"/>
        </g>
        <path fill="#E9F1FD" fill-rule="nonzero" d="M41.914 98.392H71.95V15.524L41.914 25.812z" opacity=".81"/>
        <path fill="#E9F1FD" fill-rule="nonzero" d="M24.722 77.161l-2.773-7.138h-4.568v28.284h14.961V77.16z" opacity=".6"/>
        <circle cx="99.647" cy="10.728" r="7.704" fill="#F9CC3D" fill-rule="nonzero"/>
        <path fill="#EFBB26" fill-rule="nonzero" d="M103.53 4.087a7.7 7.7 0 0 1-9.558 11.857 7.702 7.702 0 1 0 9.559-11.857z"/>
        <path fill="#E9F1FD" fill-rule="nonzero" d="M95.59 18.433c1.961 0 2.076-2.919.127-3.048h-.212c-.284 0-.566.038-.839.114a3.392 3.392 0 0 0-4.588-2.404 3.389 3.389 0 0 0-6.645-.128 3.39 3.39 0 0 0-4.125 2.215h-.12a3.635 3.635 0 0 0-1.603.37c-1.447.706-.925 2.891.685 2.891l17.32-.01zM35.124 26.68c1.347 0 1.432-2.015.087-2.105h-.146c-.195 0-.39.026-.578.08a2.34 2.34 0 0 0-3.168-1.661 2.34 2.34 0 0 0-4.588-.088 2.34 2.34 0 0 0-2.847 1.528H23.8a2.52 2.52 0 0 0-1.108.255c-.999.49-.637 1.998.474 1.998l11.957-.007z"/>
        <path fill="#E9F1FD" fill-rule="nonzero" d="M37.53 98.352H17.694V44.304H37.53z" opacity=".6"/>
        <path fill="#6997F5" fill-rule="nonzero" d="M19.878 83.91c-1.374-.413-2.808-.699-4.06-1.399-1.252-.7-2.33-1.925-2.362-3.367-.031-1.442 1.367-2.869 2.751-2.481.557.152 1.24.528 1.635.101.395-.426-.018-1.057-.471-1.363-.742-.502-1.644-.682-2.506-.927-.861-.245-1.75-.606-2.279-1.327-.528-.721-.51-1.903.247-2.379.283-.178.638-.245.872-.482.395-.399.258-1.095-.089-1.536-.346-.442-.851-.728-1.252-1.122-1.412-1.38-1.028-4.104.713-5.046 1.74-.941 4.225.223 4.616 2.158.123.598.07 1.236.29 1.806.218.57.872 1.06 1.423.795.55-.265.585-1.048.92-1.57.554-.867 1.95-.827 2.709-.13.758.696.997 1.798 1.017 2.83.02 1.03-.141 2.065 0 3.087.05.356.194.772.546.861.56.143.856-.61 1.152-1.108.706-1.19 2.547-1.263 3.653-.431 1.107.832 1.596 2.254 1.787 3.625.309 2.212 0 4.44-.355 6.625-.341 2.117-.351 4.39-.78 6.467-.601 2.92-2.778.081-4.133-.827a22.363 22.363 0 0 0-6.044-2.86z"/>
        <path stroke="#4D81EC" stroke-linecap="round" d="M26.644 74.458c0-.092-.144-.07-.14.02.192 4.544.95 8.99 2.451 13.282a132.815 132.815 0 0 0-7.869-12.678v-.008a25.137 25.137 0 0 1-.227-5.44c0-.091-.136-.108-.14-.018-.12 1.74-.06 3.486.181 5.213-.623-.884-1.258-1.76-1.903-2.63a139.352 139.352 0 0 0-3.694-4.74.072.072 0 0 0-.111.09 129.417 129.417 0 0 1 3.853 4.959l-2.969-1c-.086-.028-.139.102-.052.132l3.143 1.057h.022a133.4 133.4 0 0 1 6.211 9.206 43.266 43.266 0 0 0-7.583-3.125c-.086-.026-.14.105-.052.132a43.256 43.256 0 0 1 7.78 3.23 128.755 128.755 0 0 1 4.563 8.085c.042.082.173.025.13-.055-.284-.55-.575-1.094-.866-1.635a.072.072 0 0 0 0-.04c-1.692-4.524-2.527-9.227-2.728-14.037z"/>
        <path fill="#AFCDF9" fill-rule="nonzero" d="M26.382 91.172c-.735.183-1.46.438-2.218.459-.756.021-1.577-.25-1.978-.893-.4-.642-.152-1.667.577-1.868.296-.08.707-.093.769-.392.062-.3-.293-.474-.58-.49-.471-.028-.93.133-1.387.254-.456.121-.953.198-1.387.013-.435-.184-.744-.724-.528-1.144.08-.163.222-.283.264-.453.072-.287-.176-.567-.452-.673-.277-.106-.582-.1-.87-.163-1.01-.249-1.57-1.586-1.038-2.48.533-.894 1.976-1.036 2.674-.265.216.24.365.543.618.742.253.2.68.245.858-.023.178-.268-.016-.632 0-.96.018-.542.662-.898 1.194-.787.53.111.936.546 1.222 1.008.286.463.49.981.832 1.4.12.148.296.297.48.243.292-.085.223-.507.223-.817 0-.73.817-1.257 1.54-1.179.722.079 1.33.594 1.787 1.163.735.92 1.194 2.013 1.623 3.105.413 1.053 1.021 2.086 1.386 3.142.513 1.487-1.24.786-2.097.739a11.77 11.77 0 0 0-3.512.319z"/>
        <path stroke="#6AA5FE" stroke-linecap="round" stroke-linejoin="round" stroke-width=".87" d="M26.904 85.066c-.026-.04-.085 0-.059.046a24.27 24.27 0 0 0 4.685 5.363 69.89 69.89 0 0 0-6.98-3.629 13.224 13.224 0 0 1-1.563-2.406c-.022-.044-.091-.013-.068.03.414.82.912 1.596 1.486 2.314-.521-.233-1.045-.46-1.571-.681a76.168 76.168 0 0 0-2.952-1.156.038.038 0 0 0-.026.07c1.036.38 2.063.783 3.08 1.212l-1.614.346c-.048.01-.035.083.011.074l1.715-.371h.01a71.696 71.696 0 0 1 5.29 2.504c-1.443.071-2.876.28-4.28.623-.046.011-.034.085.013.073a22.942 22.942 0 0 1 4.397-.63 70.848 70.848 0 0 1 4.245 2.437c.04.027.083-.033.043-.06-.283-.178-.564-.341-.84-.505a.031.031 0 0 0-.012-.018 24.029 24.029 0 0 1-5.01-5.636z"/>
        <path fill="#6997F5" fill-rule="nonzero" d="M109.64 92.6c1.528-.124 3.089-.106 4.553-.557 1.465-.451 2.863-1.5 3.216-2.991.353-1.493-.79-3.3-2.32-3.21-.618.035-1.412.275-1.726-.26-.296-.503.253-1.098.794-1.317.886-.358 1.87-.346 2.823-.41.953-.064 1.962-.237 2.671-.874.71-.638.958-1.872.273-2.537-.255-.25-.611-.4-.802-.698-.327-.505-.028-1.202.433-1.586.46-.384 1.05-.57 1.558-.89 1.778-1.132 1.986-4.06.384-5.43-1.602-1.369-4.46-.707-5.303 1.227-.26.6-.348 1.276-.703 1.824-.354.548-1.144.912-1.664.512s-.377-1.225-.611-1.844c-.388-1.03-1.854-1.296-2.802-.737s-1.442 1.655-1.69 2.728c-.248 1.072-.312 2.19-.69 3.223-.13.363-.374.763-.76.778-.618.025-.758-.827-.956-1.414-.474-1.399-2.38-1.884-3.72-1.263-1.34.62-2.168 1.999-2.673 3.385-.817 2.24-.98 4.636-1.105 6.998-.113 2.288-.608 4.663-.625 6.927-.02 3.184 2.889.703 4.502.056a23.97 23.97 0 0 1 6.942-1.64z"/>
        <path stroke="#4D81EC" stroke-linecap="round" d="M104.68 81.223c.024-.093.163-.04.142.053-1.211 4.704-2.986 9.181-5.512 13.328a141.987 141.987 0 0 1 11.04-11.49v-.01a26.888 26.888 0 0 0 1.439-5.632c.015-.096.163-.083.152.013a27.105 27.105 0 0 1-1.35 5.404 137.15 137.15 0 0 1 7.485-6.455c.076-.062.173.056.096.116a139.539 139.539 0 0 0-5.126 4.324l3.321-.385c.098-.01.123.14.027.15l-3.52.406a.054.054 0 0 1-.023 0c-2.956 2.625-5.8 5.37-8.529 8.235a46.328 46.328 0 0 1 8.629-1.579c.096 0 .123.14.025.15a46.359 46.359 0 0 0-8.847 1.634 142.192 142.192 0 0 0-6.563 7.43c-.062.076-.185-.012-.122-.088.418-.509.84-1.014 1.268-1.517a.07.07 0 0 1 .011-.042c2.755-4.34 4.675-9.066 5.957-14.045z"/>
        <path fill="#557DE2" fill-rule="nonzero" d="M35.9 52.47c.022-.122.034-.246.037-.37V49.56a1.788 1.788 0 0 0-1.76-1.814h-5.285a1.798 1.798 0 0 0-1.758 1.814v2.54a1.798 1.798 0 0 0 1.76 1.818h8.4v-1.448h-1.395zM93.61 52.47a2.125 2.125 0 0 1-.034-.37V49.56a1.788 1.788 0 0 1 1.759-1.814h5.283a1.787 1.787 0 0 1 1.757 1.814v2.54c.017.987-.77 1.801-1.757 1.818h-8.399v-1.448h1.391z"/>
        <path fill="#BBD4FD" fill-rule="nonzero" d="M35.898 55.174l2.322-8.161c1.283-4.507 2.874-11.245 10.887-11.245h31.37c8.009 0 9.598 6.738 10.886 11.245l2.321 8.161H35.898z"/>
        <path fill="#557DE2" fill-rule="nonzero" d="M24.414 77.752l.818 8.241c0 1.672-.232 3.027 1.39 3.027h76.273c1.617 0 1.386-1.355 1.386-3.027l.817-8.241H24.414z"/>
        <path fill="#AFCDF9" fill-rule="nonzero" d="M104.067 67.05c0-1.336-.248-2.222-.708-2.835l-.032-.03a2.545 2.545 0 0 0-.631-.59l-9.019-8.42h-57.79l-8.726 8.707c-.277.21-.525.455-.736.73l-.088.09h.014c-.596.847-.902 1.987-.902 3.582l-1.035 9.468h80.691l-1.038-10.702z"/>
        <path fill="#557DE2" fill-rule="nonzero" d="M38.863 55.985s-.608 14.988 3.061 14.988c3.67 0 7.157-.136 7.157-.136s-.058-11.158-5.135-13.003l-5.083-1.849zM90.649 55.985s.608 14.988-3.06 14.988-7.16-.136-7.16-.136.057-11.158 5.136-13.003l5.084-1.849z" opacity=".1"/>
        <path fill="#557DE2" fill-rule="nonzero" d="M38.094 53.919l1.308-5.415c1.177-4.875.342-7.56 6.991-7.56h36.795c6.643 0 5.818 2.682 6.99 7.56l1.307 5.415h-53.39z"/>
        <path fill="#557DE2" fill-rule="nonzero" d="M92.345 54.596h-55.11l1.505-6.244c.191-.805.327-1.54.46-2.222.653-3.527 1.091-5.86 7.192-5.86h36.796c6.1 0 6.539 2.333 7.192 5.863.126.679.264 1.416.455 2.219l1.51 6.244zm-53.392-1.357h51.673l-1.105-4.577a43.705 43.705 0 0 1-.47-2.28c-.627-3.366-.887-4.758-5.863-4.758H46.39c-4.976 0-5.23 1.39-5.865 4.755a41.08 41.08 0 0 1-.47 2.288l-1.102 4.572z"/>
        <path fill="#134DA3" fill-rule="nonzero" d="M80.182 41.029c2.308.006 4.612.165 6.898.477-.889-.371-2.125-.567-3.892-.567H46.39c-6.65 0-5.814 2.685-6.991 7.56l-1.308 5.415h7.858c9.273-7.991 21.263-12.885 34.233-12.885zM35.75 98.035h-5.78c-1.848 0-3.347-1.355-3.347-3.025v-5.99h12.47v5.99c0 1.67-1.497 3.025-3.343 3.025zM99.21 98.035h-5.778c-1.848 0-3.347-1.355-3.347-3.025v-5.99h12.473v5.99c0 1.67-1.499 3.025-3.347 3.025z"/>
        <path fill="#2F65D1" fill-rule="nonzero" d="M27.556 80.988l-.294 4.284a1.635 1.635 0 0 0 1.635 1.81h7.442c.98 0 1.5-.778.943-1.596-1.022-1.49-3.238-3.76-7.944-5.683-.907-.361-1.713.183-1.782 1.185z"/>
        <path fill="#FFF" fill-rule="nonzero" d="M32.856 84.192a1.872 1.872 0 1 1-1.874-1.924 1.904 1.904 0 0 1 1.874 1.924z" style="mix-blend-mode:screen"/>
        <path fill="#2F65D1" fill-rule="nonzero" d="M102.475 80.797l.297 4.287a1.635 1.635 0 0 1-1.634 1.81H93.7c-.98 0-1.504-.781-.946-1.6 1.022-1.486 3.238-3.76 7.944-5.686.904-.366 1.707.188 1.777 1.189z"/>
        <path fill="#FFF" fill-rule="nonzero" d="M97.058 84.04a1.87 1.87 0 1 0 1.863-1.926 1.901 1.901 0 0 0-1.863 1.926z" style="mix-blend-mode:screen"/>
        <path fill="#2F65D1" fill-rule="nonzero" d="M84.901 86.894H44.603c-1.21 0-2.859-.77-3.68-1.721l-3.41-3.958c-.818-.948-.5-1.72.707-1.72h53.07c1.21 0 1.533.772.71 1.72l-3.42 3.958c-.813.95-2.461 1.72-3.679 1.72zM31.116 64.616s12.29.714 13.366 4.645c1.078 3.932-3.22 4.648-3.22 4.648S28.47 77.518 27.334 69.26c-.736-5.358 3.782-4.645 3.782-4.645zM98.591 64.616s-12.29.714-13.364 4.645c-1.074 3.932 3.218 4.648 3.218 4.648s12.786 3.609 13.922-4.648c.74-5.358-3.776-4.645-3.776-4.645z"/>
        <path fill="#2F65D1" fill-rule="nonzero" d="M87.074 73.302c-14.74 2.1-29.704 2.1-44.444 0 .192-1.328.382-2.659.57-3.992a153.617 153.617 0 0 0 43.305 0c.188 1.331.38 2.663.569 3.992z"/>
        <path fill="#FFF" fill-rule="nonzero" d="M35.392 73.152c-4.016 0-6.15-1.34-6.528-4.1a4.922 4.922 0 0 1 0-1.685s.405-1.187 1.247-1.2c.842-.013.29-.04.49-.04h.13l.119.017.116.01c3.923.227 10.087 1.308 11.695 3.01 0 0 1.52 1.88-1.634 3.221l-.245.056c-1.762.45-3.571.689-5.39.71zM94.12 73.152c4.015 0 6.15-1.34 6.539-4.1a4.958 4.958 0 0 0 0-1.685s-.406-1.187-1.249-1.2c-.843-.013-.286-.04-.49-.04h-.118l-.12.017-.117.01c-3.923.227-10.087 1.308-11.694 3.01 0 0-1.522 1.88 1.635 3.221l.245.056a22.78 22.78 0 0 0 5.37.71z"/>
        <path fill="#000" fill-rule="nonzero" d="M69.961 43.775a1.349 1.349 0 0 1-1.349 1.345H61.23a1.345 1.345 0 1 1 0-2.692h7.377a1.349 1.349 0 0 1 1.355 1.347z" opacity=".5"/>
        <path fill="#000" fill-rule="nonzero" d="M63.915 40.944h1.85v1.484h-1.85z" opacity=".5"/>
        <path fill="#FFF" fill-rule="nonzero" d="M77.707 85.784H51.805c-3 0-2.713-1.41-2.713-3.143 0-1.735 2.071-3.145 4.628-3.145h22.067c2.556 0 4.626 1.404 4.626 3.145 0 1.74.296 3.143-2.706 3.143z"/>
    </g>
</svg>
