<svg width="150" height="150" viewBox="0 0 150 150" fill="none" xmlns="http://www.w3.org/2000/svg">
<path d="M135.547 75C135.547 108.439 108.439 135.547 75 135.547C41.5608 135.547 14.4531 108.439 14.4531 75C14.4531 41.5608 41.5608 14.4531 75 14.4531C108.439 14.4531 135.547 41.5608 135.547 75ZM67.9966 107.059L112.918 62.1372C114.444 60.6118 114.444 58.1384 112.918 56.613L107.394 51.0889C105.869 49.5632 103.396 49.5632 101.87 51.0889L65.2344 87.7241L48.1301 70.6199C46.6047 69.0945 44.1313 69.0945 42.6057 70.6199L37.0815 76.144C35.5562 77.6694 35.5562 80.1428 37.0815 81.6682L62.4722 107.059C63.9978 108.584 66.4709 108.584 67.9966 107.059Z" fill="#52C590"/>
</svg>
