<svg width="336" height="91" viewBox="0 0 336 91" fill="none" xmlns="http://www.w3.org/2000/svg">
<path fill-rule="evenodd" clip-rule="evenodd" d="M0 7.32666C0 4.162 3.50099 2.25063 6.16303 3.96195L14 9C28 17 56 34 84 46C112 57 140 64 168 57C196 51 224 30 252 20C280 10 308 10 322 10H332C334.209 10 336 11.7909 336 14V87C336 89.2091 334.209 91 332 91H322C308 91 280 91 252 91C224 91 196 91 168 91C140 91 112 91 84 91C56 91 28 91 14 91H4C1.79086 91 0 89.2091 0 87V7.32666Z" fill="#0099FF"/>
<path fill-rule="evenodd" clip-rule="evenodd" d="M0 31.2784C0 28.3525 3.03848 26.4167 5.6903 27.6531L14 31.5275C28 37.3297 56 49.6593 84 58.3626C112 66.3407 140 71.4176 168 66.3407C196 61.989 224 46.7582 252 39.5055C280 32.2527 308 32.2527 322 32.2527H332C334.209 32.2527 336 34.0436 336 36.2527V87C336 89.2091 334.209 91 332 91H322C308 91 280 91 252 91C224 91 196 91 168 91C140 91 112 91 84 91C56 91 28 91 14 91H4C1.79086 91 0 89.2091 0 87V31.2784Z" fill="#482FF7"/>
</svg>
