<svg xmlns="http://www.w3.org/2000/svg" width="120" height="98" viewBox="0 0 120 98">
    <g fill="none" fill-rule="nonzero">
        <path fill="#F6F9FD" d="M16.922 97.243S3.395 92 .778 81.636c-2.14-8.479.544-19.259 11.26-25.77 10.717-6.513 21.844-8.547 19.4-20.214-2.444-11.667-3.662-23.056 10.99-27.81 14.65-4.755 25.436-2.035 31.947-4.884 6.512-2.85 15.393-5.828 25.708 3.26 10.314 9.089 2.103 28.353 1.899 29.779-.204 1.425-3.165 15.849 6.059 25.352s13.012 17.872 11.306 25.594c-1.642 7.433-5.9 10.298-10.673 10.311-5.975.008-91.752-.01-91.752-.01z"/>
        <path fill="#6997F5" d="M26.733 69.617a17.416 17.416 0 0 0-1.25 10.602l-.173-.319a48.588 48.588 0 0 0-1.822-3.095c1.49-4.895.016-9.93.016-9.93a17.06 17.06 0 0 0-.319 9.45 64.904 64.904 0 0 0-1.417-2.09l-.346-.478c.822-4.548-.833-8.827-.833-8.827a16.152 16.152 0 0 0 .552 8.45c-.113-.16-.225-.304-.338-.454h.008l-.02-.011a41.984 41.984 0 0 0-1.552-1.961c.787-4.23-.76-8.228-.76-8.228a14.864 14.864 0 0 0 .59 8.03 60.223 60.223 0 0 0-1.407-1.609 53.068 53.068 0 0 0-.764-.816 12.437 12.437 0 0 0-1.56-5.398c.072 2.687.985 4.53 1.382 5.211a37.948 37.948 0 0 0-2.805-2.648 11.346 11.346 0 0 0-4.73-3.79s1.892 2.92 5.006 4.287a37.397 37.397 0 0 1 1.78 1.686 5.322 5.322 0 0 0-4.441-.38s2.241 1.292 4.557.5a49.254 49.254 0 0 1 2.313 2.525 6.917 6.917 0 0 0-5.785-.487s2.909 1.678 5.917.654c.578.68 1.144 1.376 1.692 2.09a8.623 8.623 0 0 0-6.878-.441s3.507 2.026 7.2.867c.352.468.696.944 1.033 1.427.395.568.782 1.144 1.161 1.727-.845-.631-4.133-2.758-8.55-1.859 0 0 4.103 2.9 8.678 2.038a48.748 48.748 0 0 1 2.202 3.726l.046.086c-1.072-.907-4.437-3.382-9.22-3.14 0 0 4.247 3.628 9.392 3.462l.17.319c.066.121.136.242.198.367l.182.374.732 1.5c.254.497.458 1.015.681 1.524l.658 1.532.32-.107-.677-1.547c-.228-.513-.438-1.036-.698-1.535l-.746-1.513-.187-.378c-.064-.125-.135-.246-.202-.37l-.053-.097c2.288-5.125 1.067-10.926 1.067-10.926zM102.116 82.491a10.03 10.03 0 0 1 .727 6.104l.1-.182c.32-.61.68-1.202 1.048-1.781-.856-2.82 0-5.718 0-5.718a9.825 9.825 0 0 1 .186 5.442c.265-.408.537-.81.815-1.204l.201-.279c-.478-2.618.478-5.083.478-5.083a9.296 9.296 0 0 1-.318 4.862c.063-.088.129-.176.194-.262h.011c.29-.385.586-.757.892-1.116-.453-2.435.436-4.737.436-4.737a8.57 8.57 0 0 1-.34 4.624 25.631 25.631 0 0 1 1.25-1.397 7.158 7.158 0 0 1 .9-3.108 6.42 6.42 0 0 1-.797 3.001 21.25 21.25 0 0 1 1.613-1.524 6.537 6.537 0 0 1 2.724-2.185s-1.09 1.684-2.87 2.47c-.348.308-.69.638-1.025.971a3.061 3.061 0 0 1 2.55-.218s-1.29.743-2.622.287a27.947 27.947 0 0 0-1.333 1.454 3.986 3.986 0 0 1 3.327-.285s-1.674.966-3.407.378c-.333.389-.657.79-.974 1.202a4.964 4.964 0 0 1 3.96-.254s-2.023 1.167-4.145.5c-.203.269-.402.541-.595.82-.227.327-.45.658-.67.995a6.359 6.359 0 0 1 4.927-1.068s-2.361 1.67-4.995 1.174c-.45.693-.877 1.408-1.268 2.144l-.027.05a7.75 7.75 0 0 1 5.305-1.802s-2.446 2.089-5.407 1.993l-.099.182c-.038.07-.078.138-.113.21l-.105.217-.445.848c-.147.286-.265.584-.392.877l-.38.882-.181-.06.389-.892c.132-.295.252-.596.401-.883l.43-.87.108-.22c.036-.071.078-.141.116-.211l.03-.058c-1.318-2.948-.61-6.29-.61-6.29z"/>
        <g opacity=".3">
            <path fill="#FFF" d="M81.777 77.39l-8.78 3.803-8.782-3.803-8.78 3.803-8.78-3.803-8.78 3.803-11.212-4.857V25.373l11.212 4.856 8.78-3.802 8.78 3.802 8.78-3.802 8.781 3.802 8.78-3.802 8.78 3.802 11.212-4.856v50.963l-11.212 4.857z"/>
            <path fill="#C3D0E8" d="M46.656 28.989l-8.781 3.804V78.63l8.78-3.802z"/>
            <path fill="#E9F1FD" d="M29.094 28.989v45.838l8.78 3.802V32.793z"/>
            <path fill="#C3D0E8" d="M64.215 28.989l-8.78 3.804V78.63l8.78-3.802z"/>
            <path fill="#E9F1FD" d="M46.656 28.989v45.838l8.779 3.802V32.793z"/>
            <path fill="#C3D0E8" d="M81.777 28.989l-8.78 3.804V78.63l8.78-3.802z"/>
            <path fill="#E9F1FD" d="M64.215 28.989v45.838l8.781 3.802V32.793z"/>
            <path fill="#BDD8EF" d="M99.337 28.989l-8.781 3.804V78.63l8.78-3.802z"/>
            <path fill="#E9F1FD" d="M81.777 28.989v45.838l8.779 3.802V32.793z"/>
            <path fill="#BBD4FD" d="M69.208 33.088l-1.805-1.837a.434.434 0 0 1-.045-.558l.19-.264-3.333-1.443-5.587 2.425-.542 4.284a.435.435 0 0 0 .032.225l.786 1.848.528 1.237c.016.041.04.079.069.112l1.462 1.725a.437.437 0 0 0 .724-.092l1.455-3.03a.43.43 0 0 1 .16-.182l.738-.454 1.894-1.166.848-.523.023-.012 2.337-1.638a.434.434 0 0 0 .066-.657zM57.694 65.719c-2.8-.145.145-3.2-2.87-2.87-3.015.33-3.635-1.854-5.455-2.146-1.766-.282-3.082.805-3.155.867-.373-.17-1.276-.58-3.28-1.484-4.838-2.183-4.327-6.364-4.49-6.442-.163-.078 1.325-.032 2.853-.032 1.527 0 2.691 1.746 4.037 1.965 1.345.218.218-.656.145-3.856-.073-3.2 6.473-5.09 5.018-7.309-1.456-2.218 2.946-2.328 4.4-3.018 1.454-.69-1.854-4.624-5.236-3.667-3.382.956-1.928-2.183-3.667-3.456-1.74-1.272-1.595 5.055-1.595 5.055s-4.742-1.426-4.668-3.61c.038-1.16 1.658-3.326 3.168-5.102l-5.024 2.176-8.78-3.803v22.146c.93 2.379 1.354 4.464 2.345 5.421 1.417 1.38 2.257-1.913 2.257-1.913s.798 4.305 3.015 5.619c2.218 1.313 8.11 3.2 8.11 3.2s-1.783 1.454-1.82 2.072c-.036.62 1.238 2.552 2.002 4.436.763 1.885 2.581 1.673 3.964 2.8.586.478.338 1.724-.14 2.994l6.607 2.863.173-.075 1.359-3.38s4.546-.656 3.308-3.638c-1.237-2.981 3.566-2.072 2.87-3.2-.695-1.127-2.651-2.468-5.451-2.613zM90.556 32.793l-1.815-.786c-1.435 1.276-2.32 2.374-1.883 2.728 1.346 1.093-3.999 4.691-5.708 6.074-1.71 1.382-5.855-.91-5.818 2.618.037 3.527-5.31 4.982-2.801 5.528 2.508.545 4.764-1.818 5.564-2.728.8-.91 1.636.692 3.782 2.29 2.146 1.6 5.527-4.29 7.963-2.472s-5.708 2.586-1.818 3.383c3.27.673 1.724 2.347 1.147 2.87l-4.082.831-.566-.16-.035-.012-.035-.01-8.228-2.383a2.168 2.168 0 0 0-2.073.494l-1.543 1.435-2.26 2.111a3.862 3.862 0 0 0-1.1 3.788l.995 3.862a3.159 3.159 0 0 0 3.228 2.363l2.7-.148 2.337-.128 1.666 5.406 1.047 3.297.576 1.787 5.198 2.252 1.165-1.68.755-1.088 2.21-3.19 3.17-6.444a2.205 2.205 0 0 0-1.299-3.07l-1.39-.45a2.044 2.044 0 0 1-1.406-1.807l-.185-2.661A.805.805 0 0 1 90.32 56c1.275.9 3.189 2.391 4.22 2.293 1.128-.109.254-4.146 2.29-4.001.536.038 1.454.625 2.515 1.464V28.99l-8.79 3.802z"/>
            <path fill="#859FDC" d="M58.086 35.694a.435.435 0 0 0 .032.224l.786 1.848.528 1.238c.016.04.04.078.069.111l1.462 1.726a.437.437 0 0 0 .724-.093l1.455-3.03a.43.43 0 0 1 .16-.181l.738-.455.17-.105v-7.986l-5.582 2.42-.542 4.283zM45.984 34.263c-1.744-1.275-1.594 5.055-1.594 5.055s-4.733-1.418-4.66-3.602c.04-1.16 1.66-3.326 3.169-5.102l-5.024 2.176v28.063c2.634 1.22 6.947 2.603 6.947 2.603s-1.783 1.455-1.82 2.073c-.036.619 1.238 2.551 2.002 4.436.363.902.97 1.323 1.652 1.64V61.262a3.48 3.48 0 0 0-.445.306c-.373-.17-1.276-.58-3.28-1.484-4.838-2.183-4.327-6.364-4.49-6.442-.163-.078 1.325-.032 2.852-.032 1.528 0 2.692 1.746 4.038 1.964 1.345.219.218-.655.145-3.855-.021-.898.478-1.692 1.18-2.42v-14.22a2.176 2.176 0 0 0-.672-.815zM57.694 65.719c-2.575-.134-.293-2.727-2.26-2.888V78.63l.174-.075 1.359-3.38s4.546-.655 3.308-3.637c-1.237-2.981 3.566-2.073 2.87-3.2-.695-1.127-2.651-2.473-5.451-2.618zM75.332 43.427c.018 1.768-1.317 3.017-2.336 3.889v1.707c2.318.188 4.348-1.943 5.102-2.796.786-.895 1.612.637 3.682 2.213v-8.12c-.24.183-.453.348-.627.489-1.712 1.382-5.858-.91-5.821 2.618zM75.622 50.47c-.546 0-1.072.207-1.473.578l-1.153 1.078v12.48c.159.016.319.02.478.011l2.701-.148 2.336-.128 1.667 5.406 1.047 3.297.557 1.754V52.163l-5.554-1.609a2.155 2.155 0 0 0-.606-.084zM90.556 32.793v23.388c1.263.906 3.015 2.213 3.976 2.119 1.128-.108.254-4.146 2.29-4 .536.038 1.454.624 2.515 1.463V28.991l-8.781 3.802zM92.987 61.618l-1.39-.451a2.035 2.035 0 0 1-1.041-.78v11.55l.56-.805 3.17-6.445a2.205 2.205 0 0 0-1.299-3.069z"/>
        </g>
        <path fill="#2F65D1" d="M33.24 26.395v21.362h1.338V27.732h15.675v20.025h1.337V26.395z"/>
        <rect width="13.189" height="45.767" x="51.061" y="47.757" fill="#557DE2" rx="4.78" transform="rotate(180 57.656 70.641)"/>
        <path fill="#2F65D1" d="M59.17 47.759h-1.224c1 0 2.27.81 2.27 1.81v42.146c0 1-1.275 1.811-2.27 1.811h1.225c1 0 1.81-.81 1.81-1.81V49.568c0-1-.81-1.81-1.81-1.81z"/>
        <rect width="31.196" height="45.767" x="24.917" y="47.759" fill="#BBD4FD" rx="4.78"/>
        <path fill="#2F65D1" d="M51.484 91.682H29.91a.552.552 0 0 0-.552.551v1.29h22.676v-1.29a.552.552 0 0 0-.551-.551z"/>
        <path fill="#2F65D1" d="M33.453 93.517h-5.102v1.672a2.551 2.551 0 1 0 5.102 0v-1.672z"/>
        <path fill="#134DA3" d="M40.145 93.517h-5.102v1.672a2.551 2.551 0 0 0 5.102 0v-1.672zM54.8 93.517h5.102v3.15c0 .594-.48 1.075-1.074 1.075h-2.953a1.075 1.075 0 0 1-1.075-1.075v-3.15zM28.351 93.517h5.102v1h-5.102z"/>
        <path fill="#2F65D1" d="M54.089 93.517h-5.102v1.672a2.551 2.551 0 1 0 5.102 0v-1.672z"/>
        <path fill="#134DA3" d="M48.988 93.517h5.102v1h-5.102z"/>
        <path fill="#2F65D1" d="M31.361 52.458c-.67 0-1.214.544-1.214 1.215v32.935a1.215 1.215 0 1 0 2.43 0V53.665a1.215 1.215 0 0 0-1.216-1.207zM37.661 52.458c-.67 0-1.215.544-1.215 1.215v32.935a1.215 1.215 0 1 0 2.43 0V53.665a1.215 1.215 0 0 0-1.215-1.207zM43.963 52.458c-.671 0-1.215.544-1.215 1.215v32.935a1.215 1.215 0 1 0 2.43 0V53.665a1.215 1.215 0 0 0-1.215-1.207zM50.264 52.458c-.671 0-1.216.544-1.217 1.215v32.935a1.215 1.215 0 1 0 2.432 0V53.665a1.215 1.215 0 0 0-1.215-1.207z"/>
        <path fill="#557DE2" d="M31.832 87.729a1.2 1.2 0 0 1-.478.094 1.213 1.213 0 0 1-1.214-1.215V53.663c.001-.67.544-1.212 1.214-1.212a1.2 1.2 0 0 1 .478.095c-.449.189-.74.628-.742 1.116v32.946c0 .489.292.93.742 1.12zM38.133 87.729a1.194 1.194 0 0 1-.478.094 1.215 1.215 0 0 1-1.215-1.215V53.663a1.213 1.213 0 0 1 1.215-1.212c.164-.001.327.03.478.095-.45.189-.742.628-.743 1.116v32.946c0 .489.293.93.743 1.12zM44.436 87.729a1.27 1.27 0 0 1-.478.094 1.213 1.213 0 0 1-1.217-1.215V53.663a1.22 1.22 0 0 1 1.689-1.116c-.45.189-.743.628-.745 1.116v32.945c.002.49.298.933.751 1.12zM50.734 87.729a1.194 1.194 0 0 1-.478.094 1.215 1.215 0 0 1-1.215-1.215V53.663a1.213 1.213 0 0 1 1.215-1.212c.164-.001.327.03.478.095-.448.19-.74.629-.74 1.116v32.946c-.001.489.29.93.74 1.12z"/>
        <path fill="#BBD4FD" d="M80.965 29.585l3.858 1.363-1.054 2.986-3.858-1.363a.276.276 0 0 1-.168-.352l.87-2.465a.276.276 0 0 1 .352-.169z"/>
        <path fill="#557DE2" d="M81.212 29.668c-.282-.092-.567 0-.637.223l-.77 2.182c-.079.218.084.478.36.578l1.047-2.983zM84.827 30.944l.995 1.082-.595 1.684-1.454.219z"/>
        <path fill="#BBD4FD" d="M73.664 19.612l11.55 4.145 11.286 4.19a2.733 2.733 0 0 0 2.392-.242l1.817-1.127a5.37 5.37 0 0 1 4.624-.5l1.345.478-4.706 5.112a5.482 5.482 0 0 1-5.826 1.463L83.11 28.652 70.496 24.15c-.368-.11-1.073-.574-1.934-1.276a6.418 6.418 0 0 1-.907-.891c-.61-.737-.638-1.092-.56-1.177.427-.485 4.436-1.955 6.57-1.194z"/>
        <path fill="#557DE2" d="M67.066 20.915c0 .167.121.503.589 1.07.272.326.576.624.907.89.86.7 1.566 1.165 1.934 1.276l12.614 4.503 13.036 4.477a5.485 5.485 0 0 0 4.428-.384L67.066 20.915zM93.804 28.14l.416.147c.099.035.132.196.075.36l-.222.618c-.057.16-.185.268-.284.234l-.416-.148c-.099-.035-.132-.196-.073-.36l.217-.616c.06-.164.188-.27.287-.234zM92.104 27.541l.416.147c.1.035.133.196.075.36l-.218.617c-.058.16-.185.268-.284.233l-.416-.147c-.099-.035-.133-.196-.074-.36l.217-.617c.058-.164.18-.268.284-.233zM90.406 26.946l.416.147c.099.035.133.196.075.36l-.22.61c-.057.159-.185.269-.284.234l-.416-.147c-.099-.035-.132-.196-.075-.36l.219-.617c.057-.163.185-.268.285-.227zM88.705 26.34l.416.147c.099.035.132.196.075.36l-.225.618c-.057.16-.185.267-.284.232l-.416-.146c-.099-.035-.132-.196-.075-.36l.219-.618c.063-.162.19-.264.29-.232zM87.005 25.74l.416.148c.099.035.133.196.075.36l-.218.616c-.058.159-.185.269-.284.234l-.415-.152c-.099-.035-.132-.196-.075-.36l.219-.617c.056-.16.183-.263.282-.23zM85.304 25.14l.416.147c.099.035.132.196.073.36l-.217.617c-.057.16-.185.268-.283.234l-.417-.148c-.098-.035-.132-.196-.075-.359l.219-.617c.059-.164.186-.27.284-.234zM83.606 24.54l.416.147c.099.035.132.196.073.36l-.217.624c-.059.16-.185.268-.284.233l-.416-.147c-.099-.035-.132-.196-.075-.36l.219-.617c.057-.171.185-.275.284-.24zM81.906 23.94l.416.148c.099.033.132.194.073.358l-.216.617c-.06.16-.185.27-.284.235l-.416-.147c-.1-.035-.133-.196-.075-.36l.218-.617c.058-.165.185-.27.284-.235zM80.201 23.34l.417.146c.098.036.132.197.073.36l-.217.618c-.059.16-.185.268-.284.233l-.417-.147c-.098-.035-.131-.196-.074-.36l.219-.616c.062-.164.19-.27.283-.234zM78.505 22.739l.418.148c.099.035.132.196.073.36l-.217.616c-.059.16-.185.27-.284.234l-.417-.147c-.1-.035-.131-.196-.074-.36l.219-.617c.065-.164.185-.268.282-.234zM76.805 22.14l.418.146c.099.035.13.196.073.36l-.216.617c-.06.16-.185.27-.284.235l-.418-.149c-.099-.033-.13-.196-.073-.358l.218-.618c.057-.164.185-.269.282-.234zM74.89 22.818a.41.41 0 0 1-.25-.524l.153-.436a.41.41 0 0 1 .774.273l-.153.436a.41.41 0 0 1-.524.25zM100.61 29.02l5.103 1.801-.255.303a.925.925 0 0 1-1.014.276l-4.867-1.72.418-.495a.555.555 0 0 1 .616-.166zM68.092 20.272a13.483 13.483 0 0 1 1.96-.606l3.35 1.182s-1.135.837-1.651.704c-.33-.086-2.282-.783-3.66-1.28z"/>
        <path fill="#2260DD" d="M84.507 27.56l-9.089-3.21 18.305 15.888 2.55.9-9.33-11.835a5.362 5.362 0 0 0-2.436-1.743z"/>
        <path fill="#125ACC" d="M75.423 24.35l18.304 15.888 1.68.593-18.304-15.886z"/>
        <path fill="#557DE2" d="M93.727 40.238l2.508-1.654.836.295-.796 2.258z"/>
        <path fill="#E3AD4E" d="M80.18 68.33c1.566-1.66-2.464-8.011-9.005-14.19-6.54-6.179-13.111-9.84-14.678-8.181-1.568 1.658 1.754 8.77 8.29 14.941 6.538 6.173 13.82 9.097 15.392 7.43z"/>
        <path fill="#FF6700" d="M77.947 61.782c1.038 1.934 1.34 3.414.697 4.096-1.568 1.659-8.85-1.253-15.39-7.43a40.066 40.066 0 0 1-5.385-6.218c1.478 2.655 3.843 5.767 6.92 8.675 6.538 6.177 13.823 9.089 15.39 7.43.896-.955-.04-3.44-2.232-6.553z" opacity=".3" style="mix-blend-mode:multiply"/>
        <path fill="#E3AD4E" d="M77.617 62.56c-3.628 3.84-19.207-10.877-15.58-14.717 3.628-3.839 10.683-4.329 14.988-.266s4.218 11.144.592 14.983z"/>
        <path fill="#FF6700" d="M64.386 46.08a8.637 8.637 0 0 0-2.349 1.754c-3.627 3.84 11.959 18.556 15.58 14.717a8.61 8.61 0 0 0 1.628-2.44c-4.54.585-15.181-9.468-14.859-14.031z"/>
        <path fill="#FF6700" d="M77.617 62.56l-.06.06-.028.026-.06.055a.957.957 0 0 1-.079.062c-.027.02-.052.041-.08.06l-.068.043-.019.012-.084.05a2.042 2.042 0 0 1-.276.122l-.094.032c-.067.019-.138.038-.206.052l-.104.02-.087.012h-.02l-.11.011-.106.008h-.24c-.118 0-.239-.008-.363-.024-.04 0-.08-.01-.121-.016l-.104-.014a7.44 7.44 0 0 1-1.64-.478l-.074-.03-.242-.106-.123-.057-.1-.045-.173-.083a24 24 0 0 1-.402-.204l-.146-.08c-.062-.031-.123-.066-.185-.102-.062-.035-.16-.089-.241-.137-.105-.059-.209-.12-.319-.185l-.16-.095-.159-.1-.16-.1a23.34 23.34 0 0 1-.637-.425l-.16-.112a24.21 24.21 0 0 1-.637-.466l-.32-.243-.159-.125-.159-.127a10.775 10.775 0 0 0 4.305-1.992c2.19 1.518 4.326 2.464 5.805 2.274a8.652 8.652 0 0 1-.956 1.658l-.077.102c-.03.04-.06.08-.092.118-.032.038-.056.072-.086.107-.03.035-.032.041-.05.06l-.08.096a4.538 4.538 0 0 1-.116.13c-.04.044-.096.119-.148.176z"/>
        <path fill="#FF6700" d="M77.626 48.193a10.834 10.834 0 0 1-8.503 11.64c3.404 2.71 6.984 4.325 8.494 2.727 3.45-3.653 3.7-10.236.01-14.367z" opacity=".3" style="mix-blend-mode:multiply"/>
        <path fill="#2F65D1" d="M70.47 62.155v6.614h1.3v-5.313h13.733v5.313h1.3v-6.614z"/>
        <path fill="#ACCBF9" d="M103.002 71.18v23.958c0 1.321-1.07 2.392-2.391 2.392h-5.345c1.32 0 2.392-1.07 2.392-2.392V71.18c0-1.32-1.071-2.392-2.392-2.392h5.345a2.392 2.392 0 0 1 2.391 2.392z"/>
        <rect width="38.347" height="28.747" x="59.314" y="68.785" fill="#134DA3" rx="6.32"/>
        <path fill="#BBD4FD" d="M97.66 71.18v23.958c0 1.321-1.07 2.392-2.39 2.392H61.705a2.392 2.392 0 0 1-2.392-2.392V71.18c0-1.32 1.07-2.392 2.392-2.392h33.56a2.392 2.392 0 0 1 2.395 2.392z"/>
        <path fill="#2F65D1" d="M67.018 69.812a7.14 7.14 0 0 1-7.14 7.14c-.19 0-.379 0-.562-.024V71.18c0-1.32 1.07-2.392 2.391-2.392h5.235c.051.34.077.681.076 1.024zM67.018 97.192c0 .115 0 .228-.01.34h-5.302a2.392 2.392 0 0 1-2.392-2.392v-5.064a7.14 7.14 0 0 1 7.704 7.116zM97.662 71.18v5.74a7.14 7.14 0 0 1-7.724-8.135h5.328a2.392 2.392 0 0 1 2.396 2.395zM97.662 90.087v7.45h-7.789c0-.112-.01-.225-.01-.34a7.138 7.138 0 0 1 7.14-7.14c.223-.005.443.005.66.03z"/>
        <path fill="#134DA3" d="M100.61 68.787h-5.344c1.32 0 2.392 1.07 2.392 2.391v5.74h5.344v-5.74c0-1.32-1.07-2.391-2.391-2.391zM97.662 90.087v7.446h2.949c1.32 0 2.391-1.07 2.391-2.391v-5.084c-2.721-.004-5.167-.001-5.34.03zM70.47 66.782h1.299v1H70.47zM85.505 66.782h1.299v1h-1.299z"/>
        <path fill="#2F65D1" d="M69.401 67.533h3.57v1.245h-3.57zM84.404 67.533h3.57v1.245h-3.57z"/>
        <path fill="#FFF" d="M74.694 88.277h9.141v4.219h-9.141z"/>
        <path fill="#6997F5" d="M82.928 89.186v2.403h-7.325v-2.403z"/>
        <path fill="#8EB3F4" d="M70.148 68.785h1.931v28.748h-1.931z"/>
        <path fill="#6997F5" d="M72.08 68.785v19.668l-.933.794-.999-.794V68.785z"/>
        <path fill="#FFF" d="M72.84 79.423h-3.462a.914.914 0 0 0-.915.914v3.462a.914.914 0 0 0 .915.913h3.462a.914.914 0 0 0 .913-.913v-3.462a.914.914 0 0 0-.913-.914zm0 4.382h-3.462v-3.468h3.468v3.468h-.006z"/>
        <path fill="#8EB3F4" d="M85.205 68.785h1.931v28.748h-1.931z"/>
        <path fill="#6997F5" d="M87.155 68.785v19.668l-.933.794-.998-.794V68.785z"/>
        <path fill="#FFF" d="M87.915 79.423h-3.461a.912.912 0 0 0-.914.914v3.462a.912.912 0 0 0 .914.913h3.461a.912.912 0 0 0 .914-.913v-3.462a.912.912 0 0 0-.914-.914zm0 4.382h-3.461v-3.468h3.468v3.468h-.007z"/>
    </g>
</svg>
