<svg xmlns="http://www.w3.org/2000/svg" width="122" height="99" viewBox="0 0 122 99">
    <defs>
        <linearGradient id="a" x1="97.437%" x2="21.566%" y1="88.234%" y2="40.108%">
            <stop offset="0%" stop-color="#C3D0E8"/>
            <stop offset="34%" stop-color="#CCD8ED"/>
            <stop offset="92%" stop-color="#E6EEFC"/>
            <stop offset="100%" stop-color="#EAF2FE"/>
        </linearGradient>
        <linearGradient id="b" x1="-11.561%" x2="57.028%" y1="105.021%" y2="38.309%">
            <stop offset="0%" stop-color="#859FDC"/>
            <stop offset="27%" stop-color="#8EA8E2"/>
            <stop offset="72%" stop-color="#A8C1F1"/>
            <stop offset="100%" stop-color="#BBD4FD"/>
        </linearGradient>
    </defs>
    <g fill="none" fill-rule="evenodd">
        <path fill="#F6F9FD" fill-rule="nonzero" d="M17.128 98.638S3.41 93.327.755 82.812c-2.172-8.605.55-19.54 11.422-26.145 10.872-6.606 22.154-8.675 19.677-20.504-2.477-11.828-3.717-23.393 11.15-28.208C57.868 3.14 68.801 5.89 75.405 3.001c6.605-2.89 15.62-5.91 26.071 3.3 10.451 9.211 2.14 28.764 1.939 30.206-.2 1.443-3.217 16.078 6.14 25.704 9.358 9.626 13.199 18.129 11.473 25.96-1.666 7.542-5.987 10.448-10.826 10.46-6.065.023-93.075.007-93.075.007z"/>
        <path fill="#E9F1FD" fill-rule="nonzero" d="M26.226 90.618S15.44 86.444 13.354 78.176c-1.708-6.754.433-15.357 8.977-20.55 8.545-5.194 17.42-6.815 15.47-16.117-1.951-9.303-2.92-18.39 8.762-22.177 11.683-3.786 20.283-1.616 25.474-3.894 5.192-2.278 12.281-4.65 20.5 2.597 8.218 7.247 1.669 22.608 1.507 23.743-.162 1.136-2.524 12.638 4.831 20.212 7.356 7.573 10.376 14.25 9.015 20.408-1.31 5.927-4.707 8.21-8.509 8.22-4.759.013-73.155 0-73.155 0z" opacity=".6"/>
        <path fill="#6997F5" fill-rule="nonzero" d="M23.574 61.802a17.805 17.805 0 0 0-.034 10.917l-.212-.299a50.211 50.211 0 0 0-2.212-2.93c.94-5.15-1.144-10.094-1.144-10.094a17.451 17.451 0 0 0 .776 9.64 70.512 70.512 0 0 0-2.094-2.409c.307-4.716-1.875-8.872-1.875-8.872a16.53 16.53 0 0 0 1.545 8.514c-.13-.143-.263-.283-.396-.422l-.02-.011a50.548 50.548 0 0 0-1.8-1.797c.306-4.39-1.73-8.274-1.73-8.274a15.19 15.19 0 0 0 1.537 8.091 60.336 60.336 0 0 0-1.616-1.47c-.288-.25-.579-.496-.871-.74a12.72 12.72 0 0 0-2.214-5.305c.39 2.72 1.53 4.487 2.014 5.133a38.403 38.403 0 0 0-3.158-2.364 11.597 11.597 0 0 0-5.248-3.303s2.262 2.747 5.58 3.777c.676.472 1.344.977 2.003 1.506a5.428 5.428 0 0 0-4.555.132s2.424 1.05 4.686-.026c.56.453 1.114.92 1.661 1.403.323.292.66.591.984.894a7.071 7.071 0 0 0-5.927.172s3.151 1.366 6.089-.025c.665.62 1.32 1.262 1.961 1.926a8.816 8.816 0 0 0-7.038.352s3.807 1.65 7.417.042c.411.43.816.874 1.215 1.33.466.532.927 1.07 1.381 1.616-.93-.535-4.524-2.313-8.91-.886 0 0 4.507 2.468 9.05 1.057a50.01 50.01 0 0 1 2.67 3.53l.057.082c-1.186-.797-4.895-2.917-9.725-2.101 0 0 4.738 3.19 9.946 2.424l.212.3c.08.117.161.231.242.35l.23.36.916 1.44c.323.473.585.969.87 1.467l.85 1.478.306-.145-.866-1.492c-.292-.496-.567-1.002-.889-1.478l-.935-1.455-.226-.363a9.928 9.928 0 0 0-.248-.352l-.076-.084c1.737-5.478-.179-11.236-.179-11.236z"/>
        <rect width="74.523" height="52.909" x="22.213" y="41.109" fill="#557DE2" fill-rule="nonzero" rx="26.454"/>
        <path fill="#2F65D1" fill-rule="nonzero" d="M93.087 86.582a4.524 4.524 0 0 1-4.558 4.49H30.42a4.525 4.525 0 0 1-4.558-4.49V48.546a4.525 4.525 0 0 1 4.558-4.49H88.53a4.525 4.525 0 0 1 4.558 4.49v38.036z"/>
        <path fill="#134DA3" fill-rule="nonzero" d="M91.494 85.318c0 2.316-1.939 4.192-4.342 4.192H31.796c-2.398 0-4.34-1.876-4.34-4.192v-35.51c0-2.314 1.938-4.192 4.34-4.192h55.356c2.398 0 4.342 1.878 4.342 4.192v35.51z"/>
        <path fill="#D0D2D3" fill-rule="nonzero" d="M56.887 81.902c-9.018-5.421-17.136-13.389-18.914-24.197-.746-4.525-.646-9.227.62-13.648h-8.766c-2.567 0-4.648 2.01-4.648 4.489v38.036c0 2.48 2.08 4.49 4.648 4.49h53.704c-9.324-1.443-18.545-4.3-26.644-9.17z" style="mix-blend-mode:multiply"/>
        <path fill="#BBD4FD" fill-rule="nonzero" d="M22.344 97.483c-.703 0-1.271-1.418-1.271-3.166s.568-3.164 1.271-3.164h20.36V90.06h-21.03c-1.293 0-3 .626-3 4.258 0 3.633 1.539 4.26 3 4.26h21.029v-1.094H22.344z"/>
        <path fill="#A6C7F7" fill-rule="nonzero" d="M21.407 90.685c-.716 0-2.013.623-2.013 3.632 0 2.668 1.292 3.634 2.013 3.634h21.018V90.68l-21.018.005z"/>
        <path fill="#FFF" fill-rule="nonzero" d="M22.558 91.153c-.676 0-1.902.543-1.902 3.164 0 2.324 1.226 3.166 1.902 3.166h19.875v-6.33H22.558z"/>
        <path fill="#D0D2D3" fill-rule="nonzero" d="M42.425 92.357l-10.255-.09 10.255-.091zM42.425 93.294l-6.507-.09 6.507-.09zM34.528 93.204s-.669.029-1.672.051l-1.713.028-1.965.011-1.965-.011-1.713-.028a88.63 88.63 0 0 1-1.672-.051s.669-.03 1.672-.05l1.713-.028 1.965-.011 1.965.011 1.713.028c1.003.022 1.672.05 1.672.05zM33.242 92.032s-.67.03-1.673.05l-1.712.028-1.965.013-1.964-.018-1.714-.03c-1.002-.02-1.67-.05-1.67-.05s.668-.028 1.67-.05l1.714-.027 1.964-.013 1.965.013 1.712.028c1.004.027 1.673.056 1.673.056zM29.178 94.904s-.47.029-1.178.05c-.354 0-.766.024-1.207.027l-1.383.013-1.385-.013c-.441 0-.853-.02-1.207-.026-.708-.022-1.178-.051-1.178-.051s.47-.03 1.178-.05c.354 0 .766-.026 1.207-.028l1.385-.013 1.383.013c.441 0 .853.02 1.207.028.708.02 1.178.05 1.178.05zM31.852 96.37s-.357.028-.895.05c-.268 0-.582.024-.918.027l-1.052.013-1.052-.013c-.336 0-.646-.02-.92-.028-.536-.02-.894-.05-.894-.05s.358-.029.895-.052c.27 0 .583-.024.92-.027l1.051-.011 1.052.013c.336 0 .646.019.918.027.538.021.895.05.895.05zM33.625 93.966s-.359.03-.897.05c-.268 0-.582.025-.918.028l-1.052.013-1.052-.013c-.336 0-.646-.02-.918-.028-.538-.02-.896-.05-.896-.05s.358-.029.896-.051c.269 0 .582-.025.918-.028l1.052-.011 1.052.013c.336 0 .646.02.918.027.538.021.897.05.897.05zM42.425 94.639l-8.141-.09 8.14-.09zM42.425 96.46l-5.918-.09 5.918-.091z"/>
        <path fill="#BBD4FD" fill-rule="nonzero" d="M40.571 80.429c.702 0 1.272-1.418 1.272-3.164 0-1.747-.57-3.166-1.272-3.166h-20.36v-1.094h21.031c1.293 0 3 .626 3 4.26s-1.54 4.258-3 4.258H20.213v-1.094h20.358z"/>
        <path fill="#A6C7F7" fill-rule="nonzero" d="M41.509 73.63c.714 0 2.011.624 2.011 3.635 0 2.666-1.292 3.632-2.011 3.632H20.49v-7.271l21.018.005z"/>
        <path fill="#FFF" fill-rule="nonzero" d="M40.358 74.1c.676 0 1.902.542 1.902 3.165 0 2.322-1.226 3.164-1.902 3.164H20.491v-6.33h19.867z"/>
        <path fill="#D0D2D3" fill-rule="nonzero" d="M20.49 75.122l10.255.09-10.254.091zM20.49 76.06l6.508.09-6.507.09zM28.388 76.15s.669-.03 1.67-.05l1.715-.028 1.963-.011 1.965.011 1.713.028c1.003.02 1.672.05 1.672.05s-.669.029-1.672.051l-1.713.028-1.965.011-1.963-.011-1.718-.028c-.998-.022-1.667-.051-1.667-.051zM29.674 74.977s.669-.03 1.67-.05l1.715-.028 1.963-.013 1.965.013 1.713.028c1.004.02 1.673.05 1.673.05s-.67.029-1.673.05l-1.713.029-1.965.011-1.963-.013-1.711-.026c-1.005-.02-1.674-.051-1.674-.051zM33.736 77.85s.472-.03 1.178-.05c.354-.009.766-.025 1.209-.028l1.383-.013 1.385.011c.441 0 .853.021 1.207.028.706.023 1.178.052 1.178.052s-.472.029-1.178.05c-.354.008-.766.024-1.207.027l-1.385.013-1.383-.013c-.443 0-.855-.02-1.209-.027-.706-.015-1.178-.05-1.178-.05zM31.062 79.315s.359-.029.895-.051c.27 0 .584-.023.92-.028l1.052-.011 1.051.011c.337 0 .647.021.918.028.538.022.897.051.897.051s-.359.03-.897.05c-.268 0-.581.025-.918.028l-1.051.013-1.052-.013c-.336 0-.647-.02-.92-.028-.536-.026-.895-.05-.895-.05zM29.291 76.916s.359-.03.895-.05c.27-.008.582-.025.918-.03l1.054-.01 1.051.01c.337 0 .647.022.918.028.538.023.895.052.895.052s-.357.029-.895.05c-.268 0-.581.024-.918.027l-1.051.013-1.054-.013c-.336 0-.646-.02-.918-.027-.536-.024-.895-.05-.895-.05zM20.49 77.404l8.14.09-8.14.09zM20.49 79.225l5.918.09-5.917.09z"/>
        <path fill="#557DE2" fill-rule="nonzero" d="M23.031 89.046c-.703 0-1.272-1.417-1.272-3.164s.57-3.164 1.272-3.165h20.36v-1.094h-21.03c-1.293 0-3 .625-3 4.26 0 3.633 1.539 4.257 3 4.257h21.028v-1.094H23.031z"/>
        <path fill="#ADB6B2" fill-rule="nonzero" d="M22.094 82.248c-.716 0-2.012.624-2.012 3.634 0 2.666 1.293 3.634 2.012 3.634h21.018v-7.268H22.094z" style="mix-blend-mode:multiply"/>
        <path fill="#FFF" fill-rule="nonzero" d="M23.244 82.717c-.675 0-1.902.544-1.902 3.165 0 2.322 1.227 3.164 1.902 3.164H43.12v-6.33H23.244z"/>
        <path fill="#D0D2D3" fill-rule="nonzero" d="M43.112 83.92l-10.255-.09 10.255-.089zM43.112 84.86l-6.508-.091 6.508-.09zM35.215 84.769s-.67.029-1.673.05l-1.712.027-1.965.013-1.964-.013-1.714-.027c-1.002-.021-1.67-.05-1.67-.05s.668-.03 1.67-.052l1.714-.027 1.964-.012 1.965.012 1.712.027a88.63 88.63 0 0 1 1.673.052zM33.933 83.596s-.669.029-1.67.051l-1.715.028-1.963.011-1.965-.011-1.713-.028a88.63 88.63 0 0 1-1.672-.051s.669-.03 1.672-.05l1.713-.028 1.965-.011 1.963.011 1.715.028c.997.02 1.67.05 1.67.05zM29.865 86.469s-.47.027-1.178.05c-.353 0-.765.024-1.207.027l-1.384.012-1.384-.012c-.442 0-.854-.02-1.207-.027-.707-.023-1.178-.05-1.178-.05s.471-.03 1.178-.052c.353 0 .765-.024 1.207-.027l1.384-.012 1.384.012c.442 0 .854.02 1.207.027.707.023 1.178.052 1.178.052zM32.54 87.933s-.358.029-.896.05c-.269 0-.582.024-.918.027l-1.052.013-1.052-.013c-.336 0-.646-.02-.92-.027-.536-.021-.895-.05-.895-.05s.36-.03.896-.05c.27 0 .583-.026.919-.028l1.052-.013 1.052.013c.336 0 .646.02.918.028.538.02.897.05.897.05zM34.312 85.53s-.36.029-.896.05c-.27 0-.583.024-.918.03l-1.053.01-1.052-.01c-.336 0-.646-.022-.918-.028-.538-.023-.895-.052-.895-.052s.357-.03.895-.05c.268 0 .582-.024.918-.028l1.052-.013 1.053.013c.335 0 .647.02.918.028.537.02.896.05.896.05zM43.112 86.204l-8.141-.09 8.14-.091zM43.112 88.023l-5.918-.09 5.918-.09z"/>
        <path fill="#BBD4FD" fill-rule="nonzero" d="M43.844 62.817c.003-.169.02-.337.051-.502.037-.24.054-.483.05-.726a8.889 8.889 0 0 0-.526.412c-.193.16-.393.31-.6.454a4.45 4.45 0 0 1-.619.365 1.243 1.243 0 0 1-1.318-.09 2.138 2.138 0 0 1-.553-.606 1.435 1.435 0 0 1-.17-.71c.001-.125.012-.25.033-.374a5.5 5.5 0 0 1 .097-.448 6.316 6.316 0 0 1 .943-2.113 6.464 6.464 0 0 1 1.658-1.658c.228-.168.49-.285.766-.345a3.587 3.587 0 0 1 1.131-.053c.138.015.262.028.372.042a3.75 3.75 0 0 1 .271-.05c.073-.01.147-.015.22-.014a.97.97 0 0 1 .362.058.619.619 0 0 1 .357.386.84.84 0 0 1 .04.263c.001.122-.018.242-.058.357-.038.113-.077.228-.114.345l-.955 3.807c-.02.206-.036.397-.05.57a2.44 2.44 0 0 1-.141.646.68.68 0 0 1-.286.349.541.541 0 0 1-.281.065c-.12.003-.24-.007-.359-.03a.541.541 0 0 1-.205-.082.24.24 0 0 1-.094-.13.63.63 0 0 1-.022-.188zm-2.398-2.181a2.673 2.673 0 0 0-.094.664.997.997 0 0 0 .058.35.24.24 0 0 0 .252.162c.197.001.392-.045.567-.134.177-.09.342-.198.495-.323.208-.162.418-.357.633-.567.213-.21.416-.43.606-.661.186-.225.355-.463.506-.713.14-.226.249-.47.323-.725a4.08 4.08 0 0 0 .137-.97.417.417 0 0 0-.043-.184.162.162 0 0 0-.162-.09 1.962 1.962 0 0 0-.71.137 3.13 3.13 0 0 0-.69.368c-.23.16-.44.342-.633.545-.397.414-.725.89-.97 1.409a4.23 4.23 0 0 0-.275.732zM51.359 58.453c-.275 1.292-.412 2.15-.412 2.572a.385.385 0 0 1-.257.333c-.16.083-.337.128-.517.13a.73.73 0 0 1-.469-.145.444.444 0 0 1-.18-.361c0-.515.137-1.344.411-2.486-.678.015-1.266.05-1.763.102-.289.028-.484.042-.584.042-.275 0-.413-.24-.413-.722 0-.188.133-.336.401-.448.268-.111 1.165-.178 2.692-.202.482-1.634.787-2.55.916-2.747a.646.646 0 0 1 .572-.292c.395 0 .592.094.592.28a1.556 1.556 0 0 1-.108.463c-.071.208-.276.957-.614 2.248.911-.03 1.66-.044 2.247-.044.375 0 .564.188.564.564 0 .443-.277.664-.832.664a81.5 81.5 0 0 0-2.246.049zM56.2 60.757c.095-.391.207-.816.331-1.277.125-.46.256-.929.391-1.409l.401-1.426c.133-.472.254-.918.365-1.337.111-.419.206-.796.285-1.13.08-.339.134-.61.161-.809l.08-.585.046-.145a.456.456 0 0 1 .21-.267.386.386 0 0 1 .206-.052.822.822 0 0 1 .376.08.66.66 0 0 1 .243.213.879.879 0 0 1 .126.307c.024.119.036.24.035.362 0 .127-.01.254-.029.38-.02.127-.04.242-.065.342-.158.662-.34 1.328-.544 1.999-.205.671-.39 1.347-.554 2.026.192-.18.395-.35.607-.509a4.83 4.83 0 0 1 .684-.426c.234-.122.48-.22.733-.293.244-.071.497-.108.752-.108.233-.006.466.033.685.115a1.244 1.244 0 0 1 .756.789c.061.19.092.39.09.59 0 .106-.006.211-.019.316-.01.105-.028.21-.053.313-.114.471-.293.924-.532 1.345-.218.382-.48.737-.78 1.058a6.087 6.087 0 0 1-.947.824c-.33.235-.674.451-1.03.647a3.865 3.865 0 0 1-.646.28 2.1 2.1 0 0 1-.619.096 1.293 1.293 0 0 1-.45-.061.789.789 0 0 1-.278-.185 1.438 1.438 0 0 1-.09.152.798.798 0 0 1-.132.147.595.595 0 0 1-.415.157.729.729 0 0 1-.585-.207.826.826 0 0 1-.173-.552c0-.084.006-.167.018-.25.011-.083.029-.167.053-.248l.307-1.262zm4.596-2.941a1.874 1.874 0 0 0-.742.173c-.28.121-.55.265-.808.43a9.75 9.75 0 0 0-.78.55l-.666.523c-.057.197-.115.388-.173.57a9.147 9.147 0 0 0-.162.556c-.046.187-.106.381-.152.578a8.722 8.722 0 0 0-.12.629l-.043.283.044.13c.088-.053.181-.096.278-.13.085-.03.161-.055.247-.076l.249-.07c.086-.024.183-.058.29-.1a5.656 5.656 0 0 0 1.903-1.221 3.97 3.97 0 0 0 1.108-2.169c.014-.073.022-.148.023-.223a.42.42 0 0 0-.117-.323.536.536 0 0 0-.38-.108v-.002zM69.552 58.584c.372 0 .556.187.556.562 0 .445-.27.667-.808.666-.763 0-1.664.021-2.703.064-1.04.043-1.762.086-2.167.13-.28.029-.467.043-.564.043-.285 0-.427-.24-.427-.722a.425.425 0 0 1 .254-.38 1.94 1.94 0 0 1 .725-.187c.316-.03 1.099-.068 2.348-.112a82.76 82.76 0 0 1 2.786-.064zm.441-2.812c.375 0 .564.187.564.564 0 .443-.277.664-.832.664-.754 0-1.65.022-2.687.066a40.868 40.868 0 0 0-2.154.13c-.288.029-.485.043-.585.043-.28 0-.42-.24-.419-.722a.423.423 0 0 1 .257-.38 1.93 1.93 0 0 1 .73-.187c.316-.033 1.097-.07 2.344-.113a88.647 88.647 0 0 1 2.782-.065zM72.008 60.303c.102-.4.239-.789.41-1.164a7.79 7.79 0 0 1 .645-1.174c.255-.378.546-.729.871-1.047A4.49 4.49 0 0 1 75 56.134c.13-.07.269-.12.412-.152.15-.034.303-.05.456-.05.15-.002.298.013.444.042a.97.97 0 0 1 .354.145.74.74 0 0 1 .322.65c0 .119-.018.237-.052.35a.982.982 0 0 1-.152.324.717.717 0 0 1-.606.313.75.75 0 0 1-.292-.056 2.396 2.396 0 0 1-.38-.207 1.015 1.015 0 0 0-.137-.062c-.197.09-.38.206-.545.345a3.674 3.674 0 0 0-.485.473c-.148.175-.283.361-.404.556a7.271 7.271 0 0 0-.332.591 5.176 5.176 0 0 0-.414 1.105c-.037.13-.068.262-.09.395a2.34 2.34 0 0 0-.041.43c0 .092.008.184.026.274.014.083.045.161.09.231a.457.457 0 0 0 .173.162c.084.04.176.06.268.057.17 0 .338-.022.501-.065.166-.042.328-.096.485-.162a3.82 3.82 0 0 0 .467-.234c.15-.089.3-.18.444-.271.091-.057.183-.118.274-.18.09-.061.179-.118.26-.161.073-.044.15-.084.228-.12a.469.469 0 0 1 .184-.047c.071 0 .141.018.203.054.064.039.1.11.094.184a.603.603 0 0 1-.044.21 1.861 1.861 0 0 1-.274.506 2.522 2.522 0 0 1-.386.4 3.174 3.174 0 0 1-.456.315c-.162.09-.323.177-.485.253a4.16 4.16 0 0 1-.908.358c-.25.071-.509.11-.77.118a1.51 1.51 0 0 1-.237-.02 1.005 1.005 0 0 1-.239-.065 1.832 1.832 0 0 1-.853-.68 1.863 1.863 0 0 1-.267-1.012c0-.178.014-.355.04-.53.033-.202.077-.402.133-.598z"/>
        <path fill="#EDBA46" fill-rule="nonzero" d="M113.1 53.786l.835.126 1.854-12.282-.86-.335z"/>
        <path fill="#EDBA46" fill-rule="nonzero" d="M114.297 61.726c-1.897-1.056-.055-3.834-.055-3.834 1.544-2.31.088-3.393.088-3.393s-2.077-1.37-3.106 1.473c0 .01-1.716 4.75 3.073 5.754z"/>
        <path fill="#E99B43" fill-rule="nonzero" d="M112.624 54.305l.411-2.722 1.537.232-.41 2.722z"/>
        <path fill="#E6E7E8" fill-rule="nonzero" d="M113.374 54.31l.413-2.725.956.145-.413 2.726z" style="mix-blend-mode:multiply"/>
        <path fill="#E6E7E8" fill-rule="nonzero" d="M113.675 54.46l.411-2.722.478.072-.411 2.723z" style="mix-blend-mode:multiply"/>
        <path fill="#FFF" fill-rule="nonzero" d="M112.914 54.347l.08.013.411-2.723-.08-.011z"/>
        <path fill="#E89242" fill-rule="nonzero" d="M114.095 54.524s.018.025.054.067c.051.06.096.126.134.197.06.11.106.228.139.349.037.159.053.322.047.485a3.216 3.216 0 0 1-.324 1.174 6.795 6.795 0 0 1-.323.602l-.346.612a3.888 3.888 0 0 0-.289.617c-.037.105-.079.21-.11.314-.03.103-.051.218-.072.323-.04.202-.066.408-.076.614-.009.183.01.367.055.544.011.04.02.08.032.118l.048.114c.025.07.057.138.096.201.057.108.123.21.197.306.05.063.104.123.161.18l.057.062-.063-.055a1.47 1.47 0 0 1-.174-.161 2.204 2.204 0 0 1-.23-.296 1.131 1.131 0 0 1-.116-.197c-.018-.037-.037-.073-.055-.112-.018-.038-.03-.084-.044-.127a2.543 2.543 0 0 1-.035-1.217 4.37 4.37 0 0 1 .067-.323c.026-.102.072-.222.109-.335.078-.223.175-.44.29-.646l.363-.6c.12-.198.237-.387.323-.581.184-.347.305-.724.357-1.114.014-.155.01-.31-.01-.465a1.626 1.626 0 0 0-.103-.347 1.317 1.317 0 0 0-.112-.207 1.617 1.617 0 0 0-.047-.096z"/>
        <path fill="#E89242" fill-rule="nonzero" d="M113.656 54.455c.074.084.139.175.194.271a1.574 1.574 0 0 1 .176.867c-.036.42-.154.83-.348 1.205-.203.414-.467.82-.686 1.244a3.515 3.515 0 0 0-.458 1.293c-.051.4.038.806.254 1.147.154.245.335.473.538.679l.235.234s-.1-.07-.259-.21a3.654 3.654 0 0 1-.598-.646 1.876 1.876 0 0 1-.263-.538 1.777 1.777 0 0 1-.071-.673c.059-.481.213-.946.454-1.368.23-.432.502-.832.706-1.23.196-.355.328-.743.39-1.144.02-.16.02-.324 0-.485a1.485 1.485 0 0 0-.217-.573l-.047-.073z"/>
        <path fill="#E89242" fill-rule="nonzero" d="M113.218 54.389l.056.07a1.346 1.346 0 0 1 .278.584c.039.17.05.345.034.519a3.33 3.33 0 0 1-.376 1.233c-.217.42-.485.84-.692 1.283-.23.415-.348.882-.344 1.356.008.214.063.424.162.615.099.17.216.328.349.472.244.278.472.485.628.646l.25.235-.27-.212a8.448 8.448 0 0 1-.678-.598 2.747 2.747 0 0 1-.384-.485 1.596 1.596 0 0 1-.215-.66 2.875 2.875 0 0 1 .336-1.455c.215-.456.494-.87.71-1.276.206-.364.346-.76.414-1.172.022-.164.022-.33 0-.494a1.522 1.522 0 0 0-.098-.372 1.761 1.761 0 0 0-.118-.22.945.945 0 0 0-.042-.07z"/>
        <path fill="#E89242" fill-rule="nonzero" d="M112.767 54.213l.044.055a1.304 1.304 0 0 1 .249.45c.043.13.07.265.079.403.008.346-.051.69-.173 1.015a4.332 4.332 0 0 1-.233.53 7.46 7.46 0 0 1-.297.515c-.21.318-.393.654-.548 1.002-.06.16-.106.327-.136.496a1.53 1.53 0 0 0-.027.237c-.006.075-.006.15 0 .225.009.132.026.263.052.393.03.114.053.216.082.297l.092.255-.13-.24c-.038-.078-.072-.178-.119-.293a2.131 2.131 0 0 1-.087-.402 1.238 1.238 0 0 1-.018-.236 2.262 2.262 0 0 1 .137-.79 5.09 5.09 0 0 1 .555-1.036 6.102 6.102 0 0 0 .541-1.005c.133-.303.207-.63.217-.96a1.548 1.548 0 0 0-.042-.393 1.202 1.202 0 0 0-.104-.287 1.109 1.109 0 0 0-.097-.175l-.037-.056z"/>
        <path fill="#E89242" fill-rule="nonzero" d="M112.715 54.316a8.131 8.131 0 0 0-.672 1.094c-.09.162-.18.357-.265.56-.084.201-.161.42-.239.645-.154.47-.23.961-.223 1.455a3.122 3.122 0 0 0 .517 1.72c.057.096.121.187.19.274.127.16.264.313.411.455.147.123.27.25.398.34.127.089.23.18.323.239l.294.195-.313-.161a3.927 3.927 0 0 1-.348-.213 4.119 4.119 0 0 1-.872-.773 2.991 2.991 0 0 1-.403-.585 3.288 3.288 0 0 1-.384-1.488 4.6 4.6 0 0 1 .255-1.514c.146-.42.335-.824.564-1.206.16-.268.338-.526.531-.772a7.98 7.98 0 0 1 .236-.265z"/>
        <path fill="#E89242" fill-rule="nonzero" d="M112.97 54.497l-.072.147c-.045.094-.11.226-.184.388-.075.161-.152.352-.246.55l-.123.324c-.042.115-.092.213-.122.323-.031.11-.073.223-.109.333a2.53 2.53 0 0 0-.097.323c-.047.215-.116.41-.14.585-.055.346-.105.584-.105.584s-.008-.236 0-.598c.016-.205.045-.408.089-.608.017-.115.046-.228.084-.338l.106-.342c.038-.113.082-.223.131-.331.045-.11.092-.217.14-.324.107-.198.198-.386.3-.534.103-.17.22-.33.349-.482z"/>
        <path fill="#557DE2" fill-rule="nonzero" d="M102.275 40.756l-4.217 9.876c-.535 1.252-6.317 1.824-12.093-.647-5.777-2.47-9.36-7.035-8.825-8.295l4.218-9.875 20.917 8.94z"/>
        <path fill="#BBBDBF" fill-rule="nonzero" d="M79.138 39.23c1.148 3.127 3.575 5.633 6.539 7.11 3.424 1.7 7.247 1.905 10.607 0 2.335-1.318 3.692-3.733 4.429-6.252l1.562.668-4.217 9.876c-.535 1.252-6.317 1.824-12.093-.647-5.777-2.47-9.36-7.035-8.825-8.295l1.616-3.772c.1.445.227.883.382 1.312z" style="mix-blend-mode:multiply"/>
        <path fill="#BBD4FD" fill-rule="nonzero" d="M69.216 22.954l27.879 3.491 20.211 16.418-27.476-1.847z"/>
        <path fill="#557DE2" fill-rule="nonzero" d="M83.08 33.81c1.11.665 2.283 1.17 3.512 1.347 2.566 1.074 5.332 1.615 7.917.646 2.217-.827 4.025-2.747 4.184-5.187a6.346 6.346 0 0 0-.798-3.523l19.418 15.77-27.47-1.847-10.251-8.981a15.27 15.27 0 0 0 3.488 1.776z"/>
        <path fill="#134DA3" fill-rule="nonzero" d="M117.306 42.863l-.313.735-27.522-1.815-20.484-18.295.229-.534L89.83 41.016z"/>
        <path fill="#EDBA46" fill-rule="nonzero" d="M95.695 33.08l20.178 8.618-1.272-1.033-19.25-8.373z"/>
        <path fill="#134DA3" fill-rule="nonzero" d="M95.498 33.547c-.226.529-1.13.647-2.03.264-.9-.383-1.442-1.132-1.216-1.65l.184-.433 3.232 1.381-.17.438z"/>
        <path fill="#134DA3" fill-rule="nonzero" d="M92.39 31.833c-.225.528.324 1.267 1.216 1.65.892.383 1.807.266 2.031-.262.225-.529-.323-1.269-1.215-1.65-.892-.381-1.806-.273-2.031.262z"/>
        <path fill="#134DA3" fill-rule="nonzero" d="M92.674 31.79c-.194.455.274 1.09 1.045 1.42.77.33 1.555.227 1.749-.227.193-.454-.274-1.089-1.046-1.418-.772-.33-1.554-.23-1.748.226z" opacity=".5" style="mix-blend-mode:soft-light"/>
        <path fill="#134DA3" fill-rule="nonzero" d="M93.11 31.734c-.145.341.205.818.785 1.065.58.247 1.167.171 1.312-.162.146-.332-.205-.817-.785-1.064-.58-.248-1.167-.18-1.312.161z" opacity=".5" style="mix-blend-mode:soft-light"/>
        <path fill="#134DA3" fill-rule="nonzero" d="M93.56 31.671c-.098.226.135.543.518.706.383.164.772.113.87-.113.096-.226-.136-.541-.521-.704-.385-.164-.777-.11-.868.111z" opacity=".5" style="mix-blend-mode:soft-light"/>
        <path fill="#E3AD4E" fill-rule="nonzero" d="M42.174 73.684l3.36 1.971 3.589-6.113-3.36-1.97a3.544 3.544 0 1 0-3.589 6.113v-.001z"/>
        <path fill="#777470" fill-rule="nonzero" d="M42.997 72.288l3.36 1.971-.818 1.391-3.365-1.966a3.544 3.544 0 0 1-.777-5.494 3.542 3.542 0 0 0 1.6 4.098z" opacity=".2" style="mix-blend-mode:multiply"/>
        <path fill="#ACC1F4" fill-rule="nonzero" d="M45.949 75.89l35.719 20.819 3.586-6.108-35.72-20.818z"/>
        <path fill="url(#a)" fill-rule="nonzero" d="M90.195 97.605l-8.527-.896 3.586-6.108z"/>
        <path fill="#777470" fill-rule="nonzero" d="M90.195 97.605l-8.527-.896.877-1.495z" opacity=".2" style="mix-blend-mode:multiply"/>
        <path fill="#557DE2" fill-rule="nonzero" d="M88.723 95.52l1.472 2.085-2.539-.266z"/>
        <path fill="#F6F9FD" fill-rule="nonzero" d="M45.952 75.892l-2.95-1.732 3.585-6.108 2.95 1.732z"/>
        <path fill="#DFE8F7" fill-rule="nonzero" d="M43.855 75.013l-1.01-.592 3.893-6.631 1.009.592z"/>
        <path fill="#777470" fill-rule="nonzero" d="M44.007 74.75L81.668 96.71l.877-1.495-37.66-21.957z" opacity=".2" style="mix-blend-mode:multiply"/>
        <path fill="#777470" fill-rule="nonzero" d="M46.715 70.137l37.661 21.957.878-1.493L47.59 68.642z" opacity=".05" style="mix-blend-mode:multiply"/>
        <path fill="#777470" fill-rule="nonzero" d="M43.856 75.012l-1.01-.592 1.19-2.026 1.009.592z" opacity=".15" style="mix-blend-mode:multiply"/>
        <path fill="#6997F5" fill-rule="nonzero" d="M108.663 85.56s-1.012-.605-1.18-1.397a2.175 2.175 0 0 1 .742-2.14c.622-.484 1.212-.86 1.212-.86l.607.573-.085-.824s1.18-.674 3.673-.354c-.112.18-.202.371-.269.572-.051.22-.44 1.598-.555 1.886-.258.61-.569 1.196-.928 1.753l-1.346-.388.924.826s-1.01 1.242-2.795.354zM99.7 71.26s2.595-.646 4.464.962l-.286 1.01.758-.69s1.062 1.077 1.432 1.885c.37.808.775 1.871.657 2.68-.118.807-.484 2.123-2.089 2.19 0 0-1.584.118-2.157-.353-.574-.472-1.094-.91-1.348-2.394h1.568l-1.616-.605s.318-3.34-1.383-4.685zM99.447 84.719s.455-.354 2.24-.338l.068.456.236-.456s1.196.288 1.5.456c.303.168.96.791.825 1.347-.134.556-.438 1.096-.944 1.112-.505.016-1.163-.162-1.55-.59-.385-.428-.943-1.651-2.375-1.987z"/>
        <path stroke="#4D81EC" stroke-linecap="round" d="M105.888 90.576s2.156-7.076 6.087-9.165M101.687 71.953s4.762 2.965 4 19.139M100.88 84.833s3.806 1.033 4.464 5.74"/>
        <path fill="url(#b)" fill-rule="nonzero" d="M101.576 90.395h7.727l-.899 8.335h-5.885z"/>
    </g>
</svg>
